<?xml version="1.0" encoding="utf-8"?>
<!-- Generator: Adobe Illustrator 19.0.0, SVG Export Plug-In . SVG Version: 6.00 Build 0)  -->
<svg version="1.1" id="Layer_1" xmlns="http://www.w3.org/2000/svg" xmlns:xlink="http://www.w3.org/1999/xlink" x="0px" y="0px"
	 viewBox="0 0 22.752 37.301" style="enable-background:new 0 0 22.752 37.301;" xml:space="preserve">
<style type="text/css">
	.st0{fill-rule:evenodd;clip-rule:evenodd;}
</style>
<path d="M11.376,37.301C5.103,37.301,0,32.206,0,25.942V11.359C0,5.096,5.103,0,11.376,0s11.376,5.096,11.376,11.359v14.583
	C22.752,32.206,17.649,37.301,11.376,37.301z M11.376,2.283c-5.014,0-9.093,4.071-9.093,9.076v14.583
	c0,5.004,4.079,9.075,9.093,9.075s9.093-4.071,9.093-9.075V11.359C20.469,6.354,16.39,2.283,11.376,2.283z"/>
<path class="st0" d="M11.376,8.305L11.376,8.305c1.401,0,2.544,1.141,2.544,2.54v3.624c0,1.427-1.144,2.569-2.544,2.569l0,0
	c-1.401,0-2.544-1.142-2.544-2.569v-3.624C8.832,9.446,9.975,8.305,11.376,8.305L11.376,8.305z"/>
</svg>
