<?xml version="1.0" encoding="utf-8"?>
<!-- Generator: Adobe Illustrator 17.1.0, SVG Export Plug-In . SVG Version: 6.00 Build 0)  -->
<!DOCTYPE svg PUBLIC "-//W3C//DTD SVG 1.1//EN" "http://www.w3.org/Graphics/SVG/1.1/DTD/svg11.dtd">
<svg version="1.1" id="Laag_1" xmlns="http://www.w3.org/2000/svg" xmlns:xlink="http://www.w3.org/1999/xlink" x="0px" y="0px"
	 viewBox="0 0 200 44" enable-background="new 0 0 200 44" xml:space="preserve">
<path fill="#FFFFFF" d="M197.1,5.6l-12,11.6L173.8,0h12.5C191.4,0,195.1,2.1,197.1,5.6z M172.5,0l11.9,18L173,29l-11.9-2V0H172.5z
	 M156.7,8.8h-6v7.7h5.5v9.8l-15.5-2.6L131.6,0h25.1V8.8z M130.4,0l9,23.4L118.9,20V0H130.4z M115.1,11c0,3.3-0.9,6-2.7,7.9l-17.8-3
	L87.7,0l17,0C111.4,0,115.1,4.3,115.1,11z M72.1,0v3.2l-8.8,13.2l-19.2-2.1V0L72.1,0z M40.5,9.9H34v3.3l-23.3-2.6L23.5,0h17.1V9.9z
	 M0,0h21.8l-13,10.7L15,43.8H0V0z M38.9,27.4h-11v16.4H16.2L10,11.6l24,2.7v3.3h4.9V27.4z M44.1,15.4l19,2.1l4.6,26.3H44.1V15.4z
	 M68.8,43.8l-4.7-26.7l7.9-11.9v38.6H68.8z M76.7,0l9.8,0l7.2,16.5l-5.1,27.3l-11.9,0V0z M104.7,43.8l-15,0l5-26.8l16.7,2.8
	c-1.7,1.3-3.9,2.1-6.7,2.1c6.7,0,10.4,4.3,10.4,11C115.1,39.5,111.4,43.8,104.7,43.8z M118.9,21.1l20.7,3.5l-4.2,19.3h-16.5V21.1z
	 M156.8,43.8h-20.2l4.1-19.1l10,1.7V34h6.1V43.8z M161.1,28.1l11.7,1.9l7.6,13.7h-19.3V28.1z M181.6,43.8l-7.8-14.1l11.6-11.2
	l12.2-11.8c0.8,1.8,1.2,4,1.2,6.5c0,7.1-3.6,11.9-10,12.9L200,43.8H181.6z"/>
</svg>
