<?xml version="1.0" encoding="UTF-8"?>
<svg width="1481px" height="503px" viewBox="0 0 1481 503" version="1.1" xmlns="http://www.w3.org/2000/svg" xmlns:xlink="http://www.w3.org/1999/xlink">
    <!-- Generator: Sketch 51.2 (57519) - http://www.bohemiancoding.com/sketch -->
    <title>logo-v1-with-slogan copy</title>
    <desc>Created with Sketch.</desc>
    <defs></defs>
    <g id="Page-1" stroke="none" stroke-width="1" fill="none" fill-rule="evenodd">
        <g id="logo-v1-with-slogan-copy">
            <path d="M585.512299,75.3699673 L464.662469,361.551976 L487.408473,361.551976 L527.217875,269.97342 L669.380398,269.97342 L707.768174,361.551976 L731.935803,361.551976 L608.262197,75.3699673 L585.512299,75.3699673 Z M534.329896,251.377038 L596.885301,99.7012788 L598.306926,99.7012788 L660.862331,251.377038 L534.329896,251.377038 Z" id="Shape" fill="#FFFFFF" fill-rule="nonzero"></path>
            <polygon id="Shape" fill="#FFFFFF" fill-rule="nonzero" points="749.870655 362.862464 774.28366 362.862464 859.84992 254.867034 780.885454 153.947167 758.400406 153.947167 835.378492 255.074793 828.807857 263.361629"></polygon>
            <path d="M1276.64145,148.33451 C1241.57209,148.33451 1218.34962,163.120672 1206.97402,192.692996 L1206.97402,154.05768 L1185.64964,154.05768 L1185.64964,434.492999 L1206.98571,434.492999 L1206.98571,324.341581 C1220.25421,352.006181 1245.84606,365.838481 1283.76126,365.838481 C1335.89271,362.96383 1362.90619,327.668336 1364.80169,259.952001 C1361.95065,189.347947 1332.5639,152.142117 1276.64145,148.33451 Z M1275.21982,348.645452 C1230.67037,348.645452 1207.92307,322.888575 1206.97792,271.37482 L1206.97792,238.446994 C1210.76892,193.610271 1232.09459,169.762424 1270.95495,166.903452 C1318.34765,168.811175 1342.51787,200.291222 1343.46562,261.343593 C1343.46303,319.544833 1320.71443,348.645452 1275.21982,348.645452 Z" id="Shape" fill="#FFFFFF" fill-rule="nonzero"></path>
            <path d="M1478.13728,348.556491 C1472.45077,349.510353 1465.81652,349.987284 1458.23452,349.987284 C1441.17242,351.895007 1433.11525,342.832015 1434.063,322.798307 L1434.063,171.130388 L1476.71565,171.130388 L1476.71565,153.960879 L1434.07858,153.960879 L1434.07858,80.9826244 L1412.7542,92.428964 L1412.7542,153.972639 L1380.03734,153.972639 L1380.03734,171.142148 L1412.7542,171.142148 L1412.7542,322.817907 C1411.80645,352.390231 1424.60237,366.699462 1451.14198,365.745601 C1464.41048,365.745601 1474.36315,362.884016 1481,357.160846 L1478.13728,348.556491 Z" id="Shape" fill="#FFFFFF" fill-rule="nonzero"></path>
            <path d="M1054.30835,148.33451 C991.751648,152.149957 959.051671,189.353173 956.20842,259.944161 C958.103921,327.673563 991.277773,362.969057 1055.72998,365.830642 C1105.01818,365.830642 1135.34878,345.316083 1146.72178,304.286967 L1125.3974,298.563797 C1117.8154,331.951567 1094.11905,348.645452 1054.30835,348.645452 C1005.9679,346.737729 980.849925,319.073128 978.954424,265.651651 L1148.14341,265.651651 L1148.14341,261.339673 C1146.24791,187.902781 1114.96955,150.234393 1054.30835,148.33451 Z M980.383839,248.486061 C983.240073,196.972307 1007.88417,169.784637 1054.31614,166.923052 C1100.76109,167.876914 1124.45614,195.064583 1125.4013,248.486061 L980.383839,248.486061 Z" id="Shape" fill="#FFFFFF" fill-rule="nonzero"></path>
            <polygon id="Shape" fill="#FFFFFF" fill-rule="nonzero" points="871.947636 239.261597 939.546889 153.947167 914.787241 153.947167 859.81124 223.754159"></polygon>
            <polygon id="Shape" fill="#FFFFFF" fill-rule="nonzero" points="880.859084 281.244093 872.224171 270.209351 859.81124 285.877508 917.801865 362.599343 943.39112 362.599343"></polygon>
            <path d="M482.328768,458.398208 L469.207946,458.398208 L469.207946,499.665178 L482.094468,499.665178 C494.590551,499.665178 500.838499,492.748117 500.838499,478.913787 C500.526097,465.708291 494.356249,458.869833 482.328768,458.398208 Z M482.094468,502.259102 L465.45914,502.259102 L465.45914,455.332662 L482.563069,455.332662 C496.621163,455.804287 503.884402,463.664583 504.353005,478.913787 C504.665407,494.791825 497.245969,502.573518 482.094468,502.259102 Z M514.916899,502.259102 L518.431405,502.259102 L518.431405,455.332662 L514.916899,455.332662 L514.916899,502.259102 Z M552.191038,477.970542 L572.106572,477.970542 L572.106572,495.184764 C568.513948,500.215429 561.875503,502.809327 552.191038,502.966535 C537.351939,502.180494 529.620104,494.241594 528.995299,479.149599 C529.620104,463.585978 537.039542,455.41127 551.253837,454.625228 C561.875508,454.782436 568.82635,459.341408 572.106572,468.302281 L568.123465,469.481337 C565.780449,461.778131 560.079197,457.926586 551.019536,457.926586 C539.460659,458.712627 533.36891,465.786894 532.744106,479.149599 C533.36891,492.197887 539.694957,499.193551 551.722438,500.1368 C560.001093,499.979592 565.624246,497.857312 568.592066,493.769896 L568.592066,481.036089 L552.191038,481.036089 L552.191038,477.970542 Z M583.607667,502.259102 L587.122173,502.259102 L587.122173,455.332662 L583.607667,455.332662 L583.607667,502.259102 Z M633.065427,458.398208 L616.195798,458.398208 L616.195798,502.259102 L612.681292,502.259102 L612.681292,458.398208 L595.811664,458.398208 L595.811664,455.332662 L633.065427,455.332662 L633.065427,458.398208 Z M647.143827,484.101635 L667.996561,484.101635 L657.687344,459.105642 L657.453044,459.105642 L647.143827,484.101635 Z M675.728474,502.259102 L669.402364,487.167181 L645.972325,487.167181 L639.411914,502.259102 L635.663107,502.259102 L655.578641,455.096851 L659.327447,455.096851 L679.711581,502.259102 L675.728474,502.259102 Z M715.111317,502.494913 L715.111317,499.665178 L689.103973,499.665178 L689.103973,455.332662 L685.589467,455.332662 L685.589467,502.494913 L715.111317,502.494913 Z M759.200544,479.38541 L744.673919,479.38541 L744.673919,499.429367 L760.137745,499.429367 C768.572601,499.429367 772.789966,495.892233 772.789966,488.81786 C772.321363,482.686737 767.791601,479.542618 759.200544,479.38541 Z M758.497642,458.398208 L744.673919,458.398208 L744.673919,476.319864 L758.497642,476.319864 C766.463896,476.319864 770.525062,473.097142 770.681263,466.651602 C770.525062,461.30652 766.463896,458.555417 758.497642,458.398208 Z M760.840646,502.259102 L741.393714,502.259102 L741.393714,455.332662 L759.669144,455.332662 C768.885006,455.804287 773.805265,459.577229 774.430069,466.651602 C774.273868,472.939934 770.915596,476.634273 764.355152,477.734731 C772.165204,479.149606 776.22637,483.079754 776.538773,489.525294 C776.382572,497.857333 771.149915,502.101893 760.840646,502.259102 Z M820.373322,455.332662 L820.373322,482.686768 C820.529523,494.320181 815.453066,500.1368 805.143797,500.1368 C795.14693,500.1368 790.226671,494.320181 790.382872,482.686768 L790.382872,455.332662 L786.868366,455.332662 L786.868366,482.686768 C786.712165,496.363889 792.803915,503.123744 805.143797,502.966535 C817.796081,503.123744 824.044029,496.363889 823.887828,482.686768 L823.887828,455.332662 L820.373322,455.332662 Z M865.613675,468.302281 L869.596781,467.123225 C867.87857,458.948394 861.943019,454.782436 851.789951,454.625228 C841.168281,454.939645 835.623227,459.105602 835.154624,467.123225 C834.842222,473.725973 840.465375,477.89193 852.024252,479.621221 C862.489722,481.036096 867.48808,484.416023 867.019477,489.761105 C866.394673,496.363853 861.786811,499.822384 853.195754,500.1368 C843.823691,500.1368 838.512935,495.89224 837.263327,487.402993 L833.28022,488.81786 C835.467035,498.564774 842.183579,503.280952 853.430054,502.966535 C864.207926,502.494911 869.987278,498.25035 870.768283,490.232728 C871.236886,482.68673 865.379435,478.127758 853.195754,476.555675 C843.355088,474.983592 838.591028,471.839473 838.90343,467.123225 C839.684435,461.306518 844.057999,458.241002 852.024252,457.926586 C859.834304,458.083794 864.364066,461.542325 865.613675,468.302281 Z M881.097877,502.259102 L884.612383,502.259102 L884.612383,455.332662 L881.097877,455.332662 L881.097877,502.259102 Z M900.799486,457.926586 L928.212632,502.494913 L933.835842,502.494913 L933.835842,455.332662 L930.321336,455.332662 L930.321336,500.1368 L930.087035,500.1368 L902.439589,455.332662 L896.81638,455.332662 L896.81638,502.494913 L900.565186,502.494913 L900.565186,457.926586 L900.799486,457.926586 Z M949.085744,499.665178 L980.247696,499.665178 L980.247696,502.259102 L945.571238,502.259102 L945.571238,455.332662 L979.076194,455.332662 L979.076194,458.398208 L949.085744,458.398208 L949.085744,476.555675 L977.436091,476.555675 L977.436091,479.621221 L949.085744,479.621221 L949.085744,499.665178 Z M1020.33344,468.302281 L1024.31655,467.123225 C1022.59833,458.948394 1016.66278,454.782436 1006.50972,454.625228 C995.888045,454.939645 990.342992,459.105602 989.874388,467.123225 C989.561986,473.725973 995.185139,477.89193 1006.74402,479.621221 C1017.20949,481.036096 1022.20784,484.416023 1021.73924,489.761105 C1021.11444,496.363853 1016.50658,499.822384 1007.91552,500.1368 C998.543456,500.1368 993.2327,495.89224 991.983092,487.402993 L987.999985,488.81786 C990.1868,498.564774 996.903344,503.280952 1008.14982,502.966535 C1018.92769,502.494911 1024.70704,498.25035 1025.48805,490.232728 C1025.95665,482.68673 1020.0992,478.127758 1007.91552,476.555675 C998.074853,474.983592 993.310793,471.839473 993.623195,467.123225 C994.4042,461.306518 998.777763,458.241002 1006.74402,457.926586 C1014.55407,458.083794 1019.08383,461.542325 1020.33344,468.302281 Z M1065.10519,468.302281 L1069.0883,467.123225 C1067.37009,458.948394 1061.43454,454.782436 1051.28147,454.625228 C1040.6598,454.939645 1035.11474,459.105602 1034.64614,467.123225 C1034.33374,473.725973 1039.95689,477.89193 1051.51577,479.621221 C1061.98124,481.036096 1066.9796,484.416023 1066.51099,489.761105 C1065.88619,496.363853 1061.27833,499.822384 1052.68727,500.1368 C1043.31521,500.1368 1038.00445,495.89224 1036.75484,487.402993 L1032.77174,488.81786 C1034.95855,498.564774 1041.6751,503.280952 1052.92157,502.966535 C1063.69944,502.494911 1069.47879,498.25035 1070.2598,490.232728 C1070.7284,482.68673 1064.87095,478.127758 1052.68727,476.555675 C1042.8466,474.983592 1038.08254,471.839473 1038.39495,467.123225 C1039.17595,461.306518 1043.54951,458.241002 1051.51577,457.926586 C1059.32582,458.083794 1063.85558,461.542325 1065.10519,468.302281 Z M1127.70415,468.302281 L1131.68726,467.123225 C1129.96904,458.948394 1124.03349,454.782436 1113.88043,454.625228 C1103.25875,454.939645 1097.7137,459.105602 1097.2451,467.123225 C1096.9327,473.725973 1102.55585,477.89193 1114.11473,479.621221 C1124.5802,481.036096 1129.57855,484.416023 1129.10995,489.761105 C1128.48515,496.363853 1123.87729,499.822384 1115.28623,500.1368 C1105.91417,500.1368 1100.60341,495.89224 1099.3538,487.402993 L1095.37069,488.81786 C1097.55751,498.564774 1104.27405,503.280952 1115.52053,502.966535 C1126.2984,502.494911 1132.07775,498.25035 1132.85876,490.232728 C1133.32736,482.68673 1127.46991,478.127758 1115.28623,476.555675 C1105.44556,474.983592 1100.6815,471.839473 1100.9939,467.123225 C1101.77491,461.306518 1106.14847,458.241002 1114.11473,457.926586 C1121.92478,458.083794 1126.45454,461.542325 1127.70415,468.302281 Z M1162.86958,457.926586 C1151.15451,459.027044 1144.90656,466.101311 1144.12555,479.149599 C1144.75036,492.355095 1150.92021,499.350759 1162.63528,500.1368 C1174.66276,499.507967 1180.98881,492.512303 1181.61362,479.149599 C1180.98881,465.944102 1174.74086,458.869836 1162.86958,457.926586 Z M1162.86958,502.966535 C1148.49909,502.180494 1141.00155,494.320197 1140.37675,479.38541 C1141.15775,463.664581 1148.81149,455.41127 1163.33818,454.625228 C1177.08388,455.568478 1184.50331,463.743186 1185.59672,479.149599 C1184.97192,494.398803 1177.39628,502.337702 1162.86958,502.966535 Z M1224.04236,502.494913 L1224.04236,499.665178 L1198.03502,499.665178 L1198.03502,455.332662 L1194.52051,455.332662 L1194.52051,502.494913 L1224.04236,502.494913 Z M1266.47111,455.332662 L1266.47111,482.686768 C1266.62731,494.320181 1261.55085,500.1368 1251.24158,500.1368 C1241.24472,500.1368 1236.32446,494.320181 1236.48066,482.686768 L1236.48066,455.332662 L1232.96615,455.332662 L1232.96615,482.686768 C1232.80995,496.363889 1238.9017,503.123744 1251.24158,502.966535 C1263.89387,503.123744 1270.14182,496.363889 1269.98562,482.686768 L1269.98562,455.332662 L1266.47111,455.332662 Z M1315.46027,458.398208 L1298.59064,458.398208 L1298.59064,502.259102 L1295.07613,502.259102 L1295.07613,458.398208 L1278.20651,458.398208 L1278.20651,455.332662 L1315.46027,455.332662 L1315.46027,458.398208 Z M1323.91546,502.259102 L1327.42997,502.259102 L1327.42997,455.332662 L1323.91546,455.332662 L1323.91546,502.259102 Z M1360.0181,457.926586 C1348.30302,459.027044 1342.05507,466.101311 1341.27406,479.149599 C1341.89887,492.355095 1348.06872,499.350759 1359.7838,500.1368 C1371.81128,499.507967 1378.13732,492.512303 1378.76213,479.149599 C1378.13732,465.944102 1371.88938,458.869836 1360.0181,457.926586 Z M1360.0181,502.966535 C1345.6476,502.180494 1338.15006,494.320197 1337.52526,479.38541 C1338.30626,463.664581 1345.96,455.41127 1360.4867,454.625228 C1374.23239,455.568478 1381.65183,463.743186 1382.74523,479.149599 C1382.12043,494.398803 1374.54479,502.337702 1360.0181,502.966535 Z M1396.12073,457.926586 L1423.53388,502.494913 L1429.15709,502.494913 L1429.15709,455.332662 L1425.64258,455.332662 L1425.64258,500.1368 L1425.40828,500.1368 L1397.76084,455.332662 L1392.13763,455.332662 L1392.13763,502.494913 L1395.88643,502.494913 L1395.88643,457.926586 L1396.12073,457.926586 Z M1470.64863,468.302281 L1474.63174,467.123225 C1472.91353,458.948394 1466.97798,454.782436 1456.82491,454.625228 C1446.20324,454.939645 1440.65819,459.105602 1440.18958,467.123225 C1439.87718,473.725973 1445.50033,477.89193 1457.05921,479.621221 C1467.52468,481.036096 1472.52304,484.416023 1472.05444,489.761105 C1471.42963,496.363853 1466.82177,499.822384 1458.23071,500.1368 C1448.85865,500.1368 1443.5479,495.89224 1442.29829,487.402993 L1438.31518,488.81786 C1440.50199,498.564774 1447.21854,503.280952 1458.46501,502.966535 C1469.24289,502.494911 1475.02224,498.25035 1475.80324,490.232728 C1476.27185,482.68673 1470.41439,478.127758 1458.23071,476.555675 C1448.39005,474.983592 1443.62599,471.839473 1443.93839,467.123225 C1444.71939,461.306518 1449.09296,458.241002 1457.05921,457.926586 C1464.86926,458.083794 1469.39903,461.542325 1470.64863,468.302281 Z" id="DIGITAL-BUSINESS-SOL-Copy" fill="#FFFFFF"></path>
            <g id="Group" fill-rule="nonzero" stroke="#FFFFFF">
                <rect id="Rectangle-path" fill="#E44B40" transform="translate(223.383064, 223.434412) rotate(-45.000000) translate(-223.383064, -223.434412) " x="147.360337" y="146.991927" width="152.045455" height="152.884969"></rect>
                <rect id="Rectangle-path" fill="#E22E22" transform="translate(108.702387, 338.748146) rotate(-45.000000) translate(-108.702387, -338.748146) " x="32.6796598" y="262.305661" width="152.045455" height="152.884969"></rect>
                <rect id="Rectangle-path" fill="#FF6A5F" transform="translate(108.699780, 108.123299) rotate(-45.000000) translate(-108.699780, -108.123299) " x="32.6770529" y="31.6808141" width="152.045455" height="152.884969"></rect>
            </g>
        </g>
    </g>
</svg>