<svg width="231" height="78" viewBox="0 0 231 78" fill="none" xmlns="http://www.w3.org/2000/svg">
<g id="Logo">
<g id="Group">
<path id="Level" d="M48 48V32H32V16H16V32H0V48H16V64H32V48H48Z" fill="white"/>
<path id="Up" d="M64 0H48H32V16H48V32H64V16V0Z" fill="white"/>
</g>
<path id="Spec" fill-rule="evenodd" clip-rule="evenodd" d="M99 16V20H111V16C111 7.16345 103.837 0 95 0C86.1635 0 79 7.16345 79 16V19C79 30.3747 85.4692 33.1777 91.0491 35.5954C95.2802 37.4287 99 39.0405 99 44V48C99 50.2092 97.2092 52 95 52C92.7908 52 91 50.2092 91 48V44H79V48C79 56.8365 86.1635 64 95 64C103.837 64 111 56.8365 111 48V44C111 31.3085 103.695 28.1135 97.9148 25.5852C94.1307 23.9301 91 22.5608 91 19V16C91 13.7908 92.7908 12 95 12C97.2092 12 99 13.7908 99 16ZM135 64C133.619 64 132.279 63.825 131 63.4959V78H119V48V16C119 7.16345 126.163 0 135 0C143.837 0 151 7.16345 151 16V48C151 56.8365 143.837 64 135 64ZM139 46V18C139 15.7908 137.209 14 135 14C132.791 14 131 15.7908 131 18V46C131 48.2092 132.791 50 135 50C137.209 50 139 48.2092 139 46ZM179 48C179 50.2091 177.209 52 175 52C172.791 52 171 50.2092 171 48V44V36H179H191V26V16C191 7.16345 183.837 0 175 0C166.163 0 159 7.16345 159 16V48C159 56.8365 166.163 64 175 64C183.837 64 191 56.8365 191 48V44H179V48ZM171 16C171 13.7908 172.791 12 175 12C177.209 12 179 13.7908 179 16V26H171V16ZM211 16C211 13.7908 212.791 12 215 12C217.209 12 219 13.7909 219 16V20H231V16C231 7.16345 223.837 0 215 0C206.163 0 199 7.16345 199 16V48C199 56.8365 206.163 64 215 64C223.837 64 231 56.8365 231 48V44H219V48C219 50.2091 217.209 52 215 52C212.791 52 211 50.2091 211 48V16Z" fill="white"/>
</g>
</svg>
