<svg xmlns="http://www.w3.org/2000/svg" width="241" height="308.781" viewBox="0 0 241 308.781">
  <defs>
    <style>
      .cls-1 {
        fill: #da0303;
        fill-rule: evenodd;
      }
    </style>
  </defs>
  <path class="cls-1" d="M241.079,47.435C163.363,22.79,133.844,7.53,120.514,0,107.185,7.53,77.637,22.79-.08,47.435-0.08,56.192-5,309,120.514,308.772,246,309,241.079,56.192,241.079,47.435ZM120.514,281.218c-27.848.049-47.392-16.971-61.108-41.427a4.15,4.15,0,0,0,.108-0.433,104.234,104.234,0,0,0,13.2,8.1v5.438A4.2,4.2,0,0,0,74,255.917a4.262,4.262,0,0,0,3.032,1.255,4.365,4.365,0,0,0,3.032-1.255,4.287,4.287,0,0,0,1.258-3.023v-1.5a103.751,103.751,0,0,0,13.129,4.312v4.033a4.2,4.2,0,0,0,1.287,3.023,4.261,4.261,0,0,0,3.032,1.255,4.363,4.363,0,0,0,3.032-1.255,4.284,4.284,0,0,0,1.259-3.023v-2.209A105.15,105.15,0,0,0,116.2,258.9v3.69a4.2,4.2,0,0,0,1.287,3.023,4.259,4.259,0,0,0,3.032,1.255,4.36,4.36,0,0,0,3.032-1.255,4.284,4.284,0,0,0,1.259-3.023V258.9a105,105,0,0,0,13.129-1.369v2.207a4.2,4.2,0,0,0,1.287,3.023,4.262,4.262,0,0,0,3.032,1.255,4.364,4.364,0,0,0,3.032-1.255,4.284,4.284,0,0,0,1.259-3.023v-4.031a103.7,103.7,0,0,0,13.129-4.311v1.5a4.2,4.2,0,0,0,1.287,3.023,4.262,4.262,0,0,0,3.032,1.255,4.364,4.364,0,0,0,3.032-1.255,4.289,4.289,0,0,0,1.259-3.023v-5.433a104.529,104.529,0,0,0,13.205-8.089,4.423,4.423,0,0,0,.111.429C167.887,264.252,148.351,281.267,120.514,281.218Zm74.392-72.172q-2.466,3.036-5.174,5.846a4.319,4.319,0,0,0-.969-1.5v-0.029a4.364,4.364,0,0,0-3.032-1.255,4.262,4.262,0,0,0-3.032,1.255v0.029a4.13,4.13,0,0,0-1.287,3v6.227a96.136,96.136,0,0,1-13.129,9.086v-1.051a4.221,4.221,0,0,0-1.259-3v-0.029a4.364,4.364,0,0,0-3.032-1.255,4.262,4.262,0,0,0-3.032,1.255v0.029a4.13,4.13,0,0,0-1.287,3v5.441a95.282,95.282,0,0,1-13.129,4.759v-3.354a4.217,4.217,0,0,0-1.259-3v-0.029a4.364,4.364,0,0,0-3.032-1.255,4.262,4.262,0,0,0-3.032,1.255V234.5a4.13,4.13,0,0,0-1.287,3v5.348a96.251,96.251,0,0,1-13.129,1.483v-3.979a4.219,4.219,0,0,0-1.259-2.995V237.32a4.36,4.36,0,0,0-3.032-1.255,4.259,4.259,0,0,0-3.032,1.255v0.028a4.132,4.132,0,0,0-1.287,2.995v3.978a96.373,96.373,0,0,1-13.129-1.485v-5.345a4.217,4.217,0,0,0-1.259-3v-0.029a4.363,4.363,0,0,0-3.032-1.255,4.261,4.261,0,0,0-3.032,1.255V234.5a4.13,4.13,0,0,0-1.287,3v3.351a95.171,95.171,0,0,1-13.129-4.759v-5.438a4.22,4.22,0,0,0-1.258-3v-0.029a4.365,4.365,0,0,0-3.032-1.255A4.262,4.262,0,0,0,74,227.621v0.029a4.13,4.13,0,0,0-1.287,3v1.046a95.923,95.923,0,0,1-13.129-9.1v-6.211a4.219,4.219,0,0,0-1.258-3v-0.029A4.364,4.364,0,0,0,55.3,212.1a4.261,4.261,0,0,0-3.032,1.255v0.029a4.188,4.188,0,0,0-.99,1.493c-1.8-1.867-3.518-3.811-5.173-5.829C25.853,148.59,27.237,71.471,27.237,67.373c60.125-19.054,82.951-30.863,93.277-36.682,10.3,5.819,33.152,17.628,93.249,36.682C213.763,71.471,215.147,148.585,194.906,209.046Zm-79.4-38.416a4.321,4.321,0,0,0-5.864,1.541l-6.007,10.382a4.21,4.21,0,0,0-.429,3.252,4.3,4.3,0,0,0,5.263,3.024,4.225,4.225,0,0,0,2.6-2l6.007-10.354A4.271,4.271,0,0,0,115.509,170.63Zm16.161,1.541a4.321,4.321,0,0,0-5.864-1.541,4.271,4.271,0,0,0-1.573,5.848l6.007,10.354A4.294,4.294,0,0,0,136.1,188.4a4.289,4.289,0,0,0,2-2.6,4.214,4.214,0,0,0-.429-3.252ZM110.1,133.891A31.264,31.264,0,1,0,72.041,164.32c-0.081.058-.157,0.12-0.239,0.178a60.716,60.716,0,0,1-8.8,5.257l0.019-.009-0.057.029,0.038-.02a10.71,10.71,0,1,0,10.088,18.8l-0.028.015,0.143-.086c-0.037.025-.077,0.047-0.115,0.071A85.552,85.552,0,0,0,84.3,181.812c15.862-11.372,25.67-27.387,25.685-45.34C110.057,135.62,110.1,134.761,110.1,133.891Zm-41.16,0a9.9,9.9,0,1,1,9.9,9.87A9.886,9.886,0,0,1,68.942,133.891Zm93.42-31.148A31.22,31.22,0,0,0,131.1,133.891c0,0.87.045,1.729,0.115,2.581,0.015,17.953,9.823,33.968,25.685,45.34a85.565,85.565,0,0,0,11.213,6.745c-0.037-.024-0.077-0.046-0.114-0.071l0.143,0.086-0.029-.015a10.713,10.713,0,1,0,10.089-18.8l0.037,0.019-0.057-.029,0.02,0.01a60.858,60.858,0,0,1-8.8-5.258c-0.081-.058-0.158-0.12-0.239-0.178A31.151,31.151,0,0,0,162.362,102.743Zm0,41.018a9.87,9.87,0,1,1,9.9-9.87A9.887,9.887,0,0,1,162.362,143.761Z"/>
</svg>
