<svg xmlns="http://www.w3.org/2000/svg" width="241" height="308.781" viewBox="0 0 241 308.781">
  <defs>
    <style>
      .cls-1 {
        fill: #da0303;
        fill-rule: evenodd;
      }
    </style>
  </defs>
  <path class="cls-1" d="M27.237,67.38c60.1-19.056,82.951-30.894,93.249-36.714,10.326,5.819,33.152,17.658,93.277,36.714a573.469,573.469,0,0,1-3.29,65.241c-6.121,9.357-18.935,27.471-31.607,40.593-7.608,7.845-14.674,13.665-18.907,13.665-2,0-5.921-2.967-10.355-6.333-7.98-6.076-17.133-13.037-29.118-13.037S99.233,174.526,91.2,180.573c-4.434,3.338-8.324,6.276-10.212,6.276-4.233,0-11.3-5.791-18.879-13.636-12.671-13.122-25.486-31.236-31.579-40.593A573.469,573.469,0,0,1,27.237,67.38h0Zm178.946,95.679c-9.954,57-32.895,118.272-85.7,118.157-52.8.115-75.743-61.161-85.7-118.128a246.361,246.361,0,0,0,17.048,20c10.011,10.355,20.423,18.029,29.147,18.029,6.636,0,12.357-4.308,18.821-9.186,6.236-4.707,13.473-10.156,20.681-10.156s14.273,5.392,20.451,10.07c6.493,4.936,12.243,9.3,19.022,9.3,8.724,0,19.136-7.673,29.176-18.057a237.46,237.46,0,0,0,17.048-20.026h0Zm-85.7,145.714C246,309,241.08,56.169,241.08,47.411,163.363,22.792,133.815,7.5,120.486,0,107.156,7.5,77.637,22.792-.08,47.411-0.08,56.169-5,309,120.486,308.772h0ZM81.184,98.046A31.166,31.166,0,1,0,112.448,129.2,31.2,31.2,0,0,0,81.184,98.046h0Zm-9.9,31.151a9.9,9.9,0,1,1,9.9,9.87,9.886,9.886,0,0,1-9.9-9.87h0Zm88.272-31.151A31.166,31.166,0,1,0,190.823,129.2a31.2,31.2,0,0,0-31.264-31.151h0Zm-9.9,31.151a9.9,9.9,0,1,1,9.9,9.87,9.886,9.886,0,0,1-9.9-9.87h0Zm-42.449,87.12h26.545a23.778,23.778,0,0,1,16.819,6.989,23.507,23.507,0,0,1,6.979,16.745h0a23.8,23.8,0,0,1-23.8,23.735H107.213a23.8,23.8,0,0,1-23.8-23.735h0a23.846,23.846,0,0,1,23.8-23.734h0Zm30.635,15.2V248.61a10.686,10.686,0,0,0,2.632-1.855,9.478,9.478,0,0,0,2.774-6.7h0a9.413,9.413,0,0,0-2.774-6.675,10.709,10.709,0,0,0-2.632-1.854h0Zm-7.494,18V230.581h-6.121v18.941h6.121Zm-19.737-18.941v18.941h6.122V230.581h-6.122Zm-7.494,18.029V231.522a10.053,10.053,0,0,0-2.6,1.854,9.439,9.439,0,0,0-2.8,6.675h0a9.5,9.5,0,0,0,2.8,6.7,10.032,10.032,0,0,0,2.6,1.855h0Z"/>
</svg>
