<svg xmlns="http://www.w3.org/2000/svg" width="252" height="308.906" viewBox="0 0 252 308.906">
  <defs>
    <style>
      .cls-1 {
        fill: #da0303;
        fill-rule: evenodd;
      }
    </style>
  </defs>
  <path class="cls-1" d="M52.389,146.355c2.034,3.482,7.762,2.712,10.855,5.28,3.094,2.6,3.323,8.363,7.1,9.733s7.7-2.883,11.743-2.883c4.01,0,7.934,4.253,11.715,2.883s4.038-7.136,7.1-9.733c3.093-2.568,8.85-1.8,10.855-5.28s-1.518-8.048-.83-12.015c0.716-3.939,5.585-7.05,4.9-10.988s-6.359-5.2-8.364-8.677-0.286-8.99-3.351-11.558c-3.094-2.569-8.221.085-12-1.285S86.1,95.125,82.091,95.125c-4.038,0-6.244,5.337-10.025,6.707s-8.937-1.284-12.03,1.285c-3.065,2.568-1.318,8.076-3.323,11.558-2.034,3.482-7.676,4.738-8.392,8.677-0.687,3.938,4.21,7.049,4.9,10.988C53.907,138.307,50.384,142.873,52.389,146.355Zm29.7-27.855a9.875,9.875,0,1,1-9.91,9.875A9.9,9.9,0,0,1,82.091,118.5Zm57.371,27.855c2.033,3.482,7.762,2.712,10.855,5.28,3.093,2.6,3.323,8.363,7.1,9.733s7.705-2.883,11.744-2.883c4.01,0,7.934,4.253,11.715,2.883s4.038-7.136,7.1-9.733c3.093-2.568,8.85-1.8,10.855-5.28s-1.518-8.048-.83-12.015c0.716-3.939,5.585-7.05,4.9-10.988s-6.359-5.2-8.364-8.677-0.286-8.99-3.351-11.558c-3.094-2.569-8.221.085-12-1.285s-6.015-6.707-10.025-6.707c-4.039,0-6.244,5.337-10.025,6.707s-8.937-1.284-12.03,1.285c-3.065,2.568-1.318,8.076-3.322,11.558-2.034,3.482-7.677,4.738-8.393,8.677-0.687,3.938,4.211,7.049,4.9,10.988C140.98,138.307,137.457,142.873,139.462,146.355Zm29.7-27.855a9.875,9.875,0,1,1-9.91,9.875A9.9,9.9,0,0,1,169.164,118.5Zm-61.095,60.334a9.859,9.859,0,0,0,17.1,9.818,4.247,4.247,0,0,0,.458-1.027,4.3,4.3,0,0,0,.487,1.027,9.846,9.846,0,0,0,17.071-9.818c-2.721-4.709-17.558-15.326-17.558-15.326S110.819,174.125,108.069,178.834ZM252,262V240.253a4.8,4.8,0,0,1-.659.029,21.378,21.378,0,0,1-21.4-21.32V194.708c17.843-68.217,16.441-142.565,16.441-147.245C168.562,22.8,138.975,7.506,125.627,0,112.28,7.506,82.721,22.8,4.9,47.463c0,4.742-1.441,81.014,17.157,149.959v21.54a21.36,21.36,0,0,1-21.4,21.32A5.231,5.231,0,0,1,0,240.253V262H0.66a43.113,43.113,0,0,0,21.375-5.643A21.332,21.332,0,0,1,.66,277.27H0v21.719H0.66a43.11,43.11,0,0,0,43.193-43.038v-2.258C61.712,286.037,87.728,309,125.627,308.921c38.423,0.079,64.637-23.51,82.519-56.549v3.579a43.11,43.11,0,0,0,43.193,43.038H252V277.27h-0.659a21.351,21.351,0,0,1-21.375-20.912A43.1,43.1,0,0,0,251.339,262H252ZM32.253,67.413c60.178-19.065,83.063-30.881,93.374-36.7,10.34,5.822,33.2,17.638,93.4,36.7,0,3.829,1.209,71.389-15.148,129.58-14.3,15.022-30.563,26.067-48.037,32.049V216.765a6.129,6.129,0,0,0-1.776-4.282h-0.028a6.074,6.074,0,0,0-4.3-1.769,6.052,6.052,0,0,0-6.072,6.051v15.581a92.026,92.026,0,0,1-11.887,1.59V220.76a6.13,6.13,0,0,0-1.775-4.281h-0.029a6.074,6.074,0,0,0-4.3-1.769,6.052,6.052,0,0,0-6.073,6.05v13.187a91.952,91.952,0,0,1-11.886-1.569V216.765a6.134,6.134,0,0,0-1.776-4.282h-0.029a6.07,6.07,0,0,0-4.3-1.769,6.052,6.052,0,0,0-6.072,6.051V229.1c-17.516-5.964-33.806-17.015-48.142-32.054C31.043,138.84,32.253,71.243,32.253,67.413ZM125.627,281.38c-33.082.058-54.458-23.933-68.268-55.871A123.7,123.7,0,0,0,95.553,244.2v14.552a6.03,6.03,0,0,0,1.776,4.282v0.028a6.172,6.172,0,0,0,4.3,1.77,6.067,6.067,0,0,0,4.3-1.77l0.029-.028a6.032,6.032,0,0,0,1.776-4.282V246.93a109.574,109.574,0,0,0,11.886,1.3v14.511a6.027,6.027,0,0,0,1.776,4.281v0.029a6.175,6.175,0,0,0,4.3,1.769,6.074,6.074,0,0,0,4.3-1.769l0.029-.029a6.027,6.027,0,0,0,1.775-4.281V248.222a109.388,109.388,0,0,0,11.887-1.318v11.843a6.027,6.027,0,0,0,1.776,4.282v0.028a6.171,6.171,0,0,0,4.3,1.77,6.071,6.071,0,0,0,4.3-1.77l0.028-.028a6.027,6.027,0,0,0,1.776-4.282v-14.6a123.979,123.979,0,0,0,38.09-18.679C180.121,257.426,158.734,281.438,125.627,281.38Z"/>
</svg>
