<svg xmlns="http://www.w3.org/2000/svg" width="241" height="308.781" viewBox="0 0 241 308.781">
  <defs>
    <style>
      .cls-1 {
        fill: #da0303;
        fill-rule: evenodd;
      }
    </style>
  </defs>
  <path class="cls-1" d="M241.052,47.411C163.344,22.792,133.828,7.5,120.5,0,107.172,7.5,77.656,22.792-.052,47.411-0.08,56.169-5,309,120.5,308.772,246,309,241.052,56.169,241.052,47.411ZM120.5,281.216c-27.555.056-46.978-16.609-60.671-40.656a111.257,111.257,0,0,1,29.184-15.941l11.895,34.973,2.56-38.926a90.406,90.406,0,0,1,34.471.1l2.553,38.829,11.847-34.832A111.571,111.571,0,0,1,181.146,240.6C167.455,264.627,148.038,281.272,120.5,281.216Zm67.4-54.025c-20.3-14.353-43.162-22.4-67.426-22.4s-47.113,8.024-67.388,22.356C25.549,165.291,27.233,71.882,27.233,67.38,87.352,48.324,110.175,36.485,120.5,30.666c10.3,5.819,33.148,17.658,93.238,36.714C213.757,71.883,215.448,165.333,187.9,227.191ZM78.343,99.757a31.165,31.165,0,1,0,31.26,31.152A31.22,31.22,0,0,0,78.343,99.757Zm0,41.022a9.871,9.871,0,1,1,9.9-9.87A9.868,9.868,0,0,1,78.343,140.779Zm84.085-41.022a31.165,31.165,0,1,0,31.261,31.152A31.219,31.219,0,0,0,162.428,99.757Zm0,41.022a9.871,9.871,0,1,1,9.9-9.87A9.868,9.868,0,0,1,162.428,140.779Zm-53.2,38.767a11.269,11.269,0,0,0,22.538,0c0-6.19-11.269-20.51-11.269-20.51S109.231,173.356,109.231,179.546Z"/>
</svg>
