<svg xmlns="http://www.w3.org/2000/svg" width="241" height="308.75" viewBox="0 0 241 308.75">
  <defs>
    <style>
      .cls-1 {
        fill: #da0303;
        fill-rule: evenodd;
      }
    </style>
  </defs>
  <path class="cls-1" d="M241.08,47.435C163.363,22.79,133.844,7.5,120.514,0,107.185,7.5,77.637,22.79-.08,47.435-0.08,56.192-5,309,120.514,308.744,246,309,241.08,56.192,241.08,47.435ZM213.625,84.4H194.884a5.886,5.886,0,0,0-4.4-4.45V59.734c7.073,2.406,14.794,4.948,23.284,7.639C213.763,68.461,213.86,74.7,213.625,84.4ZM65.8,250.009a110.151,110.151,0,0,1,19.042-10.121V251.1a5.859,5.859,0,0,0-4.348,4.45H69.968Q67.814,252.885,65.8,250.009ZM53.181,114.21V91.334a5.907,5.907,0,0,0,4.348-4.278H80.44a5.945,5.945,0,0,0,4.405,4.393v11.833a31.3,31.3,0,0,0-30.98,11.129A5.872,5.872,0,0,0,53.181,114.21Zm4.361,107.108a5.835,5.835,0,0,0-4.361-4.422V194.02a5.915,5.915,0,0,0,4.319-4.279H80.469a5.824,5.824,0,0,0,4.376,4.393v22.734a5.846,5.846,0,0,0-4.453,4.45H57.542Zm87.627,0a109.162,109.162,0,0,0-20.45-2.76,5.868,5.868,0,0,0-2.889-1.579v-21.7a11.247,11.247,0,0,0,8.405-5.536h18.912a5.871,5.871,0,0,0,4.348,4.251v22.9a5.851,5.851,0,0,0-4.391,4.422h-3.935ZM78.352,164.926a31.424,31.424,0,0,0,6.493-.679v18.506a5.882,5.882,0,0,0-4.376,4.336H57.529a5.859,5.859,0,0,0-4.348-4.45V159.82a5.845,5.845,0,0,0,3.9-3.218A31.21,31.21,0,0,0,78.352,164.926Zm28.615-43.642h7.8a5.846,5.846,0,0,0,4.405,4.235v22.922a5.84,5.84,0,0,0-4.291,4.419h-11.85A31.057,31.057,0,0,0,106.967,121.284Zm30.777,31.576H126.349a5.806,5.806,0,0,0-4.519-4.485V125.5a5.846,5.846,0,0,0,4.319-4.213h7.656A31.048,31.048,0,0,0,137.744,152.86Zm-50.239,10.7a31.238,31.238,0,0,0,13.209-8.05h14.223a5.838,5.838,0,0,0,4.233,4.217v5.651c-2.988,4.015-9.926,13.862-9.926,18.741a11.181,11.181,0,0,0,.411,2.967H91.882a5.839,5.839,0,0,0-4.376-4.336v-19.19Zm61.585,23.526H131.345a11.181,11.181,0,0,0,.411-2.967c0-4.893-6.96-14.782-9.926-18.775V159.8a5.892,5.892,0,0,0,4.491-4.284H140.06a31.255,31.255,0,0,0,13.435,8.11v18.988A5.879,5.879,0,0,0,149.09,187.089Zm13.358-43.442a9.87,9.87,0,1,1,9.9-9.87A9.887,9.887,0,0,1,162.448,143.647Zm-27.324-25.016h-8.918a5.881,5.881,0,0,0-4.376-4.468V91.222a5.849,5.849,0,0,0,4.233-4.167h23.112a5.847,5.847,0,0,0,4.32,4.364v12.486A31.327,31.327,0,0,0,135.124,118.631ZM153.5,80.067a5.854,5.854,0,0,0-4.32,4.336H126.149a5.877,5.877,0,0,0-4.319-4.479V57.088a5.891,5.891,0,0,0,4.405-4.262h22.94a5.928,5.928,0,0,0,4.32,4.25v22.99Zm-34.325-.2a5.884,5.884,0,0,0-4.52,4.534H91.882a5.873,5.873,0,0,0-4.376-4.364V57.1a5.863,5.863,0,0,0,4.348-4.279h23a5.84,5.84,0,0,0,4.319,4.24v22.8ZM91.882,87.055h22.826a5.85,5.85,0,0,0,4.462,4.222V114.14a5.883,5.883,0,0,0-4.462,4.491h-9.06a31.322,31.322,0,0,0-18.143-14.665V91.448A5.866,5.866,0,0,0,91.882,87.055Zm-3.633,46.722a9.9,9.9,0,1,1-9.9-9.869A9.887,9.887,0,0,1,88.249,133.777ZM87.505,216.9V194.134a5.86,5.86,0,0,0,4.405-4.393h18.856a11.264,11.264,0,0,0,8.4,5.533v21.739a5.888,5.888,0,0,0-2.767,1.54,109.144,109.144,0,0,0-20.645,2.765H91.816A5.843,5.843,0,0,0,87.505,216.9Zm0,21.95a93.217,93.217,0,0,1,31.665-6.087v18.3a5.816,5.816,0,0,0-4.434,4.491H92a5.978,5.978,0,0,0-4.491-4.507V238.846Zm73.014-14.876h22.967a5.905,5.905,0,0,0,4.042,4.043q-2.2,4.866-4.645,9.449a124.662,124.662,0,0,0-23.136-11.7A5.8,5.8,0,0,0,160.519,223.97Zm0.023-2.652a5.877,5.877,0,0,0-4.387-4.422v-22.9a5.863,5.863,0,0,0,4.376-4.251H183.5a5.871,5.871,0,0,0,4.319,4.136v22.791a5.9,5.9,0,0,0-4.478,4.65h-22.8ZM187.819,182.5a5.854,5.854,0,0,0-4.433,4.593H160.56a5.8,5.8,0,0,0-4.405-4.478V164.3a31.574,31.574,0,0,0,6.293.631,31.167,31.167,0,0,0,21.389-8.462,5.9,5.9,0,0,0,3.982,3.213V182.5Zm-25.371-79.9a31.427,31.427,0,0,0-6.293.632V91.448a5.888,5.888,0,0,0,4.462-4.393h22.826a5.811,5.811,0,0,0,4.376,4.278V114.41a5.7,5.7,0,0,0-.727.232A31.2,31.2,0,0,0,162.448,102.6Zm20.966-18.2h-22.8a5.854,5.854,0,0,0-4.462-4.364V57.076a5.9,5.9,0,0,0,4.405-4.25h10.348c5.143,1.89,10.763,3.89,16.911,6V79.953A5.806,5.806,0,0,0,183.414,84.4Zm-22.8-34.229a5.714,5.714,0,0,0-.508-1.423c1.2,0.467,2.433.941,3.7,1.423h-3.194Zm-11.5,0H126.264a5.842,5.842,0,0,0-4.434-4.46V31.428a275.485,275.485,0,0,0,31.058,14.458A5.882,5.882,0,0,0,149.118,50.173Zm-29.948-4.44a5.882,5.882,0,0,0-4.377,4.44H91.882a5.892,5.892,0,0,0-3.8-4.269A277.416,277.416,0,0,0,119.17,31.442V45.734ZM70.105,52.826H80.44a5.926,5.926,0,0,0,4.405,4.307v22.9A5.789,5.789,0,0,0,80.469,84.4H57.557a5.853,5.853,0,0,0-4.376-4.45V58.83C59.335,56.718,64.959,54.718,70.105,52.826Zm7.1-2.653c1.282-.488,2.523-0.966,3.738-1.437a5.8,5.8,0,0,0-.529,1.437H77.2ZM50.521,114.3a5.88,5.88,0,0,0-4.233,4.336H29.2c-1.006-12.175-1.51-23.02-1.757-31.576h18.7a5.847,5.847,0,0,0,4.376,4.307V114.3Zm-4.233,6.989a5.84,5.84,0,0,0,2.177,3.331,31.1,31.1,0,0,0,2.057,23.349v0.475a5.882,5.882,0,0,0-4.462,4.421H33.142c-1.655-11-2.851-21.692-3.714-31.576H46.287Zm-0.229,34.229a5.9,5.9,0,0,0,4.462,4.364v22.734a5.867,5.867,0,0,0-4.462,4.478H39.8c-2.57-10.5-4.617-21.157-6.247-31.576H46.058Zm0.029,34.228a5.919,5.919,0,0,0,4.434,4.308V216.9a5.884,5.884,0,0,0-1.422.551,254.3,254.3,0,0,1-8.64-27.706h5.629Zm7.46,38.419a5.8,5.8,0,0,0,3.972-4.19H80.43a5.765,5.765,0,0,0,.778,1.783,124.793,124.793,0,0,0-23.1,11.669Q55.7,232.937,53.547,228.16Zm33.958,34.318a5.883,5.883,0,0,0,4.434-4.279h22.854a5.848,5.848,0,0,0,4.377,4.231V281.2a59.2,59.2,0,0,1-31.665-9.562v-9.158Zm34.325-.068a5.891,5.891,0,0,0,4.319-4.211h23.026a5.811,5.811,0,0,0,4.32,4.336v9.114A59.179,59.179,0,0,1,121.83,281.2V262.41Zm27.317-6.863H126.206a5.835,5.835,0,0,0-4.376-4.469V232.759a93.364,93.364,0,0,1,31.665,6.1v12.324A5.883,5.883,0,0,0,149.147,255.547Zm7.008-15.647a110.2,110.2,0,0,1,19.036,10.135q-2,2.857-4.146,5.512H160.588a5.811,5.811,0,0,0-4.433-4.393V239.9Zm35.808-22.6a5.852,5.852,0,0,0-1.484-.6v-22.82a5.871,5.871,0,0,0,4.319-4.136h5.748A254.609,254.609,0,0,1,191.963,217.3Zm2.95-30.213a5.815,5.815,0,0,0-4.434-4.593V159.677a5.9,5.9,0,0,0,4.348-4.164h12.626c-1.63,10.419-3.676,21.08-6.245,31.576h-6.295Zm0-34.229a5.9,5.9,0,0,0-4.434-4.564V147.52A31.065,31.065,0,0,0,192.416,125,5.941,5.941,0,0,0,195,121.284h16.574c-0.863,9.884-2.058,20.572-3.713,31.576H194.913Zm0-34.229a5.806,5.806,0,0,0-4.434-4.25V91.334a5.818,5.818,0,0,0,4.348-4.278h18.727c-0.247,8.556-.75,19.4-1.756,31.576H194.913ZM27.237,67.373c8.49-2.69,16.211-5.231,23.284-7.636V79.924A5.916,5.916,0,0,0,46.087,84.4H27.375C27.14,74.7,27.237,68.461,27.237,67.373ZM72.2,258.2h8.352a5.888,5.888,0,0,0,4.291,4.25v7.374A75.19,75.19,0,0,1,72.2,258.2Zm83.952,11.637v-7.273a5.858,5.858,0,0,0,4.433-4.364h8.223A75.222,75.222,0,0,1,156.155,269.836Z"/>
</svg>
