<?xml version="1.0" encoding="utf-8"?>
<!-- Generator: Adobe Illustrator 19.0.0, SVG Export Plug-In . SVG Version: 6.00 Build 0)  -->
<svg version="1.1" id="Layer_1" xmlns="http://www.w3.org/2000/svg" xmlns:xlink="http://www.w3.org/1999/xlink" x="0px" y="0px"
	 viewBox="-283.4 406.5 43.2 39.7" style="enable-background:new -283.4 406.5 43.2 39.7;" xml:space="preserve">
<style type="text/css">
	.st0{fill:#3CEA24;}
</style>
<g>
	<path class="st0" d="M-261.8,446.2c-0.2,0-0.4,0-0.6-0.1c-10.7-4.8-21.7-19.1-20.9-27.3c0.6-7.5,5.4-12,12.8-12.3
		c3.2-0.1,6.4,1.1,8.7,3.3c2.3-2.2,5.5-3.4,8.7-3.3c7.4,0.2,12.2,4.8,12.8,12.3c0.7,8.2-10.3,22.5-20.9,27.3
		C-261.4,446.2-261.6,446.2-261.8,446.2z M-270.2,409.5c-0.1,0-0.2,0-0.3,0c-2.7,0.1-9.2,1.2-9.9,9.5c-0.5,6.2,8.6,19.2,18.6,24
		c9.9-4.8,19.1-17.8,18.6-24c-0.7-8.4-7.2-9.5-9.9-9.5c-2.9-0.1-5.7,1.2-7.5,3.4c-0.6,0.7-1.8,0.7-2.3,0
		C-264.8,410.7-267.4,409.5-270.2,409.5z"/>
</g>
</svg>
