<?xml version="1.0" encoding="UTF-8"?>
<svg width="362px" height="111px" viewBox="0 0 362 111" version="1.1" xmlns="http://www.w3.org/2000/svg" xmlns:xlink="http://www.w3.org/1999/xlink">
    <!-- Generator: Sketch 52.4 (67378) - http://www.bohemiancoding.com/sketch -->
    <title>changelog</title>
    <desc>Created with Sketch.</desc>
    <defs>
        <linearGradient x1="-0.00278058263%" y1="49.9960175%" x2="100.00321%" y2="49.9960175%" id="linearGradient-1">
            <stop stop-color="#61C192" stop-opacity="0" offset="0%"></stop>
            <stop stop-color="#61C192" offset="100%"></stop>
        </linearGradient>
        <linearGradient x1="2.00844201%" y1="50.0130343%" x2="100.056929%" y2="50.0130343%" id="linearGradient-2">
            <stop stop-color="#61C192" offset="0%"></stop>
            <stop stop-color="#61C192" stop-opacity="0" offset="100%"></stop>
        </linearGradient>
    </defs>
    <g id="Page-1" stroke="none" stroke-width="1" fill="none" fill-rule="evenodd">
        <g id="changelog">
            <polygon id="Path" fill="#FFFFFF" points="251.79 44.91 238.56 44.91 238.56 51.66 250.33 51.66 250.33 59 238.56 59 238.56 66.18 252.28 66.18 252.28 73.58 230.62 73.58 230.62 37.58 251.79 37.58"></polygon>
            <path d="M64.51,49.01 C61.32,45.39 58.89,44.1 55.44,44.1 C49.0887254,44.1138071 43.9511929,49.2737254 43.965,55.625 C43.9788071,61.9762746 49.1387254,67.1138071 55.49,67.1 C58.95,67.1 61.43,65.75 64.67,62.1 L70.34,67.39 C65.64,72.39 61.27,74.52 55.6,74.52 C48.7350393,74.6778152 42.3229254,71.1056443 38.844078,65.1853223 C35.3652307,59.2650003 35.3652307,51.9249997 38.844078,46.0046777 C42.3229254,40.0843557 48.7350393,36.5121848 55.6,36.67 C61.22,36.67 65.54,38.72 70.18,43.67 L64.51,49.01 Z" id="Path" fill="#FFFFFF"></path>
            <polygon id="Path" fill="#FFFFFF" points="83.51 51.66 96.88 51.66 96.88 37.56 104.88 37.56 104.88 73.56 96.88 73.56 96.88 59.06 83.51 59.06 83.51 73.58 75.51 73.58 75.51 37.58 83.51 37.58"></polygon>
            <path d="M120.98,65.64 L118.23,73.58 L109.81,73.58 L123.26,37.58 L132.44,37.58 L145.89,73.58 L137.41,73.58 L134.66,65.64 L120.98,65.64 Z M127.78,46.09 L123.57,58.24 L132.05,58.24 L127.78,46.09 Z" id="Shape" fill="#FFFFFF" fill-rule="nonzero"></path>
            <polygon id="Path" fill="#FFFFFF" points="150.76 37.56 157.46 37.56 174.09 59.43 174.09 37.56 182.09 37.56 182.09 73.56 175.39 73.56 158.75 51.71 158.75 73.58 150.75 73.58"></polygon>
            <path d="M224.42,53.06 L224.42,56.79 C224.504967,60.1925389 223.705585,63.5589024 222.1,66.56 C219.18,71.56 213.84,74.5 207.41,74.5 C196.61,74.5 187.97,66.13 187.97,55.6 C187.998797,50.5019225 190.063473,45.626699 193.70485,42.0585626 C197.346227,38.4904263 202.26239,36.5252204 207.36,36.6 C212.92,36.6 217.03,38.49 222.16,43.3 L216.51,48.63 C213.11,45.28 210.79,44.09 207.33,44.09 C200.978725,44.1038071 195.841193,49.2637254 195.855,55.615 C195.868807,61.9662746 201.028725,67.1038071 207.38,67.09 C211.92,67.09 214.99,64.71 216.13,60.39 L206.51,60.39 L206.51,53.06 L224.42,53.06 Z" id="Path" fill="#FFFFFF"></path>
            <polygon id="Path" fill="#FFFFFF" points="266.97 37.56 266.97 66.18 280.66 66.18 280.66 73.58 258.98 73.58 258.98 37.58"></polygon>
            <path d="M320.8,55.6 C320.491072,66.0403425 311.892913,74.3185169 301.448364,74.2314563 C291.003814,74.1443957 282.544846,65.7240416 282.41,55.28 C282.41,45.28 291.27,36.65 301.58,36.65 C312.108137,36.605477 320.695582,45.072287 320.8,55.6 Z M290.45,55.76 C290.723937,61.8638234 295.855257,66.6125877 301.961987,66.4137349 C308.068718,66.2148821 312.880227,61.1423505 312.756489,55.0336362 C312.632751,48.9249219 307.619774,44.0513952 301.51,44.1 C295.31,44.1 290.45,49.23 290.45,55.76 Z" id="Shape" fill="#FFFFFF" fill-rule="nonzero"></path>
            <path d="M361.51,53.06 L361.51,56.79 C361.594967,60.1925389 360.795585,63.5589024 359.19,66.56 C356.27,71.56 350.93,74.5 344.5,74.5 C333.7,74.5 325.06,66.13 325.06,55.6 C325.088797,50.5019225 327.153473,45.626699 330.79485,42.0585626 C334.436227,38.4904263 339.35239,36.5252204 344.45,36.6 C350.01,36.6 354.12,38.49 359.25,43.3 L353.58,48.59 C350.18,45.24 347.86,44.05 344.4,44.05 C338.048725,44.0638073 332.911193,49.2237255 332.925,55.575 C332.938807,61.9262745 338.098725,67.063807 344.45,67.05 C348.99,67.05 352.06,64.67 353.2,60.35 L343.59,60.35 L343.59,53.06 L361.51,53.06 Z" id="Path" fill="#FFFFFF"></path>
            <path d="M55.51,111 L54.37,111 C39.2619603,110.759409 24.9158977,104.323928 14.69,93.2 C-4.89314036,71.8928341 -4.89314036,39.1371659 14.69,17.83 C24.9397339,6.74482415 39.2631506,0.313695061 54.3579023,0.0193474042 C69.4526539,-0.275000253 84.0159006,5.5928389 94.69,16.27 C95.2726604,16.8719904 95.2569904,17.8323396 94.655,18.415 C94.0530096,18.9976604 93.0926604,18.9819904 92.51,18.38 C82.413843,8.2810678 68.6394871,2.73054868 54.3620963,3.0079078 C40.0847054,3.28526692 26.5363146,9.3665702 16.84,19.85 C-1.68694727,40.0060659 -1.68694727,70.9939341 16.84,91.15 C26.5363146,101.63343 40.0847054,107.714733 54.3620963,107.992092 C68.6394871,108.269451 82.413843,102.718932 92.51,92.62 C93.1010195,92.0692823 94.0220194,92.0855322 94.5932436,92.6567564 C95.1644678,93.2279806 95.1807177,94.1489805 94.63,94.74 C84.2842838,105.166173 70.1980391,111.021039 55.51,111 Z" id="Path" fill="url(#linearGradient-1)"></path>
            <path d="M55.41,93 L54.13,93 C33.4193219,93 16.63,76.2106781 16.63,55.5 C16.63,34.7893219 33.4193219,18 54.13,18 C64.5219747,17.6649679 74.5890015,21.6468915 81.94,29 C82.4907177,29.5910195 82.4744678,30.5120194 81.9032436,31.0832436 C81.3320194,31.6544678 80.4110195,31.6707177 79.82,31.12 C73.0523517,24.3677665 63.7950636,20.7126214 54.24,21.02 C35.1861761,21.02 19.74,36.4661761 19.74,55.52 C19.74,74.5738239 35.1861761,90.02 54.24,90.02 C63.8014528,90.3248976 73.0633245,86.6621332 79.83,79.9 C80.4210195,79.3492823 81.3420194,79.3655322 81.9132436,79.9367564 C82.4844678,80.5079806 82.5007177,81.4289805 81.95,82.02 C74.9023767,89.0440826 65.3602092,92.9918218 55.41,93 Z" id="Path" fill="url(#linearGradient-2)"></path>
        </g>
    </g>
</svg>