<?xml version="1.0" encoding="UTF-8"?>
<svg width="256px" height="255px" viewBox="0 0 256 255" version="1.1" xmlns="http://www.w3.org/2000/svg" xmlns:xlink="http://www.w3.org/1999/xlink">
    <!-- Generator: Sketch 52.6 (67491) - http://www.bohemiancoding.com/sketch -->
    <title>g10</title>
    <desc>Created with Sketch.</desc>
    <g id="Page-1" stroke="none" stroke-width="1" fill="none" fill-rule="evenodd">
        <g id="moscow-js-logo" transform="translate(0.000000, -1.000000)" fill-rule="nonzero">
            <g id="g10" transform="translate(128.000000, 128.108602) scale(-1, 1) rotate(-180.000000) translate(-128.000000, -128.108602) translate(0.000000, 0.608602)">
                <polygon id="path12" fill="#F7DF1F" points="255.213489 0.391424822 0.393219185 0.391424822 0.393219185 254.042794 255.213489 254.042794"></polygon>
                <path d="M113.590832,134.365068 L113.590832,58.6000301 C113.590832,56.0149782 113.453984,53.5911984 113.185007,51.3302566 C112.912884,49.067749 112.346617,47.1027337 111.481486,45.4336451 C110.61321,43.7629907 109.425621,42.4712476 107.910856,41.5568501 C106.394519,40.6408868 104.393707,40.1836881 101.905277,40.1836881 C98.1175786,40.1836881 94.6570564,40.8820122 91.5205649,42.2833577 L86.3266357,23.221927 C89.3561656,21.9286182 92.8434282,20.9343674 96.7931424,20.2329118 C100.742857,19.5330219 104.447188,19.1822941 107.910856,19.1822941 C113.318709,19.1822941 117.916484,20.1514928 121.705756,22.0898904 C125.490309,24.0282879 128.548152,26.5569728 130.874567,29.683774 C133.200982,32.8058779 134.904502,36.306893 135.986702,40.1836881 C137.067329,44.0604831 137.611575,47.9905136 137.611575,51.9753453 L137.611575,134.365068 L113.590832,134.365068 Z M212.913482,52.2992988 C212.913482,47.990357 211.046373,44.8134519 207.313728,42.7685834 C203.581082,40.7205834 198.144917,39.6981492 191.003657,39.6981492 C187.974127,39.6981492 184.971338,39.9126569 181.996862,40.3448037 C179.01924,40.773819 176.236665,41.3390544 173.638128,42.04051 C171.042736,42.7403999 168.689581,43.4669076 166.580235,44.2215986 C164.469317,44.974724 162.817704,45.6761796 161.628543,46.3228341 L153.677207,26.1293667 C155.191972,25.3746756 157.219523,24.5949325 159.763007,23.7870059 C162.303345,22.9790793 165.252653,22.2243882 168.607787,21.5244983 C171.961347,20.8246084 175.612198,20.2327552 179.563486,19.747373 C183.511627,19.2635565 187.703577,19.0208653 192.140911,19.0208653 C198.737924,19.0208653 204.798557,19.722321 210.31809,21.120535 C215.834477,22.518749 220.565955,24.6998377 224.517242,27.6638009 C228.465383,30.6246326 231.521653,34.3667732 233.686053,38.8917884 C235.848879,43.413672 236.932652,48.7982835 236.932652,55.0456228 C236.932652,61.2898306 235.524848,66.406699 232.712387,70.3930965 C229.898354,74.3763624 226.409518,77.687922 222.245881,80.3277751 C218.079098,82.9644968 213.563116,85.117402 208.693218,86.789622 C203.824892,88.4587107 199.307338,90.1262336 195.142127,91.7984538 C190.976917,93.4659766 187.486508,95.2963375 184.675621,97.2895361 C181.860014,99.2811691 180.455357,101.946074 180.455357,105.285817 C180.455357,108.623995 181.941808,111.235664 184.917857,113.120826 C187.892333,115.004423 192.084284,115.948569 197.495282,115.948569 C200.523239,115.948569 203.500861,115.759114 206.421857,115.383334 C209.342852,115.004423 212.101832,114.520606 214.698796,113.928753 C217.295761,113.335334 219.592289,112.63701 221.596246,111.829083 C223.597057,111.021157 225.247097,110.238282 226.546366,109.486722 L234.173672,129.518918 C230.060369,131.779859 224.786219,133.528801 218.349647,134.768875 C211.911503,136.005816 205.124161,136.625853 197.982901,136.625853 C191.815307,136.625853 186.160499,135.924398 181.023197,134.526184 C175.882748,133.126404 171.502042,131.053352 167.877931,128.307028 C164.250675,125.560704 161.438214,122.059688 159.438976,117.805548 C157.435019,113.551407 156.436187,108.623995 156.436187,103.024875 C156.436187,96.4549919 157.840844,91.1236158 160.654878,87.0323132 C163.467338,82.937879 166.956174,79.5449006 171.12453,76.8549434 C175.286595,74.160289 179.805722,72.0073838 184.675621,70.3930965 C189.543946,68.7772432 194.059928,67.1613902 198.226711,65.5455369 C202.390348,63.9312496 205.879184,62.1541242 208.693218,60.2157267 C211.505678,58.2757634 212.913482,55.6359103 212.913482,52.2992988 Z" id="Combined-Shape" fill="#000000"></path>
                <polygon id="path32-path" fill="#FBFBFB" points="73.9381239 168.790725 52.7502902 180.248878 31.2573015 169.371618 35.6584566 192.969024 18.6232497 209.955837 42.5291662 213.082639 53.4943026 234.458247 63.8695772 212.792975 87.6811158 209.016388 70.1866032 192.4993"></polygon>
            </g>
        </g>
    </g>
</svg>