<svg id="Layer_1" data-name="Layer 1" xmlns="http://www.w3.org/2000/svg" viewBox="0 0 1041.03 1041.03"><defs><style>.cls-1{fill:#f16622;}.cls-2{fill:#fff;}.cls-3{fill:#1e459b;}</style></defs><title>Hot_Dog_NY_big</title><path class="cls-1" d="M443.05,866.65c-28.2,20.91-55.78,36.26-80.87,45.12h0c-30.65,10.83-55.06,11.13-69.81,2.63-31.4-18.11-44.45-88-26.64-181.77q3.16-16.62,7.26-33c28.4,6.28,59,11.25,91.21,15.06a156.89,156.89,0,0,1-1.73-22.93V671.62c-27.49-3.43-53.65-7.75-78-13,8.79-28.38,19.62-57.88,32.27-87.87q13.5,26.07,28.21,51.5c5.61,9.69,11.65,19.11,17.52,28.65V566.09c-8-15-15.81-30.08-23.18-45.39,7.37-15.35,15.16-30.5,23.18-45.53v-85c-5.93,9.67-12,19.24-17.69,29.06q-14.64,25.41-28.09,51.48c-12.39-29.37-23-58.25-31.63-86.13,24.51-5.49,50.48-10.05,77.41-13.75V349.33A157.24,157.24,0,0,1,364,327.76c-31.48,4.1-61.86,9.35-90.41,15.82q-3.79-15.24-6.84-30.67h0c-18.7-95.6-6.28-167.72,25-185.81,28.39-16.44,86.12,1.24,150.61,49.47A81.77,81.77,0,0,1,465,140.42C388.91,84.27,316.55,63.6,270.41,90.31c-51.88,30-67.24,119.2-45.4,230.78q3.26,16.57,7.35,33c-12.75,3.62-25.06,7.48-36.84,11.59C90.15,402.37,22.85,460,22.85,519.68c0,61.69,72.24,123.56,182,161.07q13.35,4.54,26.92,8.41-4.41,17.65-7.82,35.54c-20.82,109.64-4.56,196.69,47.18,226.54,46.3,26.7,119.84,6.41,195.47-49.14A82,82,0,0,1,443.05,866.65ZM243.18,648.21q-12.39-3.56-24.57-7.69c-48.54-16.59-88.62-38.15-116.09-61.67-24.69-21.15-37.15-42.14-37.15-59.17,0-36.24,54-82.47,144.15-113.89q17-5.9,34.26-10.78a1021.09,1021.09,0,0,0,48.51,125.7A1035.66,1035.66,0,0,0,243.18,648.21Z"/><path class="cls-1" d="M841.21,364.77h0q-15.88-5.44-32-10.09,2.67-10.87,5-21.85c24.25-117.74,8.4-212.59-45.76-243.81C722.57,62.6,651.1,83.82,576,140.39a81.71,81.71,0,0,1,22.67,36.2c63.7-48.7,120.72-66.72,148.43-50.75,33.32,19.23,46.29,96.74,25.35,198.4Q770.41,334.17,768,344c-28.73-6.63-59.26-12-90.94-16.18a157.77,157.77,0,0,1,1.5,21.49v21.59c27.14,3.77,53.3,8.46,78,14.1a908.12,908.12,0,0,1-31.86,85.71q-13.79-26.19-28.63-51.8c-5.63-9.72-11.64-19.22-17.51-28.8v84.64c8.13,15,16.05,30.06,23.62,45.33-7.53,15.5-15.46,30.81-23.62,46v85.12c5.93-9.76,12-19.43,17.68-29.32q15-26,28.87-52.73a901.26,901.26,0,0,1,33.42,87.56c-25,5.71-51.88,10.39-80,14.12v20.86a157.39,157.39,0,0,1-1.62,22.22,935.3,935.3,0,0,0,93.25-16.25q3,12.29,5.39,24.08c10,50.31,11.38,95.8,4.79,131.36-5.93,32-17.85,53.26-32.59,61.79-28.21,16.33-85.33-1.22-149.15-50.18a81.74,81.74,0,0,1-22.79,36.09c75.2,56.82,147,77.67,193.24,50.89,53.39-30.91,70.74-124.43,48.21-238.21q-2.58-13-6-26.61,9.45-2.79,18.51-5.78c114.11-37.8,188.35-98.92,188.35-161.43C1018.18,459.74,948.71,401.77,841.21,364.77Zm-24.75,276h0c-5.44,1.8-11,3.55-16.72,5.23-12.6-39.88-29.6-82.28-50.4-126.09,19.85-42.77,36.2-84.63,48.44-124.26,10.18,3,20.07,6.06,29.59,9.34,92.11,31.71,148.29,78.59,148.29,114.71C975.66,558.16,915,608.11,816.46,640.75Z"/><path class="cls-1" d="M520.51,149.32a51,51,0,0,0-50.83,50.83V840.89a50.83,50.83,0,0,0,101.66,0V200.15A51,51,0,0,0,520.51,149.32Z"/><path class="cls-2" d="M458.08,238.73c-38.56,21.91-64.76,63.31-64.76,110.6V691.71c0,47.28,26.2,88.68,64.76,110.6Z"/><path class="cls-2" d="M583,238.73V802.31C621.5,780.39,647.7,739,647.7,691.71V349.33C647.7,302,621.5,260.64,583,238.73Z"/><path class="cls-1" d="M520.51,149.32a51,51,0,0,0-50.83,50.83V840.89a50.83,50.83,0,0,0,101.66,0V200.15A51,51,0,0,0,520.51,149.32Z"/><path class="cls-3" d="M538.28,789.93a7.68,7.68,0,0,1-7.68-7.68c0-7.41-2.69-8.67-15.24-11.3-13.58-2.84-34.1-7.13-34.1-38,0-29.29,20.51-34.32,35.48-38,14.81-3.63,21.36-5.78,21.36-18.85,0-15.09-8.46-18.47-23.42-23.15-12.36-3.86-29.28-9.15-29.28-29.55s17-26.08,29.42-30.14c14.47-4.73,22.66-8.08,22.66-21.93,0-12.24-6-14.17-19.45-17.37-13-3.09-32.63-7.75-32.63-34.71,0-27.62,20.54-33.73,34.13-37.77,13.29-4,18-6.08,18-14.3,0-7.95-2.87-9.41-15.12-12.21s-30.73-7-30.73-33.64,20.2-33.91,34.94-39.25c13.59-4.93,17.82-7.43,17.82-13.51,0-5.45-3.47-7.27-16.3-11.15-14.84-4.48-37.26-11.25-37.26-42.41,0-40.65,36.2-59.44,55.35-63.69a7.68,7.68,0,0,1,3.35,15c-1.87.43-43.33,10.35-43.33,48.69,0,18.79,10,22.77,26.34,27.7,12.13,3.66,27.22,8.22,27.22,25.86,0,17.83-15.49,23.44-28,28-15.38,5.58-24.81,9.76-24.81,24.8,0,13.79,5.76,15.69,18.78,18.66,10.78,2.45,27.07,6.17,27.07,27.19,0,20.42-16.73,25.39-28.94,29-14.77,4.4-23.13,7.64-23.13,23,0,14.18,6.75,16.41,20.8,19.75,12.45,3,31.27,7.43,31.27,32.33,0,25.67-19.22,32-33.26,36.54-13.65,4.47-18.81,7-18.81,15.53,0,8.35,4.79,10.6,18.48,14.88,14.44,4.51,34.22,10.69,34.22,37.82,0,25.68-19.12,30.36-33.08,33.78-15.62,3.83-23.76,6.6-23.76,23.06,0,18.42,8.7,20.24,21.87,23,10.93,2.29,27.46,5.75,27.46,26.35A7.68,7.68,0,0,1,538.28,789.93Z"/></svg>