<svg id="Layer_1" data-name="Layer 1" xmlns="http://www.w3.org/2000/svg" xmlns:xlink="http://www.w3.org/1999/xlink" viewBox="0 0 232.25 145.17"><defs><style>.cls-1{fill:url(#linear-gradient);}</style><linearGradient id="linear-gradient" x1="-127.92" y1="700.59" x2="-156.56" y2="749.93" gradientTransform="matrix(2.83, 0, 0, -2.83, 625.61, 2348.24)" gradientUnits="userSpaceOnUse"><stop offset="0" stop-color="#00e63d"/><stop offset="1" stop-color="#aeff00"/></linearGradient></defs><title>Asset 1</title><g id="Layer_1-2" data-name="Layer_1"><path class="cls-1" d="M253.34,222.52c-1.34-1.75-2.7-3.37-4.07-4.84-1.36,1.47-2.73,3.09-4.07,4.84C247.91,222.4,250.63,222.4,253.34,222.52Zm-50.81,83.36v8h-4.35V292.85h6.62c4,0,8.27,1.27,8.27,6.14a6.17,6.17,0,0,1-4.46,6,3.88,3.88,0,0,1,1.45,1.34l4.91,7.58H211a1.71,1.71,0,0,1-1.6-.84l-4-6.46a1.43,1.43,0,0,0-1.42-.73h-1.48Zm-46.69,44.06h-3.69a1.62,1.62,0,0,1-1.58-1L149,344.5h-9.16l-1.55,4.39a1.66,1.66,0,0,1-1.55,1H133l9-23h4.87l9,23ZM141,341.21h6.85c-1.14-3.23-2.52-6.64-3.44-9.94C143.57,334.55,142.14,338,141,341.21ZM173.44,340c.19.37.38.75.55,1.14s.34.79.5,1.2q.24-.63.51-1.24t.57-1.16L182,327.68A1.17,1.17,0,0,1,183,327l.54,0h3.61v23H183V335.82c0-.29,0-.6,0-.94s0-.69.07-1l-6.56,12.48a1.77,1.77,0,0,1-1.66,1h-.67a1.78,1.78,0,0,1-1.66-1L165.9,333.8c0,.36.06.71.08,1.05s0,.67,0,1v14.12h-4.2v-23h3.61l.54,0a1.13,1.13,0,0,1,1,.73L173.44,340Zm34.83-8.61c-.81,1.32-1.74.45-2.74-.08-1.49-.79-4-1.28-5.34,0a2.37,2.37,0,0,0-.37,3.19,6.47,6.47,0,0,0,2.86,1.52c2.57.78,5.51,1.63,6.7,4.29a7.58,7.58,0,0,1-.09,5.39c-2.19,5.48-9.32,5.55-13.72,2.8a8.31,8.31,0,0,1-1.55-1.24l1.39-2.25a1.33,1.33,0,0,1,2-.27A12.77,12.77,0,0,0,199.9,346c2.33.9,5.44.2,5.44-2.71a2.47,2.47,0,0,0-1.63-2.31c-2.34-1.17-5.17-1.14-7.17-3.14a6.63,6.63,0,0,1-1.13-7c1.77-4.2,7.15-5,11-3.58a8.62,8.62,0,0,1,3,1.79l-1.17,2.24Zm25.13-4.41v3.84h-6.72v19.17h-4.77V330.77h-6.72v-3.84Zm21.36,0v3.73H244.9v5.91h7.67v3.6H244.9v6h9.86v3.73H240.11v-23Zm12.15,14.24v8.77h-4.76v-23h7.23c4.5,0,9,1.44,9,6.71a6.74,6.74,0,0,1-4.87,6.56,4.24,4.24,0,0,1,1.58,1.46l5.36,8.28h-4.3a1.87,1.87,0,0,1-1.74-.92L270.08,342a1.56,1.56,0,0,0-1.55-.79H266.9Zm0-3.34h2.44c2.5,0,4.42-1.14,4.42-3.84s-2.07-3.44-4.39-3.44H266.9Zm40.3.6c0,6.93-4.93,11.51-11.78,11.51h-8.85v-23h8.85c6.83,0,11.78,4.58,11.78,11.49Zm-4.88,0a8.49,8.49,0,0,0-1.84-5.69,6.52,6.52,0,0,0-5.06-2.08h-4.06v15.55h4.06a6.49,6.49,0,0,0,5.06-2.07,8.52,8.52,0,0,0,1.84-5.71Zm31.61,11.51h-3.69a1.62,1.62,0,0,1-1.58-1l-1.55-4.39h-9.16l-1.55,4.39a1.66,1.66,0,0,1-1.55,1h-3.73l9-23H325l9,23Zm-14.84-8.73h6.85c-1.14-3.23-2.52-6.64-3.44-9.94-.84,3.29-2.27,6.75-3.41,9.94ZM351.53,340c.19.37.38.75.55,1.14s.34.79.5,1.2q.24-.63.51-1.24t.57-1.16L360,327.68a1.17,1.17,0,0,1,1.06-.73l.54,0h3.61v23h-4.2V335.82c0-.29,0-.6,0-.94s0-.69.07-1l-6.56,12.48a1.77,1.77,0,0,1-1.66,1h-.67a1.78,1.78,0,0,1-1.66-1L344,333.8c0,.36.06.71.08,1.05s0,.67,0,1v14.12h-4.2v-23h3.61l.54,0a1.13,1.13,0,0,1,1,.73L351.53,340Zm-149-37.13h2.24c2.29,0,4-1,4-3.51s-1.9-3.15-4-3.15h-2.26Zm31.84-10v3.41h-9v5.41h7V305h-7v5.53h9v3.41H221V292.85ZM260,313.91h-3.38a1.48,1.48,0,0,1-1.45-1l-1.42-4h-8.39l-1.42,4a1.52,1.52,0,0,1-1.42,1h-3.41l8.23-21.06h4.46Zm-13.59-8h6.27c-1-3-2.31-6.08-3.15-9.1C248.76,299.82,247.44,303,246.4,305.91ZM280.16,309l1.73,1.84c-1.93,2.45-4.65,3.31-7.68,3.31-6.35,0-10.2-4.61-10.2-10.77a10.48,10.48,0,0,1,5-9.37,11.21,11.21,0,0,1,11.26.26,9.29,9.29,0,0,1,1.37,1.13l-1.47,2a1.06,1.06,0,0,1-1.59.23,6.45,6.45,0,0,0-4.13-1.35c-4.12,0-6,3.33-6,7.1s2,7.13,6,7.13a5.73,5.73,0,0,0,4.35-1.47.92.92,0,0,1,1.32,0Zm23-16.14v3.51H297v17.55h-4.37V296.36H286.5v-3.51Zm-55.61-65.18,1.71,1.71,1.71-1.71,1.4,1.4-1.71,1.71,1.71,1.71-1.4,1.4-1.71-1.71-1.71,1.71-1.4-1.4,1.71-1.71-1.71-1.71Zm4.81,15-1.71,1.71,1.71,1.71-1.4,1.4-1.71-1.71-1.71,1.71-1.4-1.4,1.71-1.71-1.71-1.71,1.4-1.4,1.71,1.71,1.71-1.71Zm0-6.79-1.71,1.71,1.71,1.71-1.4,1.4L249.27,239l-1.71,1.71-1.4-1.4,1.71-1.71-1.71-1.71,1.4-1.4,1.71,1.71,1.71-1.71Zm-5.48-20.58c-3-2.89-10.07-8.7-14.16-6.35h0c-4.09,2.36-2.58,11.37-1.59,15.43a74.92,74.92,0,0,1,9.62-1.53,75,75,0,0,1,6.12-7.56Zm13.36,33.33c2.19-.29,4.28-.66,6.23-1.1-.59-1.92-1.31-3.91-2.16-5.95Q262.45,245.16,260.26,248.6Zm-2.49,3.69a75,75,0,0,1-6.12,7.56q1.39,1.33,2.75,2.42c4.69,3.78,8.86,5.39,11.41,3.92h0c4.09-2.36,2.58-11.37,1.59-15.43a75,75,0,0,1-9.62,1.53Zm-8.5,10c-4.24,4.06-12.34,10.26-18.23,6.86h0c-5.88-3.4-4.56-13.51-3.17-19.21-5.63-1.64-15.06-5.56-15.06-12.35s9.43-10.71,15.06-12.35c-1.39-5.7-2.72-15.82,3.16-19.21h0c5.88-3.4,14,2.8,18.22,6.86,4.24-4.06,12.34-10.26,18.23-6.86h0c5.88,3.4,4.56,13.51,3.17,19.21,5.63,1.64,15.06,5.56,15.06,12.35s-9.43,10.71-15.06,12.35c1.39,5.7,2.72,15.82-3.16,19.21h0c-3.88,2.24-9.41.47-15.22-4.21q-1.49-1.2-3-2.65Zm-20.49-15.61a74.91,74.91,0,0,1,3.49-9.09,74.9,74.9,0,0,1-3.49-9.09c-4,1.17-12.57,4.37-12.57,9.09s8.55,7.92,12.57,9.09Zm5.43-13.08q1.88-3.61,4.07-7c-2.19.29-4.27.66-6.23,1.1C232.65,229.54,233.37,231.53,234.22,233.57Zm35.54-5.1a75,75,0,0,1-3.49,9.09,74.9,74.9,0,0,1,3.49,9.09c4-1.17,12.57-4.37,12.57-9.09s-8.55-7.92-12.57-9.09ZM246.9,259.85a74.93,74.93,0,0,1-6.13-7.56,74.86,74.86,0,0,1-9.62-1.53c-1,4.06-2.5,13.08,1.58,15.43h0c4.09,2.36,11.13-3.46,14.16-6.34Zm2.37-2.41c1.36-1.47,2.73-3.09,4.07-4.84-2.71.12-5.42.12-8.13,0C246.55,254.35,247.91,256,249.27,257.44Zm6.64-8.39a88,88,0,0,0,6.63-11.49,87.93,87.93,0,0,0-6.63-11.48,88,88,0,0,0-13.27,0A88,88,0,0,0,236,237.56,87.93,87.93,0,0,0,242.64,249,88.08,88.08,0,0,0,255.91,249Zm8.41-15.47c.85-2,1.57-4,2.16-5.95-2-.44-4-.81-6.23-1.1,1.46,2.29,2.82,4.64,4.07,7Zm3.07-9.21c1-4.06,2.5-13.07-1.58-15.43h0c-4.09-2.36-11.13,3.46-14.16,6.34a75,75,0,0,1,6.13,7.56,74.89,74.89,0,0,1,9.62,1.53Zm-33.17,17.19c-.85,2-1.57,4-2.16,5.95,2,.44,4,.81,6.23,1.1-1.46-2.29-2.82-4.64-4.07-7Z" transform="translate(-133.01 -205.02)"/></g></svg>