<svg xmlns="http://www.w3.org/2000/svg" width="241" height="308.781" viewBox="0 0 241 308.781">
  <defs>
    <style>
      .cls-1 {
        fill: #da0303;
        fill-rule: evenodd;
      }
    </style>
  </defs>
  <path class="cls-1" d="M241.079,47.435C163.363,22.79,133.815,7.53,120.486,0,107.156,7.53,77.637,22.79-.08,47.435-0.08,56.192-5,309,120.486,308.772,246,309,241.079,56.192,241.079,47.435ZM213.224,96.072l-101.4-7.853,65.553-33.048c10.305,3.683,22.314,7.741,36.39,12.2C213.763,68.85,213.943,79.819,213.224,96.072ZM68.321,253.486a117,117,0,0,1-9.669-15.006l34.214,2.647ZM51.51,223.549A243.4,243.4,0,0,1,40.218,188.9l159.627,3.533c-3.871,14.673-8.813,28.872-15.12,41.455ZM27.761,96.068l21.492,1.665-17.89,42.234C29.346,123.532,28.3,108.3,27.761,96.068Zm9.181,78.426q-0.77-3.747-1.46-7.489L64.328,98.9l119,9.221,25.361,38.967c-1.4,10.154-3.177,20.656-5.439,31.108ZM201.351,109.52l11.069,0.858c-0.312,4.563-.693,9.367-1.16,14.359ZM27.237,67.373c60.1-19.054,82.951-30.863,93.249-36.682,6.308,3.555,17.3,9.35,38.593,17.662L84.22,86.082,27.305,81.674C27.15,73.538,27.233,68.355,27.237,67.373Zm93.249,213.845c-16.948.03-30.818-6.266-42.173-16.708l42.157-21.247,56.353,4.36C163.45,267.8,145.252,281.262,120.486,281.218ZM110,132.917l-36.6-21.09-5.024,2.3a29.828,29.828,0,1,0,42.284,27.124c0-.968-0.043-1.9-0.134-2.841ZM80.784,149.665A8.411,8.411,0,0,1,73.7,136.7l14.6,8.412A8.469,8.469,0,0,1,80.784,149.665Zm93.675-35.538-5.024-2.3-36.6,21.09-0.525,5.493c-0.09.942-.134,1.873-0.134,2.841A29.873,29.873,0,1,0,174.459,114.127Zm-12.412,35.538a8.468,8.468,0,0,1-7.513-4.555l14.612-8.419A8.4,8.4,0,0,1,162.047,149.665Z"/>
</svg>
