<svg xmlns="http://www.w3.org/2000/svg" width="241" height="308.781" viewBox="0 0 241 308.781">
  <defs>
    <style>
      .cls-1 {
        fill: #da0303;
        fill-rule: evenodd;
      }
    </style>
  </defs>
  <path class="cls-1" d="M241.052,47.435C163.344,22.79,133.828,7.53,120.5,0,107.172,7.53,77.656,22.79-.052,47.435-0.08,56.192-5,309,120.5,308.772,246,309,241.052,56.192,241.052,47.435ZM120.5,281.218c-97.07.171-93.267-207.056-93.267-213.845C87.352,48.319,110.175,36.51,120.5,30.691c10.3,5.819,33.148,17.628,93.238,36.682C213.767,74.162,217.57,281.389,120.5,281.218Zm26.713-94.044H93.758A26.233,26.233,0,0,0,67.589,213.3V226.11a26.233,26.233,0,0,0,26.17,26.128h53.455a26.234,26.234,0,0,0,26.2-26.128V213.3A26.234,26.234,0,0,0,147.213,187.174Zm8.409,17.771a11.8,11.8,0,0,1,3.489,8.357v5.448H146.069V201.436h1.144A11.892,11.892,0,0,1,155.622,204.945Zm-44.76,13.805H96.132V201.436h14.73V218.75Zm1.916-17.314h14.7V218.75h-14.7V201.436Zm-1.916,19.226v17.314H96.132V220.662h14.73Zm1.916,0h14.7v17.314h-14.7V220.662Zm16.645,0h14.7v17.314h-14.7V220.662Zm0-1.912V201.436h14.7V218.75h-14.7ZM85.378,204.945a11.823,11.823,0,0,1,8.38-3.509h0.458V218.75H81.889V213.3A11.8,11.8,0,0,1,85.378,204.945Zm0,29.522a11.8,11.8,0,0,1-3.489-8.357v-5.448H94.216v17.314H93.758A11.823,11.823,0,0,1,85.378,234.467Zm70.244,0a11.892,11.892,0,0,1-8.409,3.509h-1.144V220.662h13.042v5.448A11.8,11.8,0,0,1,155.622,234.467Zm5.748-164.1H79.63A45.639,45.639,0,0,0,34.04,115.836v13.406A45.638,45.638,0,0,0,79.63,174.709h81.74a45.638,45.638,0,0,0,45.59-45.467V115.836A45.639,45.639,0,0,0,161.37,70.368Zm31.289,58.874a31.352,31.352,0,0,1-31.289,31.205H79.63a31.352,31.352,0,0,1-31.289-31.205V115.836A31.4,31.4,0,0,1,79.63,84.63h81.74a31.4,31.4,0,0,1,31.289,31.206v13.406ZM82.318,91.761A31.162,31.162,0,1,0,113.55,122.91,31.2,31.2,0,0,0,82.318,91.761Zm0,41.047a9.884,9.884,0,1,1,9.9-9.9A9.892,9.892,0,0,1,82.318,132.808ZM158.4,91.761a31.162,31.162,0,1,0,31.232,31.149A31.2,31.2,0,0,0,158.4,91.761Zm0,41.047a9.884,9.884,0,1,1,9.9-9.9A9.892,9.892,0,0,1,158.4,132.808Z"/>
</svg>
