<svg xmlns="http://www.w3.org/2000/svg" width="241" height="308.781" viewBox="0 0 241 308.781">
  <defs>
    <style>
      .cls-1 {
        fill: #da0303;
        fill-rule: evenodd;
      }
    </style>
  </defs>
  <path class="cls-1" d="M241.079,47.411C163.363,22.792,133.815,7.5,120.486,0,107.156,7.5,77.637,22.792-.08,47.411-0.08,56.169-5,309,120.486,308.772,246,309,241.079,56.169,241.079,47.411ZM97.174,276.735V238.853h46.652v37.873A62.9,62.9,0,0,1,97.174,276.735Zm60.954-8.384V238a13.446,13.446,0,0,0-13.443-13.408H96.315A13.484,13.484,0,0,0,82.872,238v30.366C24.5,223.056,27.237,73.113,27.237,67.38c60.1-19.056,82.951-30.894,93.249-36.714,10.326,5.819,33.151,17.658,93.277,36.714C213.763,73.113,216.5,223.026,158.128,268.351ZM106.594,132.9L70.017,111.857l-5,2.257a29.819,29.819,0,1,0,42.234,27.121c0-.955-0.045-1.91-0.133-2.841ZM77.38,149.651a8.405,8.405,0,0,1-7.114-12.962L84.89,145.1A8.47,8.47,0,0,1,77.38,149.651Zm100.476-35.53-5-2.269L136.266,132.9l-0.525,5.5c-0.09.934-.135,1.89-0.135,2.841A29.874,29.874,0,1,0,177.856,114.121Zm-12.376,35.53a8.471,8.471,0,0,1-7.511-4.551l14.62-8.409a8.361,8.361,0,0,1,1.347,4.544A8.446,8.446,0,0,1,165.48,149.651ZM69.027,183.626c-10.3,0-18.674,9.367-18.674,20.881h5.711c0-8.368,5.815-15.175,12.962-15.175s12.962,6.807,12.962,15.175c0,5.883-4.044,10.669-9.015,10.669-4.955,0-8.986-4.786-8.986-10.669,0-3.4,2.261-6.161,5.039-6.161,2.794,0,5.067,2.763,5.067,6.161a1.5,1.5,0,0,1-1.12,1.655,1.516,1.516,0,0,1-1.092-1.655H66.172a6.837,6.837,0,1,0,13.634,0c0-6.543-4.835-11.867-10.779-11.867-5.928,0-10.75,5.324-10.75,11.867,0,9.029,6.593,16.375,14.7,16.375,8.12,0,14.726-7.346,14.726-16.375C87.7,192.993,79.324,183.626,69.027,183.626Zm104.119,0c-10.3,0-18.674,9.367-18.674,20.881,0,9.029,6.606,16.375,14.726,16.375s14.726-7.346,14.726-16.375c0-6.543-4.835-11.867-10.778-11.867-5.928,0-10.751,5.324-10.751,11.867a6.824,6.824,0,1,0,13.606,0H170.29a1.187,1.187,0,1,1-2.183,0c0-3.4,2.26-6.161,5.039-6.161,2.794,0,5.067,2.763,5.067,6.161,0,5.883-4.044,10.669-9.015,10.669s-9.015-4.786-9.015-10.669c0-8.368,5.815-15.175,12.963-15.175s12.962,6.807,12.962,15.175h5.711C191.819,192.993,183.442,183.626,173.146,183.626Z"/>
</svg>
