<svg xmlns="http://www.w3.org/2000/svg" width="241" height="308.781" viewBox="0 0 241 308.781">
  <defs>
    <style>
      .cls-1 {
        fill: #da0303;
        fill-rule: evenodd;
      }
    </style>
  </defs>
  <path class="cls-1" d="M241.079,47.411q-7.222-2.274-13.886-4.452a53.589,53.589,0,0,0-73.342-26.844A324.474,324.474,0,0,1,120.486,0a313.4,313.4,0,0,1-31.71,15.41A53.549,53.549,0,0,0,17.435,41.77Q9.114,44.509-.08,47.411C-0.08,56.169-5,309,120.486,308.772,246,309,241.079,56.169,241.079,47.411Zm-40.5-6.247a31.893,31.893,0,0,1,2.664,42.173l-15.392-9.452,9.868,14.987a32.11,32.11,0,0,1-49.2-12.364l24.91-14.575-27.469,4.291c-0.063-.815-0.1-1.635-0.1-2.466A32.076,32.076,0,0,1,200.576,41.164Zm-157.063,0A31.995,31.995,0,1,1,88.821,86.35c-0.4.4-.807,0.78-1.225,1.155L70.458,71.43l9,21.4A31.967,31.967,0,0,1,43.513,41.164ZM134.53,279.68a64.947,64.947,0,0,1-28.06,0v-1.836a2.619,2.619,0,0,1,.744-1.8,2.676,2.676,0,0,1,1.83-.77h22.912a2.676,2.676,0,0,1,1.83.77,2.619,2.619,0,0,1,.744,1.8v1.831Zm13.971-5.131a16.657,16.657,0,0,0-4.617-8.567,16.846,16.846,0,0,0-11.928-4.963H109.044A16.949,16.949,0,0,0,92.5,274.559C42.544,248.6,30.752,152.985,28.022,101.151c0.112,0.114.218,0.234,0.331,0.347a53.423,53.423,0,0,0,83.141-66.05c3.794-1.9,6.71-3.491,8.992-4.782,2.753,1.558,6.387,3.532,11.374,5.952a53.45,53.45,0,0,0,80.95,67.568C209.78,156.626,197.494,249.073,148.5,274.549ZM110.113,164.056c0-.958-0.045-1.917-0.135-2.848l-0.528-5.5L72.837,134.675l-5,2.268A29.824,29.824,0,1,0,110.113,164.056Zm-29.873,8.416a8.411,8.411,0,0,1-7.124-12.955l14.633,8.407A8.472,8.472,0,0,1,80.241,172.472ZM175,136.943l-5.005-2.269-36.583,21.039-0.528,5.5c-0.09.931-.135,1.89-0.135,2.848A29.873,29.873,0,1,0,175,136.943Zm-12.378,35.529a8.469,8.469,0,0,1-7.51-4.551l14.619-8.409a8.356,8.356,0,0,1,1.348,4.544A8.447,8.447,0,0,1,162.619,172.472ZM137.1,215.889H103.9a8.022,8.022,0,0,0-8.009,7.988v4.992a8.022,8.022,0,0,0,8.009,7.988H137.1a8.023,8.023,0,0,0,8.009-7.988v-4.992A8.023,8.023,0,0,0,137.1,215.889Z"/>
</svg>
