<svg xmlns="http://www.w3.org/2000/svg" width="241" height="308.75" viewBox="0 0 241 308.75">
  <defs>
    <style>
      .cls-1 {
        fill: #da0303;
        fill-rule: evenodd;
      }
    </style>
  </defs>
  <path class="cls-1" d="M27.237,67.373c60.1-19.054,82.951-30.863,93.249-36.682,10.326,5.819,33.152,17.628,93.277,36.682,0,6.789,3.8,214.016-93.277,213.845C23.4,281.389,27.209,74.162,27.237,67.373h0Zm93.249,241.371C246,309,241.08,56.192,241.08,47.435,163.363,22.79,133.815,7.5,120.486,0,107.156,7.5,77.637,22.79-.08,47.435-0.08,56.192-5,309,120.486,308.744h0ZM109.3,235.836h22.4a5.414,5.414,0,0,1,5.407,5.391v3.366a5.413,5.413,0,0,1-5.407,5.391H109.3a5.413,5.413,0,0,1-5.407-5.391v-3.366a5.414,5.414,0,0,1,5.407-5.391h0ZM51.865,112.128c7.78-2.6,17.019.427,26.058,7.73,7.694,6.218,15.875,15.973,22.769,27.839h0l0.143,0.171h-0.029c6.894,11.923,11.3,23.9,12.843,33.716,2.06,13.064-.829,23.561-9.21,28.41h0c-8.381,4.849-18.964,2.082-29.319-6.247-7.694-6.218-15.875-15.974-22.769-27.84h0l-0.086-.171c-6.894-11.894-11.3-23.9-12.872-33.715-2.059-13.093.83-23.59,9.21-28.41l2.546-1.483h0.715ZM64.422,136.4c-3.232-2.625-4.977-4.393-5.092-4.336h0c-0.086.057,0.544,2.481,1.2,6.617,1.173,7.388,4.634,16.716,10.154,26.3v-0.029h0v0.029l0.086,0.142c5.549,9.584,11.985,17.314,17.849,22.078,3.261,2.624,5.006,4.393,5.092,4.336H93.77c0.114-.058-0.572-2.482-1.23-6.618-1.173-7.388-4.662-16.715-10.183-26.3v0.028h0l-0.086-.171H82.214l0.057-.028c-5.549-9.584-11.956-17.286-17.849-22.049h0ZM180.9,132.066c-0.114-.057-1.859,1.711-5.12,4.336-5.835,4.735-12.242,12.465-17.82,22.106h-0.029c-5.549,9.612-9.067,19-10.24,26.413-0.629,4.022-1.259,6.418-1.2,6.618,0.286-.172,2.059-1.883,5.12-4.336,5.863-4.764,12.271-12.494,17.82-22.078l0.029-.028c5.549-9.613,9.067-19,10.24-26.414,0.658-4.136,1.287-6.56,1.2-6.617h0Zm-18.621-12.208c10.355-8.329,20.938-11.1,29.347-6.247,8.353,4.82,11.27,15.317,9.182,28.41-1.544,9.812-5.949,21.821-12.843,33.715l-0.8,1.4-0.028.028c-6.751,11.3-14.617,20.6-22.054,26.585-10.326,8.329-20.909,11.1-29.262,6.247H135.76c-8.381-4.821-11.27-15.318-9.182-28.41,1.545-9.813,5.95-21.821,12.843-33.716v-0.057c6.894-11.866,15.1-21.678,22.855-27.953h0Z"/>
</svg>
