<svg xmlns="http://www.w3.org/2000/svg" width="240.75" height="308.938" viewBox="0 0 240.75 308.938">
  <defs>
    <style>
      .cls-1 {
        fill: #da0303;
        fill-rule: evenodd;
      }
    </style>
  </defs>
  <path class="cls-1" d="M103,185.686a9.836,9.836,0,0,0,17.046,9.818,5.826,5.826,0,0,0,.457-1.028,5.826,5.826,0,0,0,.457,1.028,9.836,9.836,0,0,0,17.046-9.818c-2.712-4.709-17.5-15.326-17.5-15.326S105.716,180.977,103,185.686Zm9.976-40.928a29.916,29.916,0,0,0-17.447-27.147l-5.008-2.287L54,136.42l-0.523,5.5c-0.09.948-.134,1.878-0.134,2.842A29.82,29.82,0,1,0,112.979,144.758Zm-29.82,8.42a8.453,8.453,0,0,1-7.5-4.557l14.609-8.438A8.442,8.442,0,0,1,83.159,153.178ZM188.843,136.42l-36.537-21.1-5.015,2.3a29.829,29.829,0,1,0,42.21,27.14c0-.968-0.044-1.9-0.134-2.842Zm-29.134,16.758a8.419,8.419,0,0,1-7.1-12.975l14.576,8.418A8.419,8.419,0,0,1,159.709,153.178Zm57,92.237-8.16-4.711C243,165.184,240.857,53.241,240.857,47.463,163.279,22.8,133.812,7.506,120.506,0,107.2,7.506,77.734,22.8.155,47.463,0.136,53.24-2,165.162,32.449,240.681l-8.2,4.734-4.964-8.584L1.811,246.906l18.731,32.422,17.475-10.1-4.959-8.577,7.414-4.28C58.226,287.3,83.766,309,120.506,308.925c36.731,0.075,62.265-21.617,80.016-52.535l7.376,4.258-4.959,8.577,17.474,10.1,18.731-32.422-17.475-10.075Zm-189.311-178c60.018-19.065,82.8-30.881,93.111-36.7,10.279,5.822,33.093,17.638,93.083,36.7,0,1.192.125,8.571-.2,19.916q-9.752-2.2-20.071-3.939V75.519a4.346,4.346,0,0,0-1.256-3.025,4.275,4.275,0,0,0-6.053,0,4.347,4.347,0,0,0-1.257,3.025v6.53q-7.031-1.023-14.276-1.825v-8.13a4.351,4.351,0,0,0-1.256-3.025,4.276,4.276,0,0,0-6.054,0,4.347,4.347,0,0,0-1.256,3.025v7.28q-7.054-.633-14.277-1.053V70.952a4.346,4.346,0,0,0-1.256-3.025,4.275,4.275,0,0,0-6.053,0,4.346,4.346,0,0,0-1.256,3.025v6.964q-7.071-.27-14.277-0.32V69.811a4.346,4.346,0,0,0-1.256-3.025,4.276,4.276,0,0,0-6.054,0,4.346,4.346,0,0,0-1.256,3.025v7.8q-7.2.08-14.276,0.373v-7.03a4.347,4.347,0,0,0-1.257-3.025,4.275,4.275,0,0,0-6.053,0,4.347,4.347,0,0,0-1.256,3.025v7.479q-7.223.441-14.276,1.1V72.094a4.348,4.348,0,0,0-1.256-3.025,4.275,4.275,0,0,0-6.053,0,4.347,4.347,0,0,0-1.256,3.025v8.325q-7.249.827-14.277,1.886V75.519a4.347,4.347,0,0,0-1.256-3.025,4.275,4.275,0,0,0-6.053,0A4.347,4.347,0,0,0,47.7,75.519v8.157q-10.322,1.78-20.075,4.038C27.276,76.15,27.395,68.619,27.395,67.413Zm93.111,213.97c-72.3.128-88.543-115.232-92.133-176.663Q37.736,101.9,47.7,99.592V105.2a4.347,4.347,0,0,0,1.256,3.025,4.275,4.275,0,0,0,6.053,0,4.346,4.346,0,0,0,1.256-3.025V97.75q7-1.409,14.277-2.532v6.559a4.35,4.35,0,0,0,1.256,3.026,4.277,4.277,0,0,0,6.053,0,4.351,4.351,0,0,0,1.256-3.026v-7.76q7.018-.889,14.276-1.49v8.109a4.347,4.347,0,0,0,1.256,3.025,4.274,4.274,0,0,0,6.053,0,4.346,4.346,0,0,0,1.257-3.025v-8.7q7.032-.4,14.276-0.511v8.073a4.346,4.346,0,0,0,1.256,3.025,4.276,4.276,0,0,0,6.054,0,4.346,4.346,0,0,0,1.256-3.025V91.4q7.267,0.071,14.277.431v8.805a4.346,4.346,0,0,0,1.256,3.025,4.274,4.274,0,0,0,6.053,0,4.346,4.346,0,0,0,1.256-3.025V92.394q7.276,0.573,14.277,1.445v7.936a4.35,4.35,0,0,0,1.256,3.026,4.278,4.278,0,0,0,6.054,0,4.354,4.354,0,0,0,1.256-3.026v-6.74q7.284,1.118,14.276,2.54V105.2a4.346,4.346,0,0,0,1.257,3.025,4.274,4.274,0,0,0,6.053,0,4.346,4.346,0,0,0,1.256-3.025V99.439q9.938,2.319,19.317,5.188C209.065,166.034,192.838,281.511,120.506,281.383Zm16.561-57.395H103.945a8.017,8.017,0,0,0-7.995,7.991V237a8.017,8.017,0,0,0,7.995,7.992h33.122a8.018,8.018,0,0,0,8-7.992v-5.023A8.017,8.017,0,0,0,137.067,223.988Z" transform="translate(-0.125)"/>
</svg>
