<svg xmlns="http://www.w3.org/2000/svg" width="241" height="308.75" viewBox="0 0 241 308.75">
  <defs>
    <style>
      .cls-1 {
        fill: #da0303;
        fill-rule: evenodd;
      }
    </style>
  </defs>
  <path class="cls-1" d="M241.08,47.435C163.363,22.79,133.815,7.5,120.486,0,107.156,7.5,77.637,22.79-.08,47.435-0.08,56.192-5,309,120.486,308.744,246,309,241.08,56.192,241.08,47.435Zm-44.688,157-53.8-28.987,38.73,44.07,12.766-8.107c-13.4,38.629-35.888,69.871-73.606,69.8-37.63.066-60.1-31.048-73.5-69.567l12.375,7.87,38.758-44.07L44.562,204.309C25.924,144.633,27.237,71.365,27.237,67.373c60.1-19.054,82.951-30.863,93.249-36.682,10.326,5.819,33.152,17.628,93.277,36.682C213.763,71.367,215.077,144.739,196.392,204.438Zm-85.66-63.244A31.25,31.25,0,1,0,79.5,172.342,31.22,31.22,0,0,0,110.732,141.194ZM79.5,151.063a9.87,9.87,0,1,1,9.9-9.869A9.892,9.892,0,0,1,79.5,151.063ZM161.3,110.017a31.163,31.163,0,1,0,31.236,31.177A31.226,31.226,0,0,0,161.3,110.017Zm0,41.046a9.87,9.87,0,1,1,9.9-9.869A9.892,9.892,0,0,1,161.3,151.063ZM120.686,93.387L76.893,83.4l43.793,25.957,44.078-25.815Zm14.159,126.9a10.212,10.212,0,1,0,10.24,10.211A10.252,10.252,0,0,0,134.845,220.291Zm-28.6,0a10.212,10.212,0,1,0,10.24,10.211A10.252,10.252,0,0,0,106.241,220.291Zm28.6-25.957a10.212,10.212,0,1,0,10.24,10.211A10.252,10.252,0,0,0,134.845,194.334Zm-28.6,0a10.212,10.212,0,1,0,10.24,10.211A10.252,10.252,0,0,0,106.241,194.334Zm28.6,51.914a10.212,10.212,0,1,0,10.24,10.211A10.252,10.252,0,0,0,134.845,246.248Zm-28.6,0a10.212,10.212,0,1,0,10.24,10.211A10.252,10.252,0,0,0,106.241,246.248Z"/>
</svg>
