<svg xmlns="http://www.w3.org/2000/svg" width="241" height="308.781" viewBox="0 0 241 308.781">
  <defs>
    <style>
      .cls-1 {
        fill: #da0303;
        fill-rule: evenodd;
      }
    </style>
  </defs>
  <path class="cls-1" d="M70.085,175.309a29.794,29.794,0,0,1-12.412-56.9l5.024-2.3L99.305,137.2l0.521,5.5c0.089,0.95.133,1.876,0.133,2.833A29.86,29.86,0,0,1,70.085,175.309ZM63,140.976a8.43,8.43,0,1,0,14.6,8.409Zm108.945,34.333a29.86,29.86,0,0,1-29.873-29.779c0-.957.044-1.883,0.133-2.833l0.52-5.5,36.608-21.092,5.025,2.3A29.787,29.787,0,0,1,171.944,175.309Zm-7.509-25.924A8.468,8.468,0,0,0,180.4,145.53a8.377,8.377,0,0,0-1.357-4.56ZM27.237,67.373c60.1-19.054,82.951-30.863,93.249-36.682,10.326,5.819,33.151,17.628,93.277,36.682,0,6.789,3.8,214.016-93.277,213.845-97.053.171-93.249-207.056-93.249-213.845h0Zm93.249,241.4C246,309,241.079,56.192,241.079,47.435,163.363,22.79,133.815,7.53,120.486,0,107.156,7.53,77.637,22.79-.08,47.435-0.08,56.192-5,309,120.486,308.772h0ZM86.962,60.556a119.968,119.968,0,0,0-10.5-10.383c-4.748,1.8-9.926,3.708-15.618,5.7A105.141,105.141,0,0,1,76.321,70.055c18.421,20.509,29.8,48.947,29.8,80.409s-11.384,59.872-29.8,80.409a104.3,104.3,0,0,1-14.559,13.435A103.753,103.753,0,0,0,70,255.974a119.834,119.834,0,0,0,16.962-15.6c20.68-23.076,33.5-54.881,33.5-89.908,0-35.056-12.815-66.86-33.5-89.908h0Zm68.249,0c-20.681,23.047-33.467,54.852-33.467,89.908,0,35.027,12.786,66.832,33.467,89.908a120.806,120.806,0,0,0,16.247,15.06,111.286,111.286,0,0,0,8.152-11.751,103.924,103.924,0,0,1-13.759-12.808c-18.392-20.537-29.776-48.947-29.776-80.409s11.384-59.9,29.776-80.409a106.543,106.543,0,0,1,15.1-13.891c-5.663-2-10.841-3.879-15.589-5.676a124.928,124.928,0,0,0-10.154,10.069h0Z"/>
</svg>
