<svg xmlns="http://www.w3.org/2000/svg" width="241" height="308.781" viewBox="0 0 241 308.781">
  <defs>
    <style>
      .cls-1 {
        fill: #da0303;
        fill-rule: evenodd;
      }
    </style>
  </defs>
  <path class="cls-1" d="M241.08,47.435C163.363,22.79,133.815,7.53,120.486,0,107.156,7.53,77.637,22.79-.08,47.435-0.08,56.192-5,309,120.486,308.772,246,309,241.08,56.192,241.08,47.435ZM120.486,281.218c-97.053.171-93.249-207.056-93.249-213.845,60.1-19.054,82.951-30.863,93.249-36.682,10.326,5.819,33.152,17.628,93.277,36.682C213.763,74.162,217.567,281.389,120.486,281.218Zm-12.9-143.3a8.158,8.158,0,0,0,14.131,8.158,6,6,0,0,0,.372-0.856,5.891,5.891,0,0,0,.371.856,8.158,8.158,0,0,0,14.131-8.158c-2.231-3.879-14.5-12.664-14.5-12.664S109.816,134.034,107.585,137.913Zm63.072-22.562A22.6,22.6,0,0,1,158.7,103.485c-2.688-6.39-.314-12.551-5.52-18-8.753-9.128-23.913-2.681-23.913,9.556a48.8,48.8,0,0,0,3.8,18.94,49.814,49.814,0,0,0,26.859,26.869,49.048,49.048,0,0,0,18.135,3.794c0.115,0,.229.028,0.315,0.028H179.1c12.128,0,18.621-14.832,9.811-23.617C183.1,115.265,177.55,118.2,170.657,115.351Zm-62.471-1.369c3.347-8.044,6.751-21.707-.257-28.7a13.87,13.87,0,0,0-19.851.2c-5.234,5.448-2.832,11.609-5.521,18A22.6,22.6,0,0,1,70.6,115.351c-6.893,2.852-12.471-.086-18.249,5.7a13.777,13.777,0,0,0,.258,19.8c7.208,6.846,21.224,3.109,28.69,0A49.862,49.862,0,0,0,108.186,113.982Zm12.3,47.093c-11.3,0-29.663,14.49-28,25.643l9.153,61.9c1.63,11.182,7.551,19.111,18.85,19.111,11.327,0,17.219-7.958,18.878-19.111l9.153-61.9C150.176,175.565,131.813,161.075,120.486,161.075Z"/>
</svg>
