<svg xmlns="http://www.w3.org/2000/svg" width="241" height="308.781" viewBox="0 0 241 308.781">
  <defs>
    <style>
      .cls-1 {
        fill: #da0303;
        fill-rule: evenodd;
      }
    </style>
  </defs>
  <path class="cls-1" d="M241.079,47.411C163.363,22.792,133.844,7.5,120.514,0,107.185,7.5,77.637,22.792-.08,47.411-0.08,56.169-5,309,120.514,308.772,246,309,241.079,56.169,241.079,47.411ZM27.237,67.38c60.125-19.056,82.951-30.894,93.277-36.714,10.3,5.819,33.152,17.658,93.249,36.714,0,1.581.208,14.134-.715,32.435H27.953C27.029,81.514,27.237,68.961,27.237,67.38Zm1.612,46.755h183.3c-1.719,23.007-5.224,51.493-12.327,78.391H41.18C34.075,165.628,30.568,137.142,28.849,114.135ZM100.32,277.919c0.049-.05.094-0.1,0.143-0.155a29.086,29.086,0,0,1,41.076-.135A63.451,63.451,0,0,1,100.32,277.919Zm54.342-7.037a41.844,41.844,0,0,0-2.884-3.188,43.345,43.345,0,0,0-61.412,0,44.336,44.336,0,0,0-3.275,3.683c-19.632-12.9-32.837-37.137-41.717-64.531H195.632C186.866,233.9,173.883,257.863,154.662,270.882ZM137.1,219.313H103.9a8.021,8.021,0,0,0-8.009,7.987v4.992a8.022,8.022,0,0,0,8.009,7.988H137.1a8.022,8.022,0,0,0,8.009-7.988V227.3A8.021,8.021,0,0,0,137.1,219.313Zm35.154-83.5H68.741a17.53,17.53,0,1,0,0,35.059H172.259A17.53,17.53,0,1,0,172.259,135.815Z"/>
</svg>
