<?xml version="1.0" encoding="utf-8"?><svg xmlns="http://www.w3.org/2000/svg" xmlns:xlink="http://www.w3.org/1999/xlink"><symbol viewBox="0 0 241 308.75" id="mask_1" xmlns="http://www.w3.org/2000/svg"><defs><style>.acls-1{fill:#da0303;fill-rule:evenodd}</style></defs><path class="acls-1" d="M241.08 47.435C163.363 22.79 133.815 7.5 120.486 0 107.156 7.5 77.637 22.79-.08 47.435-.08 56.192-5 309 120.486 308.744 246 309 241.08 56.192 241.08 47.435zm-44.688 157l-53.8-28.987 38.73 44.07 12.766-8.107c-13.4 38.629-35.888 69.871-73.606 69.8-37.63.066-60.1-31.048-73.5-69.567l12.375 7.87 38.758-44.07-53.553 28.865C25.924 144.633 27.237 71.365 27.237 67.373c60.1-19.054 82.951-30.863 93.249-36.682 10.326 5.819 33.152 17.628 93.277 36.682 0 3.994 1.314 77.366-17.371 137.065zm-85.66-63.244A31.25 31.25 0 1 0 79.5 172.342a31.22 31.22 0 0 0 31.232-31.148zM79.5 151.063a9.87 9.87 0 1 1 9.9-9.869 9.892 9.892 0 0 1-9.9 9.869zm81.8-41.046a31.163 31.163 0 1 0 31.236 31.177 31.226 31.226 0 0 0-31.236-31.177zm0 41.046a9.87 9.87 0 1 1 9.9-9.869 9.892 9.892 0 0 1-9.9 9.869zm-40.614-57.676L76.893 83.4l43.793 25.957 44.078-25.815zm14.159 126.9a10.212 10.212 0 1 0 10.24 10.211 10.252 10.252 0 0 0-10.24-10.207zm-28.6 0a10.212 10.212 0 1 0 10.24 10.211 10.252 10.252 0 0 0-10.244-10.207zm28.6-25.957a10.212 10.212 0 1 0 10.24 10.211 10.252 10.252 0 0 0-10.24-10.207zm-28.6 0a10.212 10.212 0 1 0 10.24 10.211 10.252 10.252 0 0 0-10.244-10.207zm28.6 51.914a10.212 10.212 0 1 0 10.24 10.211 10.252 10.252 0 0 0-10.24-10.207zm-28.6 0a10.212 10.212 0 1 0 10.24 10.211 10.252 10.252 0 0 0-10.244-10.207z"/></symbol><symbol viewBox="0 0 241 308.781" id="mask_10" xmlns="http://www.w3.org/2000/svg"><defs><style>.bcls-1{fill:#da0303;fill-rule:evenodd}</style></defs><path class="bcls-1" d="M241.079 47.411q-7.222-2.274-13.886-4.452a53.589 53.589 0 0 0-73.342-26.844A324.474 324.474 0 0 1 120.486 0a313.4 313.4 0 0 1-31.71 15.41 53.549 53.549 0 0 0-71.341 26.36Q9.114 44.509-.08 47.411C-.08 56.169-5 309 120.486 308.772 246 309 241.079 56.169 241.079 47.411zm-40.5-6.247a31.893 31.893 0 0 1 2.664 42.173l-15.392-9.452 9.868 14.987a32.11 32.11 0 0 1-49.2-12.364l24.91-14.575-27.469 4.291c-.063-.815-.1-1.635-.1-2.466a32.076 32.076 0 0 1 54.716-22.594zm-157.063 0A31.995 31.995 0 1 1 88.821 86.35c-.4.4-.807.78-1.225 1.155L70.458 71.43l9 21.4a31.967 31.967 0 0 1-35.945-51.666zM134.53 279.68a64.947 64.947 0 0 1-28.06 0v-1.836a2.619 2.619 0 0 1 .744-1.8 2.676 2.676 0 0 1 1.83-.77h22.912a2.676 2.676 0 0 1 1.83.77 2.619 2.619 0 0 1 .744 1.8v1.831zm13.971-5.131a16.657 16.657 0 0 0-4.617-8.567 16.846 16.846 0 0 0-11.928-4.963h-22.912a16.949 16.949 0 0 0-16.544 13.54C42.544 248.6 30.752 152.985 28.022 101.151c.112.114.218.234.331.347a53.423 53.423 0 0 0 83.141-66.05c3.794-1.9 6.71-3.491 8.992-4.782a198.068 198.068 0 0 0 11.374 5.952 53.45 53.45 0 0 0 80.95 67.568c-3.03 52.44-15.316 144.887-64.31 170.363zm-38.388-110.493c0-.958-.045-1.917-.135-2.848l-.528-5.5-36.613-21.033-5 2.268a29.824 29.824 0 1 0 42.276 27.113zm-29.873 8.416a8.411 8.411 0 0 1-7.124-12.955l14.633 8.407a8.472 8.472 0 0 1-7.508 4.548zM175 136.943l-5.005-2.269-36.583 21.039-.528 5.5c-.09.931-.135 1.89-.135 2.848A29.873 29.873 0 1 0 175 136.943zm-12.378 35.529a8.469 8.469 0 0 1-7.51-4.551l14.619-8.409a8.356 8.356 0 0 1 1.348 4.544 8.447 8.447 0 0 1-8.46 8.416zM137.1 215.889h-33.2a8.022 8.022 0 0 0-8.009 7.988v4.992a8.022 8.022 0 0 0 8.009 7.988h33.2a8.023 8.023 0 0 0 8.009-7.988v-4.992a8.023 8.023 0 0 0-8.009-7.988z"/></symbol><symbol viewBox="0 0 241 308.781" id="mask_11" xmlns="http://www.w3.org/2000/svg"><defs><style>.ccls-1{fill:#da0303;fill-rule:evenodd}</style></defs><path class="ccls-1" d="M241.08 47.435C163.363 22.79 133.815 7.53 120.486 0 107.156 7.53 77.637 22.79-.08 47.435-.08 56.192-5 309 120.486 308.772 246 309 241.08 56.192 241.08 47.435zM120.486 281.218c-97.053.171-93.249-207.056-93.249-213.845 60.1-19.054 82.951-30.863 93.249-36.682 10.326 5.819 33.152 17.628 93.277 36.682 0 6.789 3.804 214.016-93.277 213.845zm-12.9-143.3a8.158 8.158 0 0 0 14.131 8.158 6 6 0 0 0 .372-.856 5.891 5.891 0 0 0 .371.856 8.158 8.158 0 0 0 14.131-8.158c-2.231-3.879-14.5-12.664-14.5-12.664s-12.275 8.78-14.506 12.659zm63.072-22.562a22.6 22.6 0 0 1-11.958-11.871c-2.688-6.39-.314-12.551-5.52-18-8.753-9.128-23.913-2.681-23.913 9.556a48.8 48.8 0 0 0 3.8 18.94 49.814 49.814 0 0 0 26.859 26.869 49.048 49.048 0 0 0 18.135 3.794c.115 0 .229.028.315.028h.724c12.128 0 18.621-14.832 9.811-23.617-5.811-5.79-11.361-2.855-18.254-5.704zm-62.471-1.369c3.347-8.044 6.751-21.707-.257-28.7a13.87 13.87 0 0 0-19.851.2c-5.234 5.448-2.832 11.609-5.521 18A22.6 22.6 0 0 1 70.6 115.351c-6.893 2.852-12.471-.086-18.249 5.7a13.777 13.777 0 0 0 .258 19.8c7.208 6.846 21.224 3.109 28.69 0a49.862 49.862 0 0 0 26.887-26.869zm12.3 47.093c-11.3 0-29.663 14.49-28 25.643l9.153 61.9c1.63 11.182 7.551 19.111 18.85 19.111 11.327 0 17.219-7.958 18.878-19.111l9.153-61.9c1.655-11.158-16.708-25.648-28.035-25.648z"/></symbol><symbol viewBox="0 0 241 308.781" id="mask_12" xmlns="http://www.w3.org/2000/svg"><defs><style>.dcls-1{fill:#da0303;fill-rule:evenodd}</style></defs><path class="dcls-1" d="M241.079 47.435C163.363 22.79 133.815 7.53 120.486 0 107.156 7.53 77.637 22.79-.08 47.435-.08 56.192-5 309 120.486 308.772 246 309 241.079 56.192 241.079 47.435zm-27.855 48.637l-101.4-7.853 65.553-33.048c10.305 3.683 22.314 7.741 36.39 12.2-.004 1.479.176 12.448-.543 28.701zM68.321 253.486a117 117 0 0 1-9.669-15.006l34.214 2.647zM51.51 223.549A243.4 243.4 0 0 1 40.218 188.9l159.627 3.533c-3.871 14.673-8.813 28.872-15.12 41.455zM27.761 96.068l21.492 1.665-17.89 42.234c-2.017-16.435-3.063-31.667-3.602-43.899zm9.181 78.426q-.77-3.747-1.46-7.489L64.328 98.9l119 9.221 25.361 38.967c-1.4 10.154-3.177 20.656-5.439 31.108zm164.409-64.974l11.069.858a576.412 576.412 0 0 1-1.16 14.359zM27.237 67.373c60.1-19.054 82.951-30.863 93.249-36.682 6.308 3.555 17.3 9.35 38.593 17.662L84.22 86.082l-56.915-4.408c-.155-8.136-.072-13.319-.068-14.301zm93.249 213.845c-16.948.03-30.818-6.266-42.173-16.708l42.157-21.247 56.353 4.36c-13.373 20.177-31.571 33.639-56.337 33.595zM110 132.917l-36.6-21.09-5.024 2.3a29.828 29.828 0 1 0 42.284 27.124c0-.968-.043-1.9-.134-2.841zm-29.216 16.748A8.411 8.411 0 0 1 73.7 136.7l14.6 8.412a8.469 8.469 0 0 1-7.516 4.553zm93.675-35.538l-5.024-2.3-36.6 21.09-.525 5.493c-.09.942-.134 1.873-.134 2.841a29.873 29.873 0 1 0 42.283-27.124zm-12.412 35.538a8.468 8.468 0 0 1-7.513-4.555l14.612-8.419a8.4 8.4 0 0 1-7.099 12.974z"/></symbol><symbol viewBox="0 0 241 308.781" id="mask_13" xmlns="http://www.w3.org/2000/svg"><defs><style>.ecls-1{fill:#da0303;fill-rule:evenodd}</style></defs><path class="ecls-1" d="M241.052 47.435C163.344 22.79 133.828 7.53 120.5 0 107.172 7.53 77.656 22.79-.052 47.435-.08 56.192-5 309 120.5 308.772 246 309 241.052 56.192 241.052 47.435zM120.5 281.218c-97.07.171-93.267-207.056-93.267-213.845C87.352 48.319 110.175 36.51 120.5 30.691c10.3 5.819 33.148 17.628 93.238 36.682.029 6.789 3.832 214.016-93.238 213.845zm26.713-94.044H93.758A26.233 26.233 0 0 0 67.589 213.3v12.81a26.233 26.233 0 0 0 26.17 26.128h53.455a26.234 26.234 0 0 0 26.2-26.128V213.3a26.234 26.234 0 0 0-26.201-26.126zm8.409 17.771a11.8 11.8 0 0 1 3.489 8.357v5.448h-13.042v-17.314h1.144a11.892 11.892 0 0 1 8.409 3.509zm-44.76 13.805h-14.73v-17.314h14.73v17.314zm1.916-17.314h14.7v17.314h-14.7v-17.314zm-1.916 19.226v17.314h-14.73v-17.314h14.73zm1.916 0h14.7v17.314h-14.7v-17.314zm16.645 0h14.7v17.314h-14.7v-17.314zm0-1.912v-17.314h14.7v17.314h-14.7zm-44.045-13.805a11.823 11.823 0 0 1 8.38-3.509h.458v17.314H81.889v-5.45a11.8 11.8 0 0 1 3.489-8.355zm0 29.522a11.8 11.8 0 0 1-3.489-8.357v-5.448h12.327v17.314h-.458a11.823 11.823 0 0 1-8.38-3.509zm70.244 0a11.892 11.892 0 0 1-8.409 3.509h-1.144v-17.314h13.042v5.448a11.8 11.8 0 0 1-3.489 8.357zm5.748-164.1H79.63a45.639 45.639 0 0 0-45.59 45.469v13.406a45.638 45.638 0 0 0 45.59 45.467h81.74a45.638 45.638 0 0 0 45.59-45.467v-13.406a45.639 45.639 0 0 0-45.59-45.468zm31.289 58.874a31.352 31.352 0 0 1-31.289 31.205H79.63a31.352 31.352 0 0 1-31.289-31.205v-13.405A31.4 31.4 0 0 1 79.63 84.63h81.74a31.4 31.4 0 0 1 31.289 31.206v13.406zM82.318 91.761a31.162 31.162 0 1 0 31.232 31.149 31.2 31.2 0 0 0-31.232-31.149zm0 41.047a9.884 9.884 0 1 1 9.9-9.9 9.892 9.892 0 0 1-9.9 9.9zM158.4 91.761a31.162 31.162 0 1 0 31.232 31.149A31.2 31.2 0 0 0 158.4 91.761zm0 41.047a9.884 9.884 0 1 1 9.9-9.9 9.892 9.892 0 0 1-9.9 9.9z"/></symbol><symbol viewBox="0 0 241 308.781" id="mask_14" xmlns="http://www.w3.org/2000/svg"><defs><style>.fcls-1{fill:#da0303;fill-rule:evenodd}</style></defs><path class="fcls-1" d="M241.079 47.435C163.363 22.79 133.844 7.53 120.514 0 107.185 7.53 77.637 22.79-.08 47.435-.08 56.192-5 309 120.514 308.772 246 309 241.079 56.192 241.079 47.435zM120.514 281.218c-27.848.049-47.392-16.971-61.108-41.427a4.15 4.15 0 0 0 .108-.433 104.234 104.234 0 0 0 13.2 8.1v5.438A4.2 4.2 0 0 0 74 255.917a4.262 4.262 0 0 0 3.032 1.255 4.365 4.365 0 0 0 3.032-1.255 4.287 4.287 0 0 0 1.258-3.023v-1.5a103.751 103.751 0 0 0 13.129 4.312v4.033a4.2 4.2 0 0 0 1.287 3.023 4.261 4.261 0 0 0 3.032 1.255 4.363 4.363 0 0 0 3.032-1.255 4.284 4.284 0 0 0 1.259-3.023v-2.209a105.15 105.15 0 0 0 13.139 1.37v3.69a4.2 4.2 0 0 0 1.287 3.023 4.259 4.259 0 0 0 3.032 1.255 4.36 4.36 0 0 0 3.032-1.255 4.284 4.284 0 0 0 1.259-3.023v-3.69a105 105 0 0 0 13.129-1.369v2.207a4.2 4.2 0 0 0 1.287 3.023 4.262 4.262 0 0 0 3.032 1.255 4.364 4.364 0 0 0 3.032-1.255 4.284 4.284 0 0 0 1.259-3.023v-4.031a103.7 103.7 0 0 0 13.129-4.311v1.5a4.2 4.2 0 0 0 1.287 3.023 4.262 4.262 0 0 0 3.032 1.255 4.364 4.364 0 0 0 3.032-1.255 4.289 4.289 0 0 0 1.259-3.023v-5.433a104.529 104.529 0 0 0 13.205-8.089 4.423 4.423 0 0 0 .111.429c-13.717 24.449-33.253 41.464-61.09 41.415zm74.392-72.172q-2.466 3.036-5.174 5.846a4.319 4.319 0 0 0-.969-1.5v-.029a4.364 4.364 0 0 0-3.032-1.255 4.262 4.262 0 0 0-3.032 1.255v.029a4.13 4.13 0 0 0-1.287 3v6.227a96.136 96.136 0 0 1-13.129 9.086v-1.051a4.221 4.221 0 0 0-1.259-3v-.029a4.364 4.364 0 0 0-3.032-1.255 4.262 4.262 0 0 0-3.032 1.255v.029a4.13 4.13 0 0 0-1.287 3v5.441a95.282 95.282 0 0 1-13.129 4.759V237.5a4.217 4.217 0 0 0-1.259-3v-.029a4.364 4.364 0 0 0-3.032-1.255 4.262 4.262 0 0 0-3.032 1.255v.029a4.13 4.13 0 0 0-1.287 3v5.348a96.251 96.251 0 0 1-13.129 1.483v-3.979a4.219 4.219 0 0 0-1.259-2.995v-.037a4.36 4.36 0 0 0-3.032-1.255 4.259 4.259 0 0 0-3.032 1.255v.028a4.132 4.132 0 0 0-1.287 2.995v3.978a96.373 96.373 0 0 1-13.129-1.485v-5.345a4.217 4.217 0 0 0-1.259-3v-.029a4.363 4.363 0 0 0-3.032-1.255 4.261 4.261 0 0 0-3.032 1.255v.038a4.13 4.13 0 0 0-1.287 3v3.351a95.171 95.171 0 0 1-13.129-4.759v-5.438a4.22 4.22 0 0 0-1.258-3v-.029a4.365 4.365 0 0 0-3.032-1.255A4.262 4.262 0 0 0 74 227.621v.029a4.13 4.13 0 0 0-1.287 3v1.046a95.923 95.923 0 0 1-13.129-9.1v-6.211a4.219 4.219 0 0 0-1.258-3v-.029A4.364 4.364 0 0 0 55.3 212.1a4.261 4.261 0 0 0-3.032 1.255v.029a4.188 4.188 0 0 0-.99 1.493 97.057 97.057 0 0 1-5.173-5.829C25.853 148.59 27.237 71.471 27.237 67.373c60.125-19.054 82.951-30.863 93.277-36.682 10.3 5.819 33.152 17.628 93.249 36.682 0 4.098 1.384 81.212-18.857 141.673zm-79.4-38.416a4.321 4.321 0 0 0-5.864 1.541l-6.007 10.382a4.21 4.21 0 0 0-.429 3.252 4.3 4.3 0 0 0 5.263 3.024 4.225 4.225 0 0 0 2.6-2l6.007-10.354a4.271 4.271 0 0 0-1.567-5.845zm16.161 1.541a4.321 4.321 0 0 0-5.864-1.541 4.271 4.271 0 0 0-1.573 5.848l6.007 10.354a4.294 4.294 0 0 0 5.863 1.568 4.289 4.289 0 0 0 2-2.6 4.214 4.214 0 0 0-.429-3.252zm-21.567-38.28a31.264 31.264 0 1 0-38.059 30.429c-.081.058-.157.12-.239.178a60.716 60.716 0 0 1-8.8 5.257l.019-.009-.057.029.038-.02a10.71 10.71 0 1 0 10.088 18.8l-.028.015.143-.086c-.037.025-.077.047-.115.071a85.552 85.552 0 0 0 11.21-6.743c15.862-11.372 25.67-27.387 25.685-45.34.072-.852.115-1.711.115-2.581zm-41.16 0a9.9 9.9 0 1 1 9.9 9.87 9.886 9.886 0 0 1-9.898-9.87zm93.42-31.148a31.22 31.22 0 0 0-31.26 31.148c0 .87.045 1.729.115 2.581.015 17.953 9.823 33.968 25.685 45.34a85.565 85.565 0 0 0 11.213 6.745c-.037-.024-.077-.046-.114-.071l.143.086-.029-.015a10.713 10.713 0 1 0 10.089-18.8l.037.019-.057-.029.02.01a60.858 60.858 0 0 1-8.8-5.258c-.081-.058-.158-.12-.239-.178a31.151 31.151 0 0 0-6.801-61.578zm0 41.018a9.87 9.87 0 1 1 9.9-9.87 9.887 9.887 0 0 1-9.898 9.87z"/></symbol><symbol viewBox="0 0 241 308.781" id="mask_15" xmlns="http://www.w3.org/2000/svg"><defs><style>.gcls-1{fill:#da0303;fill-rule:evenodd}</style></defs><path class="gcls-1" d="M70.085 175.309a29.794 29.794 0 0 1-12.412-56.9l5.024-2.3L99.305 137.2l.521 5.5c.089.95.133 1.876.133 2.833a29.86 29.86 0 0 1-29.874 29.776zM63 140.976a8.43 8.43 0 1 0 14.6 8.409zm108.945 34.333a29.86 29.86 0 0 1-29.873-29.779c0-.957.044-1.883.133-2.833l.52-5.5 36.608-21.092 5.025 2.3a29.787 29.787 0 0 1-12.414 56.904zm-7.509-25.924a8.468 8.468 0 0 0 15.964-3.855 8.377 8.377 0 0 0-1.357-4.56zM27.237 67.373c60.1-19.054 82.951-30.863 93.249-36.682 10.326 5.819 33.151 17.628 93.277 36.682 0 6.789 3.8 214.016-93.277 213.845-97.053.171-93.249-207.056-93.249-213.845zm93.249 241.4C246 309 241.079 56.192 241.079 47.435 163.363 22.79 133.815 7.53 120.486 0 107.156 7.53 77.637 22.79-.08 47.435-.08 56.192-5 309 120.486 308.772zM86.962 60.556a119.968 119.968 0 0 0-10.5-10.383 641.891 641.891 0 0 1-15.618 5.7 105.141 105.141 0 0 1 15.477 14.182c18.421 20.509 29.8 48.947 29.8 80.409s-11.384 59.872-29.8 80.409a104.3 104.3 0 0 1-14.559 13.435A103.753 103.753 0 0 0 70 255.974a119.834 119.834 0 0 0 16.962-15.6c20.68-23.076 33.5-54.881 33.5-89.908 0-35.056-12.815-66.86-33.5-89.908zm68.249 0c-20.681 23.047-33.467 54.852-33.467 89.908 0 35.027 12.786 66.832 33.467 89.908a120.806 120.806 0 0 0 16.247 15.06 111.286 111.286 0 0 0 8.152-11.751 103.924 103.924 0 0 1-13.759-12.808c-18.392-20.537-29.776-48.947-29.776-80.409s11.384-59.9 29.776-80.409a106.543 106.543 0 0 1 15.1-13.891c-5.663-2-10.841-3.879-15.589-5.676a124.928 124.928 0 0 0-10.154 10.069z"/></symbol><symbol viewBox="0 0 241 308.75" id="mask_2" xmlns="http://www.w3.org/2000/svg"><defs><style>.hcls-1{fill:#da0303;fill-rule:evenodd}</style></defs><path class="hcls-1" d="M27.237 67.373c60.1-19.054 82.951-30.863 93.249-36.682 10.326 5.819 33.152 17.628 93.277 36.682 0 6.789 3.8 214.016-93.277 213.845-97.086.171-93.277-207.056-93.249-213.845zm93.249 241.371C246 309 241.08 56.192 241.08 47.435 163.363 22.79 133.815 7.5 120.486 0 107.156 7.5 77.637 22.79-.08 47.435-.08 56.192-5 309 120.486 308.744zM109.3 235.836h22.4a5.414 5.414 0 0 1 5.407 5.391v3.366a5.413 5.413 0 0 1-5.407 5.391h-22.4a5.413 5.413 0 0 1-5.407-5.391v-3.366a5.414 5.414 0 0 1 5.407-5.391zM51.865 112.128c7.78-2.6 17.019.427 26.058 7.73 7.694 6.218 15.875 15.973 22.769 27.839l.143.171h-.029c6.894 11.923 11.3 23.9 12.843 33.716 2.06 13.064-.829 23.561-9.21 28.41s-18.964 2.082-29.319-6.247c-7.694-6.218-15.875-15.974-22.769-27.84l-.086-.171c-6.894-11.894-11.3-23.9-12.872-33.715-2.059-13.093.83-23.59 9.21-28.41l2.546-1.483h.715zM64.422 136.4c-3.232-2.625-4.977-4.393-5.092-4.336-.086.057.544 2.481 1.2 6.617 1.173 7.388 4.634 16.716 10.154 26.3v-.029.029l.086.142c5.549 9.584 11.985 17.314 17.849 22.078 3.261 2.624 5.006 4.393 5.092 4.336h.059c.114-.058-.572-2.482-1.23-6.618-1.173-7.388-4.662-16.715-10.183-26.3v.028l-.086-.171h-.057l.057-.028c-5.549-9.584-11.956-17.286-17.849-22.049zm116.478-4.334c-.114-.057-1.859 1.711-5.12 4.336-5.835 4.735-12.242 12.465-17.82 22.106h-.029c-5.549 9.612-9.067 19-10.24 26.413-.629 4.022-1.259 6.418-1.2 6.618.286-.172 2.059-1.883 5.12-4.336 5.863-4.764 12.271-12.494 17.82-22.078l.029-.028c5.549-9.613 9.067-19 10.24-26.414.658-4.136 1.287-6.56 1.2-6.617zm-18.621-12.208c10.355-8.329 20.938-11.1 29.347-6.247 8.353 4.82 11.27 15.317 9.182 28.41-1.544 9.812-5.949 21.821-12.843 33.715l-.8 1.4-.028.028c-6.751 11.3-14.617 20.6-22.054 26.585-10.326 8.329-20.909 11.1-29.262 6.247h-.061c-8.381-4.821-11.27-15.318-9.182-28.41 1.545-9.813 5.95-21.821 12.843-33.716v-.057c6.894-11.866 15.1-21.678 22.855-27.953z"/></symbol><symbol viewBox="0 0 240.75 308.938" id="mask_3" xmlns="http://www.w3.org/2000/svg"><defs><style>.icls-1{fill:#da0303;fill-rule:evenodd}</style></defs><path class="icls-1" d="M102.875 185.686a9.836 9.836 0 0 0 17.046 9.818 5.826 5.826 0 0 0 .457-1.028 5.826 5.826 0 0 0 .457 1.028 9.836 9.836 0 0 0 17.046-9.818c-2.712-4.709-17.5-15.326-17.5-15.326s-14.79 10.617-17.506 15.326zm9.976-40.928a29.916 29.916 0 0 0-17.447-27.147l-5.008-2.287-36.521 21.096-.523 5.5c-.09.948-.134 1.878-.134 2.842a29.82 29.82 0 1 0 59.636-.004zm-29.82 8.42a8.453 8.453 0 0 1-7.5-4.557l14.609-8.438a8.442 8.442 0 0 1-7.106 12.995zm105.687-16.758l-36.537-21.1-5.015 2.3a29.829 29.829 0 1 0 42.21 27.14c0-.968-.044-1.9-.134-2.842zm-29.134 16.758a8.419 8.419 0 0 1-7.1-12.975l14.576 8.418a8.419 8.419 0 0 1-7.476 4.557zm57 92.237l-8.16-4.711c34.451-75.52 32.308-187.463 32.308-193.241C163.154 22.8 133.687 7.506 120.381 0 107.075 7.506 77.609 22.8.03 47.463.011 53.24-2.125 165.162 32.324 240.681l-8.2 4.734-4.964-8.584-17.474 10.075 18.731 32.422 17.475-10.1-4.959-8.577 7.414-4.28C58.101 287.3 83.641 309 120.381 308.925c36.731.075 62.265-21.617 80.016-52.535l7.376 4.258-4.959 8.577 17.474 10.1 18.731-32.422-17.475-10.075zm-189.311-178c60.018-19.065 82.8-30.881 93.111-36.7 10.279 5.822 33.093 17.638 93.083 36.7 0 1.192.125 8.571-.2 19.916q-9.752-2.2-20.071-3.939v-7.873a4.346 4.346 0 0 0-1.256-3.025 4.275 4.275 0 0 0-6.053 0 4.347 4.347 0 0 0-1.257 3.025v6.53q-7.031-1.023-14.276-1.825v-8.13a4.351 4.351 0 0 0-1.256-3.025 4.276 4.276 0 0 0-6.054 0 4.347 4.347 0 0 0-1.256 3.025v7.28q-7.054-.633-14.277-1.053v-7.369a4.346 4.346 0 0 0-1.256-3.025 4.275 4.275 0 0 0-6.053 0 4.346 4.346 0 0 0-1.256 3.025v6.964q-7.071-.27-14.277-.32v-7.785a4.346 4.346 0 0 0-1.256-3.025 4.276 4.276 0 0 0-6.054 0 4.346 4.346 0 0 0-1.256 3.025v7.8q-7.2.08-14.276.373v-7.03a4.347 4.347 0 0 0-1.257-3.025 4.275 4.275 0 0 0-6.053 0 4.347 4.347 0 0 0-1.256 3.025v7.479q-7.223.441-14.276 1.1v-7.439a4.348 4.348 0 0 0-1.256-3.025 4.275 4.275 0 0 0-6.053 0 4.347 4.347 0 0 0-1.256 3.025v8.325q-7.249.827-14.277 1.886v-6.786a4.347 4.347 0 0 0-1.256-3.025 4.275 4.275 0 0 0-6.053 0 4.347 4.347 0 0 0-1.259 3.025v8.157q-10.322 1.78-20.075 4.038c-.349-11.564-.23-19.095-.23-20.301zm93.111 213.97c-72.3.128-88.543-115.232-92.133-176.663q9.36-2.822 19.324-5.13v5.608a4.347 4.347 0 0 0 1.256 3.025 4.275 4.275 0 0 0 6.053 0 4.346 4.346 0 0 0 1.256-3.025v-7.45q7-1.409 14.277-2.532v6.559a4.35 4.35 0 0 0 1.256 3.026 4.277 4.277 0 0 0 6.053 0 4.351 4.351 0 0 0 1.256-3.026v-7.76q7.018-.889 14.276-1.49v8.109a4.347 4.347 0 0 0 1.256 3.025 4.274 4.274 0 0 0 6.053 0 4.346 4.346 0 0 0 1.257-3.025v-8.7q7.032-.4 14.276-.511v8.073a4.346 4.346 0 0 0 1.256 3.025 4.276 4.276 0 0 0 6.054 0 4.346 4.346 0 0 0 1.256-3.025V91.4q7.267.071 14.277.431v8.805a4.346 4.346 0 0 0 1.256 3.025 4.274 4.274 0 0 0 6.053 0 4.346 4.346 0 0 0 1.256-3.025v-8.242q7.276.573 14.277 1.445v7.936a4.35 4.35 0 0 0 1.256 3.026 4.278 4.278 0 0 0 6.054 0 4.354 4.354 0 0 0 1.256-3.026v-6.74q7.284 1.118 14.276 2.54v7.625a4.346 4.346 0 0 0 1.257 3.025 4.274 4.274 0 0 0 6.053 0 4.346 4.346 0 0 0 1.256-3.025v-5.761q9.938 2.319 19.317 5.188c-3.57 61.407-19.797 176.884-92.129 176.756zm16.561-57.395H103.82a8.017 8.017 0 0 0-7.995 7.991V237a8.017 8.017 0 0 0 7.995 7.992h33.122a8.018 8.018 0 0 0 8-7.992v-5.023a8.017 8.017 0 0 0-8-7.989z"/></symbol><symbol viewBox="0 0 241 308.75" id="mask_4" xmlns="http://www.w3.org/2000/svg"><defs><style>.jcls-1{fill:#da0303;fill-rule:evenodd}</style></defs><path class="jcls-1" d="M241.08 47.435C163.363 22.79 133.844 7.5 120.514 0 107.185 7.5 77.637 22.79-.08 47.435-.08 56.192-5 309 120.514 308.744 246 309 241.08 56.192 241.08 47.435zM213.625 84.4h-18.741a5.886 5.886 0 0 0-4.4-4.45V59.734a1168.852 1168.852 0 0 0 23.284 7.639c-.005 1.088.092 7.327-.143 17.027zM65.8 250.009a110.151 110.151 0 0 1 19.042-10.121V251.1a5.859 5.859 0 0 0-4.348 4.45H69.968q-2.154-2.665-4.168-5.541zM53.181 114.21V91.334a5.907 5.907 0 0 0 4.348-4.278H80.44a5.945 5.945 0 0 0 4.405 4.393v11.833a31.3 31.3 0 0 0-30.98 11.129 5.872 5.872 0 0 0-.684-.201zm4.361 107.108a5.835 5.835 0 0 0-4.361-4.422V194.02a5.915 5.915 0 0 0 4.319-4.279h22.969a5.824 5.824 0 0 0 4.376 4.393v22.734a5.846 5.846 0 0 0-4.453 4.45h-22.85zm87.627 0a109.162 109.162 0 0 0-20.45-2.76 5.868 5.868 0 0 0-2.889-1.579v-21.7a11.247 11.247 0 0 0 8.405-5.536h18.912a5.871 5.871 0 0 0 4.348 4.251v22.9a5.851 5.851 0 0 0-4.391 4.422h-3.935zm-66.817-56.392a31.424 31.424 0 0 0 6.493-.679v18.506a5.882 5.882 0 0 0-4.376 4.336h-22.94a5.859 5.859 0 0 0-4.348-4.45V159.82a5.845 5.845 0 0 0 3.9-3.218 31.21 31.21 0 0 0 21.271 8.324zm28.615-43.642h7.8a5.846 5.846 0 0 0 4.405 4.235v22.922a5.84 5.84 0 0 0-4.291 4.419h-11.85a31.057 31.057 0 0 0 3.936-31.576zm30.777 31.576h-11.395a5.806 5.806 0 0 0-4.519-4.485V125.5a5.846 5.846 0 0 0 4.319-4.213h7.656a31.048 31.048 0 0 0 3.939 31.573zm-50.239 10.7a31.238 31.238 0 0 0 13.209-8.05h14.223a5.838 5.838 0 0 0 4.233 4.217v5.651c-2.988 4.015-9.926 13.862-9.926 18.741a11.181 11.181 0 0 0 .411 2.967H91.882a5.839 5.839 0 0 0-4.376-4.336v-19.19zm61.585 23.526h-17.745a11.181 11.181 0 0 0 .411-2.967c0-4.893-6.96-14.782-9.926-18.775V159.8a5.892 5.892 0 0 0 4.491-4.284h13.739a31.255 31.255 0 0 0 13.435 8.11v18.988a5.879 5.879 0 0 0-4.405 4.475zm13.358-43.442a9.87 9.87 0 1 1 9.9-9.87 9.887 9.887 0 0 1-9.9 9.873zm-27.324-25.016h-8.918a5.881 5.881 0 0 0-4.376-4.468V91.222a5.849 5.849 0 0 0 4.233-4.167h23.112a5.847 5.847 0 0 0 4.32 4.364v12.486a31.327 31.327 0 0 0-18.371 14.726zM153.5 80.067a5.854 5.854 0 0 0-4.32 4.336h-23.031a5.877 5.877 0 0 0-4.319-4.479V57.088a5.891 5.891 0 0 0 4.405-4.262h22.94a5.928 5.928 0 0 0 4.32 4.25v22.99zm-34.325-.2a5.884 5.884 0 0 0-4.52 4.534H91.882a5.873 5.873 0 0 0-4.376-4.364V57.1a5.863 5.863 0 0 0 4.348-4.279h23a5.84 5.84 0 0 0 4.319 4.24v22.8zm-27.293 7.188h22.826a5.85 5.85 0 0 0 4.462 4.222v22.863a5.883 5.883 0 0 0-4.462 4.491h-9.06a31.322 31.322 0 0 0-18.143-14.665V91.448a5.866 5.866 0 0 0 4.377-4.393zm-3.633 46.722a9.9 9.9 0 1 1-9.9-9.869 9.887 9.887 0 0 1 9.9 9.869zm-.744 83.123v-22.766a5.86 5.86 0 0 0 4.405-4.393h18.856a11.264 11.264 0 0 0 8.4 5.533v21.739a5.888 5.888 0 0 0-2.767 1.54 109.144 109.144 0 0 0-20.645 2.765h-3.938a5.843 5.843 0 0 0-4.311-4.418zm0 21.95a93.217 93.217 0 0 1 31.665-6.087v18.3a5.816 5.816 0 0 0-4.434 4.491H92a5.978 5.978 0 0 0-4.491-4.507v-12.201zm73.014-14.876h22.967a5.905 5.905 0 0 0 4.042 4.043q-2.2 4.866-4.645 9.449a124.662 124.662 0 0 0-23.136-11.7 5.8 5.8 0 0 0 .772-1.796zm.023-2.652a5.877 5.877 0 0 0-4.387-4.422V194a5.863 5.863 0 0 0 4.376-4.251H183.5a5.871 5.871 0 0 0 4.319 4.136v22.791a5.9 5.9 0 0 0-4.478 4.65h-22.8zm27.277-38.822a5.854 5.854 0 0 0-4.433 4.593H160.56a5.8 5.8 0 0 0-4.405-4.478V164.3a31.574 31.574 0 0 0 6.293.631 31.167 31.167 0 0 0 21.389-8.462 5.9 5.9 0 0 0 3.982 3.213V182.5zm-25.371-79.9a31.427 31.427 0 0 0-6.293.632V91.448a5.888 5.888 0 0 0 4.462-4.393h22.826a5.811 5.811 0 0 0 4.376 4.278v23.077a5.7 5.7 0 0 0-.727.232 31.2 31.2 0 0 0-24.644-12.042zm20.966-18.2h-22.8a5.854 5.854 0 0 0-4.462-4.364v-22.96a5.9 5.9 0 0 0 4.405-4.25h10.348a832.366 832.366 0 0 0 16.911 6v21.127a5.806 5.806 0 0 0-4.402 4.447zm-22.8-34.229a5.714 5.714 0 0 0-.508-1.423c1.2.467 2.433.941 3.7 1.423h-3.194zm-11.5 0h-22.85a5.842 5.842 0 0 0-4.434-4.46V31.428a275.485 275.485 0 0 0 31.058 14.458 5.882 5.882 0 0 0-3.77 4.287zm-29.948-4.44a5.882 5.882 0 0 0-4.377 4.44H91.882a5.892 5.892 0 0 0-3.8-4.269 277.416 277.416 0 0 0 31.088-14.46v14.292zm-49.061 7.095H80.44a5.926 5.926 0 0 0 4.405 4.307v22.9a5.789 5.789 0 0 0-4.376 4.367H57.557a5.853 5.853 0 0 0-4.376-4.45V58.83a827.385 827.385 0 0 0 16.924-6.004zm7.1-2.653a653.93 653.93 0 0 0 3.738-1.437 5.8 5.8 0 0 0-.529 1.437H77.2zM50.521 114.3a5.88 5.88 0 0 0-4.233 4.336H29.2a594.38 594.38 0 0 1-1.757-31.576h18.7a5.847 5.847 0 0 0 4.376 4.307V114.3zm-4.233 6.989a5.84 5.84 0 0 0 2.177 3.331 31.1 31.1 0 0 0 2.057 23.349v.475a5.882 5.882 0 0 0-4.462 4.421H33.142c-1.655-11-2.851-21.692-3.714-31.576h16.859zm-.229 34.229a5.9 5.9 0 0 0 4.462 4.364v22.734a5.867 5.867 0 0 0-4.462 4.478H39.8c-2.57-10.5-4.617-21.157-6.247-31.576h12.505zm.029 34.228a5.919 5.919 0 0 0 4.434 4.308V216.9a5.884 5.884 0 0 0-1.422.551 254.3 254.3 0 0 1-8.64-27.706h5.629zm7.46 38.419a5.8 5.8 0 0 0 3.972-4.19h22.91a5.765 5.765 0 0 0 .778 1.783 124.793 124.793 0 0 0-23.1 11.669q-2.408-4.49-4.561-9.267zm33.958 34.318a5.883 5.883 0 0 0 4.434-4.279h22.854a5.848 5.848 0 0 0 4.377 4.231V281.2a59.2 59.2 0 0 1-31.665-9.562v-9.158zm34.325-.068a5.891 5.891 0 0 0 4.319-4.211h23.026a5.811 5.811 0 0 0 4.32 4.336v9.114a59.179 59.179 0 0 1-31.666 9.546v-18.79zm27.317-6.863h-22.942a5.835 5.835 0 0 0-4.376-4.469v-18.324a93.364 93.364 0 0 1 31.665 6.1v12.324a5.883 5.883 0 0 0-4.348 4.364zm7.008-15.647a110.2 110.2 0 0 1 19.036 10.135q-2 2.857-4.146 5.512h-10.458a5.811 5.811 0 0 0-4.433-4.393V239.9zm35.808-22.6a5.852 5.852 0 0 0-1.484-.6v-22.82a5.871 5.871 0 0 0 4.319-4.136h5.748a254.609 254.609 0 0 1-8.584 27.551zm2.95-30.213a5.815 5.815 0 0 0-4.434-4.593v-22.822a5.9 5.9 0 0 0 4.348-4.164h12.626c-1.63 10.419-3.676 21.08-6.245 31.576h-6.295zm0-34.229a5.9 5.9 0 0 0-4.434-4.564v-.779a31.065 31.065 0 0 0 1.936-22.52 5.941 5.941 0 0 0 2.584-3.716h16.574c-.863 9.884-2.058 20.572-3.713 31.576h-12.948zm0-34.229a5.806 5.806 0 0 0-4.434-4.25v-23.05a5.818 5.818 0 0 0 4.348-4.278h18.727c-.247 8.556-.75 19.4-1.756 31.576h-16.886zM27.237 67.373c8.49-2.69 16.211-5.231 23.284-7.636v20.187a5.916 5.916 0 0 0-4.434 4.476H27.375c-.235-9.7-.138-15.939-.138-17.027zM72.2 258.2h8.352a5.888 5.888 0 0 0 4.291 4.25v7.374A75.19 75.19 0 0 1 72.2 258.2zm83.952 11.637v-7.273a5.858 5.858 0 0 0 4.433-4.364h8.223a75.222 75.222 0 0 1-12.653 11.636z"/></symbol><symbol viewBox="0 0 252 308.906" id="mask_5" xmlns="http://www.w3.org/2000/svg"><defs><style>.kcls-1{fill:#da0303;fill-rule:evenodd}</style></defs><path class="kcls-1" d="M52.389 146.355c2.034 3.482 7.762 2.712 10.855 5.28 3.094 2.6 3.323 8.363 7.1 9.733s7.7-2.883 11.743-2.883c4.01 0 7.934 4.253 11.715 2.883s4.038-7.136 7.1-9.733c3.093-2.568 8.85-1.8 10.855-5.28s-1.518-8.048-.83-12.015c.716-3.939 5.585-7.05 4.9-10.988s-6.359-5.2-8.364-8.677-.286-8.99-3.351-11.558c-3.094-2.569-8.221.085-12-1.285s-6.012-6.707-10.021-6.707c-4.038 0-6.244 5.337-10.025 6.707s-8.937-1.284-12.03 1.285c-3.065 2.568-1.318 8.076-3.323 11.558-2.034 3.482-7.676 4.738-8.392 8.677-.687 3.938 4.21 7.049 4.9 10.988.686 3.967-2.837 8.533-.832 12.015zm29.7-27.855a9.875 9.875 0 1 1-9.91 9.875 9.9 9.9 0 0 1 9.912-9.875zm57.371 27.855c2.033 3.482 7.762 2.712 10.855 5.28 3.093 2.6 3.323 8.363 7.1 9.733s7.705-2.883 11.744-2.883c4.01 0 7.934 4.253 11.715 2.883s4.038-7.136 7.1-9.733c3.093-2.568 8.85-1.8 10.855-5.28s-1.518-8.048-.83-12.015c.716-3.939 5.585-7.05 4.9-10.988s-6.359-5.2-8.364-8.677-.286-8.99-3.351-11.558c-3.094-2.569-8.221.085-12-1.285s-6.015-6.707-10.025-6.707c-4.039 0-6.244 5.337-10.025 6.707s-8.937-1.284-12.03 1.285c-3.065 2.568-1.318 8.076-3.322 11.558-2.034 3.482-7.677 4.738-8.393 8.677-.687 3.938 4.211 7.049 4.9 10.988.691 3.967-2.832 8.533-.827 12.015zm29.7-27.855a9.875 9.875 0 1 1-9.91 9.875 9.9 9.9 0 0 1 9.914-9.875zm-61.095 60.334a9.859 9.859 0 0 0 17.1 9.818 4.247 4.247 0 0 0 .458-1.027 4.3 4.3 0 0 0 .487 1.027 9.846 9.846 0 0 0 17.071-9.818c-2.721-4.709-17.558-15.326-17.558-15.326s-14.804 10.617-17.554 15.326zM252 262v-21.747a4.8 4.8 0 0 1-.659.029 21.378 21.378 0 0 1-21.4-21.32v-24.254c17.843-68.217 16.441-142.565 16.441-147.245C168.562 22.8 138.975 7.506 125.627 0 112.28 7.506 82.721 22.8 4.9 47.463c0 4.742-1.441 81.014 17.157 149.959v21.54a21.36 21.36 0 0 1-21.4 21.32 5.231 5.231 0 0 1-.657-.029V262h.66a43.113 43.113 0 0 0 21.375-5.643A21.332 21.332 0 0 1 .66 277.27H0v21.719h.66a43.11 43.11 0 0 0 43.193-43.038v-2.258c17.859 32.344 43.875 55.307 81.774 55.228 38.423.079 64.637-23.51 82.519-56.549v3.579a43.11 43.11 0 0 0 43.193 43.038H252V277.27h-.659a21.351 21.351 0 0 1-21.375-20.912A43.1 43.1 0 0 0 251.339 262H252zM32.253 67.413c60.178-19.065 83.063-30.881 93.374-36.7 10.34 5.822 33.2 17.638 93.4 36.7 0 3.829 1.209 71.389-15.148 129.58-14.3 15.022-30.563 26.067-48.037 32.049v-12.277a6.129 6.129 0 0 0-1.776-4.282h-.028a6.074 6.074 0 0 0-4.3-1.769 6.052 6.052 0 0 0-6.072 6.051v15.581a92.026 92.026 0 0 1-11.887 1.59V220.76a6.13 6.13 0 0 0-1.775-4.281h-.029a6.074 6.074 0 0 0-4.3-1.769 6.052 6.052 0 0 0-6.073 6.05v13.187a91.952 91.952 0 0 1-11.886-1.569v-15.613a6.134 6.134 0 0 0-1.776-4.282h-.029a6.07 6.07 0 0 0-4.3-1.769 6.052 6.052 0 0 0-6.072 6.051V229.1c-17.516-5.964-33.806-17.015-48.142-32.054C31.043 138.84 32.253 71.243 32.253 67.413zm93.374 213.967c-33.082.058-54.458-23.933-68.268-55.871A123.7 123.7 0 0 0 95.553 244.2v14.552a6.03 6.03 0 0 0 1.776 4.282v.028a6.172 6.172 0 0 0 4.3 1.77 6.067 6.067 0 0 0 4.3-1.77l.029-.028a6.032 6.032 0 0 0 1.776-4.282V246.93a109.574 109.574 0 0 0 11.886 1.3v14.511a6.027 6.027 0 0 0 1.776 4.281v.029a6.175 6.175 0 0 0 4.3 1.769 6.074 6.074 0 0 0 4.3-1.769l.029-.029a6.027 6.027 0 0 0 1.775-4.281v-14.519a109.388 109.388 0 0 0 11.887-1.318v11.843a6.027 6.027 0 0 0 1.776 4.282v.028a6.171 6.171 0 0 0 4.3 1.77 6.071 6.071 0 0 0 4.3-1.77l.028-.028a6.027 6.027 0 0 0 1.776-4.282v-14.6a123.979 123.979 0 0 0 38.09-18.679c-13.836 31.958-35.223 55.97-68.33 55.912z"/></symbol><symbol viewBox="0 0 241 308.781" id="mask_6" xmlns="http://www.w3.org/2000/svg"><defs><style>.lcls-1{fill:#da0303;fill-rule:evenodd}</style></defs><path class="lcls-1" d="M241.079 47.411C163.363 22.792 133.815 7.5 120.486 0 107.156 7.5 77.637 22.792-.08 47.411-.08 56.169-5 309 120.486 308.772 246 309 241.079 56.169 241.079 47.411zM97.174 276.735v-37.882h46.652v37.873a62.9 62.9 0 0 1-46.652.009zm60.954-8.384V238a13.446 13.446 0 0 0-13.443-13.408h-48.37A13.484 13.484 0 0 0 82.872 238v30.366C24.5 223.056 27.237 73.113 27.237 67.38c60.1-19.056 82.951-30.894 93.249-36.714 10.326 5.819 33.151 17.658 93.277 36.714 0 5.733 2.737 155.646-55.635 200.971zM106.594 132.9l-36.577-21.043-5 2.257a29.819 29.819 0 1 0 42.234 27.121c0-.955-.045-1.91-.133-2.841zM77.38 149.651a8.405 8.405 0 0 1-7.114-12.962L84.89 145.1a8.47 8.47 0 0 1-7.51 4.551zm100.476-35.53l-5-2.269-36.59 21.048-.525 5.5c-.09.934-.135 1.89-.135 2.841a29.874 29.874 0 1 0 42.25-27.12zm-12.376 35.53a8.471 8.471 0 0 1-7.511-4.551l14.62-8.409a8.361 8.361 0 0 1 1.347 4.544 8.446 8.446 0 0 1-8.456 8.416zm-96.453 33.975c-10.3 0-18.674 9.367-18.674 20.881h5.711c0-8.368 5.815-15.175 12.962-15.175s12.962 6.807 12.962 15.175c0 5.883-4.044 10.669-9.015 10.669-4.955 0-8.986-4.786-8.986-10.669 0-3.4 2.261-6.161 5.039-6.161 2.794 0 5.067 2.763 5.067 6.161a1.5 1.5 0 0 1-1.12 1.655 1.516 1.516 0 0 1-1.092-1.655h-5.709a6.837 6.837 0 1 0 13.634 0c0-6.543-4.835-11.867-10.779-11.867-5.928 0-10.75 5.324-10.75 11.867 0 9.029 6.593 16.375 14.7 16.375 8.12 0 14.726-7.346 14.726-16.375-.003-11.514-8.379-20.881-18.676-20.881zm104.119 0c-10.3 0-18.674 9.367-18.674 20.881 0 9.029 6.606 16.375 14.726 16.375s14.726-7.346 14.726-16.375c0-6.543-4.835-11.867-10.778-11.867-5.928 0-10.751 5.324-10.751 11.867a6.824 6.824 0 1 0 13.606 0h-5.711a1.187 1.187 0 1 1-2.183 0c0-3.4 2.26-6.161 5.039-6.161 2.794 0 5.067 2.763 5.067 6.161 0 5.883-4.044 10.669-9.015 10.669s-9.015-4.786-9.015-10.669c0-8.368 5.815-15.175 12.963-15.175s12.962 6.807 12.962 15.175h5.711c0-11.514-8.377-20.881-18.673-20.881z"/></symbol><symbol viewBox="0 0 241 308.781" id="mask_7" xmlns="http://www.w3.org/2000/svg"><defs><style>.mcls-1{fill:#da0303;fill-rule:evenodd}</style></defs><path class="mcls-1" d="M27.237 67.38c60.1-19.056 82.951-30.894 93.249-36.714 10.326 5.819 33.152 17.658 93.277 36.714a573.469 573.469 0 0 1-3.29 65.241c-6.121 9.357-18.935 27.471-31.607 40.593-7.608 7.845-14.674 13.665-18.907 13.665-2 0-5.921-2.967-10.355-6.333-7.98-6.076-17.133-13.037-29.118-13.037s-21.253 7.017-29.286 13.064c-4.434 3.338-8.324 6.276-10.212 6.276-4.233 0-11.3-5.791-18.879-13.636-12.671-13.122-25.486-31.236-31.579-40.593a573.469 573.469 0 0 1-3.293-65.24zm178.946 95.679c-9.954 57-32.895 118.272-85.7 118.157-52.8.115-75.743-61.161-85.7-118.128a246.361 246.361 0 0 0 17.048 20c10.011 10.355 20.423 18.029 29.147 18.029 6.636 0 12.357-4.308 18.821-9.186 6.236-4.707 13.473-10.156 20.681-10.156s14.273 5.392 20.451 10.07c6.493 4.936 12.243 9.3 19.022 9.3 8.724 0 19.136-7.673 29.176-18.057a237.46 237.46 0 0 0 17.048-20.026zm-85.7 145.714C246 309 241.08 56.169 241.08 47.411 163.363 22.792 133.815 7.5 120.486 0 107.156 7.5 77.637 22.792-.08 47.411-.08 56.169-5 309 120.486 308.772zM81.184 98.046a31.166 31.166 0 1 0 31.264 31.154 31.2 31.2 0 0 0-31.264-31.154zm-9.9 31.151a9.9 9.9 0 1 1 9.9 9.87 9.886 9.886 0 0 1-9.9-9.87zm88.272-31.151a31.166 31.166 0 1 0 31.267 31.154 31.2 31.2 0 0 0-31.264-31.151zm-9.9 31.151a9.9 9.9 0 1 1 9.9 9.87 9.886 9.886 0 0 1-9.9-9.87zm-42.449 87.12h26.545a23.778 23.778 0 0 1 16.819 6.989 23.507 23.507 0 0 1 6.979 16.745 23.8 23.8 0 0 1-23.8 23.735h-26.537a23.8 23.8 0 0 1-23.8-23.735 23.846 23.846 0 0 1 23.8-23.734zm30.635 15.2v17.093a10.686 10.686 0 0 0 2.632-1.855 9.478 9.478 0 0 0 2.774-6.7 9.413 9.413 0 0 0-2.774-6.675 10.709 10.709 0 0 0-2.632-1.854zm-7.494 18v-18.936h-6.121v18.941h6.121zm-19.737-18.941v18.941h6.122v-18.936h-6.122zm-7.494 18.029v-17.083a10.053 10.053 0 0 0-2.6 1.854 9.439 9.439 0 0 0-2.8 6.675 9.5 9.5 0 0 0 2.8 6.7 10.032 10.032 0 0 0 2.6 1.855z"/></symbol><symbol viewBox="0 0 241 308.781" id="mask_8" xmlns="http://www.w3.org/2000/svg"><defs><style>.ncls-1{fill:#da0303;fill-rule:evenodd}</style></defs><path class="ncls-1" d="M241.052 47.411C163.344 22.792 133.828 7.5 120.5 0 107.172 7.5 77.656 22.792-.052 47.411-.08 56.169-5 309 120.5 308.772 246 309 241.052 56.169 241.052 47.411zM120.5 281.216c-27.555.056-46.978-16.609-60.671-40.656a111.257 111.257 0 0 1 29.184-15.941l11.895 34.973 2.56-38.926a90.406 90.406 0 0 1 34.471.1l2.553 38.829 11.847-34.832a111.571 111.571 0 0 1 28.807 15.837c-13.691 24.027-33.108 40.672-60.646 40.616zm67.4-54.025c-20.3-14.353-43.162-22.4-67.426-22.4s-47.113 8.024-67.388 22.356C25.549 165.291 27.233 71.882 27.233 67.38c60.119-19.056 82.942-30.895 93.267-36.714 10.3 5.819 33.148 17.658 93.238 36.714.019 4.503 1.71 97.953-25.838 159.811zM78.343 99.757a31.165 31.165 0 1 0 31.26 31.152 31.22 31.22 0 0 0-31.26-31.152zm0 41.022a9.871 9.871 0 1 1 9.9-9.87 9.868 9.868 0 0 1-9.9 9.87zm84.085-41.022a31.165 31.165 0 1 0 31.261 31.152 31.219 31.219 0 0 0-31.261-31.152zm0 41.022a9.871 9.871 0 1 1 9.9-9.87 9.868 9.868 0 0 1-9.9 9.87zm-53.2 38.767a11.269 11.269 0 0 0 22.538 0c0-6.19-11.269-20.51-11.269-20.51s-11.266 14.32-11.266 20.51z"/></symbol><symbol viewBox="0 0 241 308.781" id="mask_9" xmlns="http://www.w3.org/2000/svg"><defs><style>.ocls-1{fill:#da0303;fill-rule:evenodd}</style></defs><path class="ocls-1" d="M241.079 47.411C163.363 22.792 133.844 7.5 120.514 0 107.185 7.5 77.637 22.792-.08 47.411-.08 56.169-5 309 120.514 308.772 246 309 241.079 56.169 241.079 47.411zM27.237 67.38c60.125-19.056 82.951-30.894 93.277-36.714 10.3 5.819 33.152 17.658 93.249 36.714 0 1.581.208 14.134-.715 32.435H27.953c-.924-18.301-.716-30.854-.716-32.435zm1.612 46.755h183.3c-1.719 23.007-5.224 51.493-12.327 78.391H41.18c-7.105-26.898-10.612-55.384-12.331-78.391zm71.471 163.784c.049-.05.094-.1.143-.155a29.086 29.086 0 0 1 41.076-.135 63.451 63.451 0 0 1-41.219.29zm54.342-7.037a41.844 41.844 0 0 0-2.884-3.188 43.345 43.345 0 0 0-61.412 0 44.336 44.336 0 0 0-3.275 3.683c-19.632-12.9-32.837-37.137-41.717-64.531h150.258c-8.766 27.054-21.749 51.017-40.97 64.036zM137.1 219.313h-33.2a8.021 8.021 0 0 0-8.009 7.987v4.992a8.022 8.022 0 0 0 8.009 7.988h33.2a8.022 8.022 0 0 0 8.009-7.988V227.3a8.021 8.021 0 0 0-8.009-7.987zm35.154-83.5H68.741a17.53 17.53 0 1 0 0 35.059h103.518a17.53 17.53 0 1 0 0-35.057z"/></symbol></svg>