<?xml version="1.0" encoding="utf-8"?><!DOCTYPE svg PUBLIC "-//W3C//DTD SVG 1.1//EN" "http://www.w3.org/Graphics/SVG/1.1/DTD/svg11.dtd"><svg xmlns="http://www.w3.org/2000/svg" xmlns:xlink="http://www.w3.org/1999/xlink"><symbol viewBox="0 0 46.41 19.32" id="btn-more" xmlns="http://www.w3.org/2000/svg"><defs><style>.acls-1{fill-rule:evenodd}</style></defs><path id="aRectangle_29_copy_5" data-name="Rectangle 29 copy 5" class="acls-1" d="M1181.76 9402.66l-1.42-1.42 7.25-7.24H1145v-2h42.59l-7.25-7.24 1.42-1.42 9.65 9.66z" transform="translate(-1145 -9383.34)"/></symbol><symbol viewBox="0 0 46.002 46.002" id="earth-globe-with-continents-maps" xmlns="http://www.w3.org/2000/svg"><path d="M40.503 16.351l.4.287h.373v-.718l1.176-.114 1.117.832h1.836l.129-.118a23.415 23.415 0 0 0-.623-1.823l-1.198.02-.601-.66-.116-1.061-.616.336-.33 1.297-.889-.946-.036-.894-.858-.739-.316-.315h-.995l.313.887 1.198.668.208.221-.26.13.012.703-.584.244-.498-.109-.312-.441.811.043.219-.295-1.795-1.211-.138-.516-.729.66-.739-.152-1.125 1.463-.222.573-.72.065-1.065.007-.637-.298-.188-1.265.229-.603 1.084-.237 1.182.237.145-.654-.502-.119.171-1.019 1.19-.186.832-1.175.859-.144.775.115h.286l-.158-1.104-.942.38-.332-.825-.547-.076-.103-.565.446-.486 1.061-.416.273-.488C34.599 2.175 29.284 0 23.468 0A22.87 22.87 0 0 0 9.955 4.405l1.16-.009.517.286.974.21.076.383 1.549.057-.21-.497-1.376-.039.324-.305-.113-.364h-1.244l1.357-1.013h1.3l.611.842 1.014.057.611-.593.459.229-.842.822s-1.165.021-1.108.021c.057 0 .096.802.096.802l1.413-.039.153-.381.974-.058.115-.573-.573-.097.191-.516.439-.133 1.529.076-.843.765.136.592.879.134-.057-1.07.841-.44 1.491-.172 2.159.956v.822l.688.172-.345.65h-.975l-.289.745-2.225-.525 1.751-.933-.667-.567-1.51.191-.132.137-.005-.002-.023.032-.435.452-.719.059.057.358.251.104-.01.118-.585.083-.043.339-.559.029-.101-.674-1.003.305-2.05 1.2.23.845.573.374 1.146.158v1.303l.53-.085.488-1.018 1.219-.386V7.061l.678-.512 1.639.387-.115 1.033h.44l1.205-.592.058 1.356.877.535-.037.804-.84.286.057.266 1.013.461-.021.554-.293.025a.08.08 0 0 0-.003-.015l-1.278-.394-.054-.41h-.001l.374-.257v-.374l-.402-.101-.1.345-.705.109-.07-.023v.035l-.244.037-.199-.402-.23-.101h-.502l-.228.188v.416l.429.143.424.06-.095.042-.387.429-.17-.214-.374-.099-1.019.958.133.109-1.504.833-1.415 1.472-.097.655-1.418.932-.703.707.078 1.414-.975-.454.007-.827-2.713.001-1.405.711-.61 1.125-.242.892.395.865 1.107.135 1.759-1.176.154.583-.537 1.014 1.339.229.134 2.068 1.835.312 1.166-1.348 1.415.288.497.691 1.357-.08.038-.401.746.362.841 1.318 1.452.02.536.938.076 1.146 1.606.611 2.026.021.593.973.898.288-.172.805-.984 1.25-.287 2.769-.889.702-1.318-.039-.439.764.326 1.436-1.435 1.834-.458.842-1.367.656-.899.137-.037.381.631.181-.076.411-.565.544.343.433.68.019-.038.524-.181.517-.058.42 1.006.847-.134.44-1.369-.026-1.362-1.188-1.061-1.865.148-1.8-.803-1.071.325-1.815-.477-.133V32.5s-1.338-1.014-1.415-1.014c-.077 0-.708-.172-.708-.172l-.134-.744-1.739-2.18.172-.783.057-1.281 1.204-.842-.172-1.434-1.758-.132-1.376-1.568-.975-.27-.63-.116.076-.573-.803-.114v.325l-2.008-.501-.808-1.236.329-.599-1.271-1.855-.218-1.357h-.516l.171 1.318.879 1.357-.096.536-.745-.115-.917-1.563v-1.819l-.956-.459V14a22.884 22.884 0 0 0-1.835 9.001c0 12.683 10.318 23.001 23.001 23.001 7.19 0 13.618-3.318 17.839-8.502h-.759v-1.529l-.878-1.182V32.95l-.67-.668-.059-.765.852-1.625-1.613-2.849.189-1.933-1.452-.15-.535-.535h-.976l-.496.458H33.19l-.058.153h-.957l-2.196-2.503.018-1.95.363-.133.135-.746h-.516l-.211-.783 2.541-1.834v-1.3l1.244-.691.504.05h1.023l.801-.43 2.581-.201v1.319l2.041.517zM34.051 8.15l.21-.324.756-.153.189.918.402.649.267.307.487.19-.459.546-.889.085h-.668l.075-.793.556-.115-.047-.373-.518-.325-.362-.248.001-.364zM32.81 9.584l.459-.736.619-.144.44.191-.04.497-.946.669h-.534v-.477h.002zm-12.497 2.829l-.479.04.026-.333.214-.267.288.226-.049.334zm1.679-.588l-.327.028-.066.316-.252.157-.404.034c-.014-.095-.022-.167-.022-.167h-.157v-.34h.659l.136-.351.262-.005.299.062-.128.266z"/></symbol><symbol id="heart" viewBox="-283.4 406.5 43.2 39.7" xmlns="http://www.w3.org/2000/svg"><style>.cst0{fill:#3cea24}</style><path class="cst0" d="M-261.8 446.2c-.2 0-.4 0-.6-.1-10.7-4.8-21.7-19.1-20.9-27.3.6-7.5 5.4-12 12.8-12.3 3.2-.1 6.4 1.1 8.7 3.3 2.3-2.2 5.5-3.4 8.7-3.3 7.4.2 12.2 4.8 12.8 12.3.7 8.2-10.3 22.5-20.9 27.3-.2.1-.4.1-.6.1zm-8.4-36.7h-.3c-2.7.1-9.2 1.2-9.9 9.5-.5 6.2 8.6 19.2 18.6 24 9.9-4.8 19.1-17.8 18.6-24-.7-8.4-7.2-9.5-9.9-9.5-2.9-.1-5.7 1.2-7.5 3.4-.6.7-1.8.7-2.3 0-1.9-2.2-4.5-3.4-7.3-3.4z"/></symbol><symbol id="mouse" viewBox="0 0 22.752 37.301" xmlns="http://www.w3.org/2000/svg"><style>.dst0{fill-rule:evenodd;clip-rule:evenodd}</style><path d="M11.376 37.301C5.103 37.301 0 32.206 0 25.942V11.359C0 5.096 5.103 0 11.376 0s11.376 5.096 11.376 11.359v14.583c0 6.264-5.103 11.359-11.376 11.359zm0-35.018c-5.014 0-9.093 4.071-9.093 9.076v14.583c0 5.004 4.079 9.075 9.093 9.075s9.093-4.071 9.093-9.075V11.359c0-5.005-4.079-9.076-9.093-9.076z"/><path class="dst0" d="M11.376 8.305a2.547 2.547 0 0 1 2.544 2.54v3.624a2.555 2.555 0 0 1-2.544 2.569 2.554 2.554 0 0 1-2.544-2.569v-3.624a2.547 2.547 0 0 1 2.544-2.54z"/></symbol><symbol viewBox="0 0 9 19.18" id="socials-fb" xmlns="http://www.w3.org/2000/svg"><defs><style>.ecls-1{fill:#00d8ff;fill-rule:evenodd;filter:url(#efilter)}</style><filter id="efilter" x="285" y="1008.41" width="9" height="19.18" filterUnits="userSpaceOnUse"><feFlood result="flood" flood-color="#fff"/><feComposite result="composite" operator="in" in2="SourceGraphic"/><feBlend result="blend" in2="SourceGraphic"/></filter></defs><path id="eShape_20_copy_9" data-name="Shape 20 copy 9" class="ecls-1" d="M293.99 1008.39l-2.848.01s-3.632-.33-3.581 3.38l-.006 2.73-2.568.01v3.44h2.568v9.64h3.426v-9.63l2.6-.01.307-3.47h-2.9l-.014-2.05a.829.829 0 0 1 .951-.79l2.063-.03v-3.23z" transform="translate(-285 -1008.41)"/></symbol><symbol viewBox="0 0 33 32" id="socials-gh" xmlns="http://www.w3.org/2000/svg"><defs><style>.fcls-1{fill:#f8f8f8;fill-rule:evenodd;filter:url(#ffilter)}</style><filter id="ffilter" x="933" y="10274" width="33" height="32" filterUnits="userSpaceOnUse"><feFlood result="flood"/><feComposite result="composite" operator="in" in2="SourceGraphic"/><feBlend result="blend" in2="SourceGraphic"/></filter></defs><path id="fRounded_Rectangle_1_copy" data-name="Rounded Rectangle 1 copy" class="fcls-1" d="M963.786 10282.2a16.816 16.816 0 0 0-6-6 16.689 16.689 0 0 0-16.564 0 16.818 16.818 0 0 0-6 6 15.761 15.761 0 0 0-2.213 8.2 15.589 15.589 0 0 0 3.147 9.6 16.058 16.058 0 0 0 8.132 6 1.108 1.108 0 0 0 .859-.2.891.891 0 0 0 .279-.6c0-.1 0-.4-.01-1.2-.008-.7-.011-1.3-.011-1.9l-.494.1a4.193 4.193 0 0 1-1.193.1 8.042 8.042 0 0 1-1.493-.2 3.856 3.856 0 0 1-1.439-.6 2.7 2.7 0 0 1-.945-1.3l-.215-.5a6.266 6.266 0 0 0-.677-1.1 2.185 2.185 0 0 0-.934-.8l-.151-.1q-.15-.15-.279-.3a1.177 1.177 0 0 1-.193-.3.127.127 0 0 1 .107-.2 1.02 1.02 0 0 1 .623-.1h.43a4.587 4.587 0 0 1 1.063.6 2.474 2.474 0 0 1 1.042 1.1 3.477 3.477 0 0 0 1.192 1.3 2.658 2.658 0 0 0 1.407.5c.473 0 .881-.1 1.225-.1a3.374 3.374 0 0 0 .967-.4 3.844 3.844 0 0 1 1.052-2.2 13.569 13.569 0 0 1-2.2-.3 9.9 9.9 0 0 1-2.019-.9 5.487 5.487 0 0 1-1.73-1.4 6.76 6.76 0 0 1-1.127-2.3 10.054 10.054 0 0 1-.441-3.2 6.4 6.4 0 0 1 1.7-4.4 5.573 5.573 0 0 1 .15-4.3 3.482 3.482 0 0 1 1.848.3 14.512 14.512 0 0 1 1.794.8 4.842 4.842 0 0 1 .913.6 14.48 14.48 0 0 1 8.25 0l.816-.5a9.144 9.144 0 0 1 1.976-1 2.858 2.858 0 0 1 1.741-.2 5.518 5.518 0 0 1 .172 4.3 6.407 6.407 0 0 1 1.7 4.4 11.217 11.217 0 0 1-.44 3.3 7.09 7.09 0 0 1-1.138 2.2 5.612 5.612 0 0 1-1.741 1.4 9.9 9.9 0 0 1-2.019.9 13.569 13.569 0 0 1-2.2.3 4.007 4.007 0 0 1 1.116 3.1v4.5a.907.907 0 0 0 .269.6 1.074 1.074 0 0 0 .849.2 16.058 16.058 0 0 0 8.132-6 15.589 15.589 0 0 0 3.147-9.6 15.771 15.771 0 0 0-2.232-8.2z" transform="translate(-933 -10274)"/></symbol><symbol viewBox="0 0 35 35" id="socials-med" xmlns="http://www.w3.org/2000/svg"><defs><style>.gcls-1{fill:#fff;fill-rule:evenodd}</style></defs><path class="gcls-1" d="M0 35V0h35v35H0zM29.077 7.9h-6.5l-4.633 11.55L12.675 7.9H5.86v.39l2.2 2.65a.91.91 0 0 1 .3.77V22.1a1.194 1.194 0 0 1-.318 1.03l-2.47 3v.39h7v-.39l-2.469-3a1.232 1.232 0 0 1-.341-1.03v-8.99l6.147 13.41h.714l5.28-13.41V23.8a.549.549 0 0 1-.187.53l-1.9 1.84v.39h9.221v-.39l-1.833-1.8a.553.553 0 0 1-.209-.53V10.62a.561.561 0 0 1 .209-.53l1.877-1.8V7.9z"/></symbol><symbol viewBox="0 0 79.4 79.2" id="socials-sl" xmlns="http://www.w3.org/2000/svg"><path d="M76.4 29.8C74 21 69.1 7.2 61.1 2.6c-8-4.7-22.4-2-31.3.4C21 5.3 7.2 10.2 2.6 18.2c-4.7 8-2 22.4.4 31.2S10.3 72 18.3 76.6c8 4.7 22.4 2 31.3-.4 8.8-2.4 22.6-7.2 27.3-15.3 4.6-7.9 1.9-22.3-.5-31.1zM61.7 48.1l-5.1 1.3 1.4 5.1c.6 2.1-.7 4.3-2.8 4.9s-4.3-.7-4.9-2.8l-1.4-5.1-11.3 3 1.3 5.1c.6 2.1-.7 4.3-2.8 4.9-2.1.6-4.3-.7-4.9-2.8l-1.3-5.1-5.1 1.4c-2.1.6-4.3-.7-4.9-2.8-.6-2.1.7-4.3 2.8-4.9l5.1-1.4-3-11.3-5.1 1.3c-2.1.6-4.3-.7-4.9-2.8-.6-2.1.7-4.3 2.8-4.9l5.1-1.3-1.4-5.1c-.6-2.1.7-4.3 2.8-4.9 2.1-.6 4.3.7 4.9 2.8l1.4 5.1 11.3-3-1.3-5.1c-.6-2.1.7-4.3 2.8-4.9 2.1-.6 4.3.7 4.9 2.8l1.3 5.1 5.1-1.4c2.1-.6 4.3.7 4.9 2.8.6 2.1-.7 4.3-2.8 4.9l-5.1 1.4 3 11.3 5.1-1.3c2.1-.6 4.3.7 4.9 2.8.6 2.1-.6 4.3-2.8 4.9z"/><path d="M32.5 35.5l3 11.3 11.4-3-3.1-11.4z"/></symbol><symbol viewBox="0 0 21.594 17.59" id="socials-tw" xmlns="http://www.w3.org/2000/svg"><defs><style>.icls-1{fill:#00d8ff;fill-rule:evenodd;filter:url(#ifilter)}</style><filter id="ifilter" x="241.969" y="1009.41" width="21.594" height="17.59" filterUnits="userSpaceOnUse"><feFlood result="flood" flood-color="#fff"/><feComposite result="composite" operator="in" in2="SourceGraphic"/><feBlend result="blend" in2="SourceGraphic"/></filter></defs><path id="iShape_19_copy" data-name="Shape 19 copy" class="icls-1" d="M241.973 1025.06s8.875 5.67 16.259-2.33c1.752-1.9 3.02-4.69 3.121-8.92a9.224 9.224 0 0 0 2.217-2.34 6.729 6.729 0 0 1-2.5.73 4.691 4.691 0 0 0 1.932-2.5 7.471 7.471 0 0 1-2.85 1.11 4.44 4.44 0 0 0-5.257-.92c-3.262 1.45-2.312 4.97-2.312 4.97a11.962 11.962 0 0 1-9.12-4.69 4.458 4.458 0 0 0 1.235 5.95 3.682 3.682 0 0 1-1.868-.53s-.412 3.38 3.483 4.4a4.113 4.113 0 0 1-1.932.13s.349 2.47 4.085 3.07c-.002 0-2.155 2.12-6.493 1.87z" transform="translate(-241.969 -1009.41)"/></symbol><symbol viewBox="0 0 34 34" id="socials-ws" xmlns="http://www.w3.org/2000/svg"><defs><style>.jcls-1{fill:#f8f8f8;fill-rule:evenodd}</style></defs><path id="jRounded_Rectangle_1_copy" data-name="Rounded Rectangle 1 copy" class="jcls-1" d="M906.2 10285.1l.3.2h.281v-.5l.887-.1.843.6h1.389l.1-.1c-.139-.4-.295-.9-.47-1.3h-.9l-.454-.5-.087-.8-.465.3-.249.9-.671-.7-.027-.6-.647-.6-.239-.2h-.75l.236.6.9.5.157.2-.2.1.009.5-.44.2-.376-.1-.235-.3h.612l.165-.2-1.355-.9-.1-.4-.55.5-.557-.1-.849 1.1-.168.4h-1.346l-.481-.2-.142-.9.173-.5.818-.1.892.1.109-.4-.379-.1.129-.8.9-.1.628-.9.648-.1.585.1h.216l-.12-.8-.71.3-.251-.7h-.413l-.077-.4.336-.4.8-.3.206-.4a17.664 17.664 0 0 0-11.458-4.2 17.154 17.154 0 0 0-10.2 3.3l.876-.1.39.3.735.1.057.3h1.169l-.159-.3-1.038-.1.244-.2-.085-.2h-.938l1.023-.8h.981l.461.6.765.1.461-.5.347.2-.636.6h-.836a2.861 2.861 0 0 1 .073.6h1.066l.115-.3h.735l.087-.5h-.432l.144-.4.331-.1h1.154l-.636.6.1.4.663.1-.043-.7.635-.4 1.125-.1 1.629.7v.6l.519.1-.26.5h-.736l-.218.6-1.679-.4 1.321-.7-.5-.4-1.139.1-.1.1h-.024l-.328.4h-.543l.043.3.19.1h-.008l-.441.1-.033.3h-.421l-.077-.5-.756.2-1.547.9.174.6.432.3.865.1v1l.4-.1.369-.7.919-.3v-1.2l.512-.4 1.236.3-.086.8h.332l.909-.4.044 1 .661.3-.028.6-.633.3.043.2.764.3-.016.4h-.223l-.964-.3-.041-.3.282-.2v-.3h-.3l-.076.2-.531.1h-.237l-.151-.3h-.552l-.172.1v.3l.324.1.32.1h-.072l-.292.3-.128-.1-.282-.1-.769.7.1.1-1.135.6-1.067 1.1-.073.5-1.07.7-.531.5.059 1-.735-.3v-.6h-2.047l-1.06.5-.46.8-.183.7.3.6.835.1 1.327-.8.117.4-.406.7 1.011.2.1 1.5 1.384.3.88-1 1.068.2.375.5 1.023-.1.029-.3.563.3.635 1h1.1l.4.7.058.8 1.212.5h1.528l.448.7.677.2-.13.6-.742 1-.217 2-.67.5h-1l-.331.6.246 1-1.083 1.4-.345.6-1.032.5-.678.1-.028.3.476.1-.057.3-.427.4.259.3h.513l-.028.4-.137.4-.044.3.759.6-.1.4-1.033-.1-1.027-.8-.8-1.4.112-1.3-.606-.8.245-1.4-.36-.1v-2.9s-1.009-.7-1.067-.7a5.3 5.3 0 0 1-.534-.2l-.1-.5-1.312-1.6.13-.6.043-.9.909-.7-.13-1-1.327-.1-1.038-1.2-.735-.2-.476-.1.058-.4-.606-.1v.3l-1.515-.4-.61-.9.248-.5-.959-1.3-.164-1h-.389l.129.9.663 1-.073.4h-.554l-.692-1.2v-1.3l-.721-.4v-1a16.907 16.907 0 0 0-1.387 6.7 17.182 17.182 0 0 0 17.354 17 17.58 17.58 0 0 0 13.459-6.3h-.572v-1.1l-.663-.9v-1.3l-.5-.5-.045-.6.643-1.2-1.217-2.1.142-1.4-1.1-.2-.4-.3h-.736l-.374.3h-1.3l-.044.1h-.727l-1.657-1.8.014-1.5.274-.1.1-.5h-.39l-.159-.6 1.917-1.4v-.9l.939-.5h1.152l.605-.3 1.947-.2v1zm-4.868-6.1l.158-.2.571-.1.142.6.3.5.2.3.367.1-.346.4-.671.1h-.5l.057-.6.419-.1-.035-.3-.391-.2-.273-.2v-.3zm-.937 1.1l.347-.6.467-.1.332.2-.03.3-.714.5h-.4v-.3zm-9.428 2.1h-.362l.02-.2.161-.2.217.1zm1.266-.5l-.246.1-.05.2-.19.1h-.3a.318.318 0 0 1-.017-.1h-.118v-.2h.5l.1-.3h.423z" transform="translate(-876 -10273)"/></symbol><symbol viewBox="0 0 39 27.25" id="socials-yt" xmlns="http://www.w3.org/2000/svg"><defs><style>.kcls-1{fill:#f8f8f8;fill-rule:evenodd;filter:url(#kfilter)}</style><filter id="kfilter" x="595" y="844.875" width="39" height="27.25" filterUnits="userSpaceOnUse"><feFlood result="flood" flood-color="#fff"/><feComposite result="composite" operator="in" in2="SourceGraphic"/><feBlend result="blend" in2="SourceGraphic"/></filter></defs><path id="kRounded_Rectangle_1_copy_2" data-name="Rounded Rectangle 1 copy 2" class="kcls-1" d="M601.061 845.244s6.7-.379 13.412-.379c6.728 0 13.465.379 13.465.379a5.678 5.678 0 0 1 5.678 5.678s.379 3.785.379 7.571-.379 7.571-.379 7.571a5.679 5.679 0 0 1-5.678 5.679s-6.773.378-13.519.378c-6.693 0-13.358-.378-13.358-.378a5.679 5.679 0 0 1-5.678-5.679s-.378-3.822-.378-7.625c0-3.768.378-7.517.378-7.517a5.678 5.678 0 0 1 5.678-5.678zm9.939 7.75v12l10-6z" transform="translate(-595 -844.875)"/></symbol><symbol viewBox="0 0 73 113" id="tour-marker" xmlns="http://www.w3.org/2000/svg"><defs><style>.lcls-1{fill-rule:evenodd}</style></defs><path class="lcls-1" d="M36.517 0A36.377 36.377 0 0 0-.008 36.3c0 20 33.507 76.7 36.525 76.7 2.99 0 36.5-56.7 36.5-76.7A36.371 36.371 0 0 0 36.517 0zm0 58.3a21.2 21.2 0 1 1 21.351-21.2 21.287 21.287 0 0 1-21.351 21.2z"/></symbol></svg>