<?xml version="1.0" encoding="utf-8"?><svg width="194" height="186" viewBox="0 0 194 186" xmlns="http://www.w3.org/2000/svg" xmlns:xlink="http://www.w3.org/1999/xlink"><svg id="heart" viewBox="-283.4 406.5 43.2 39.7" width="43.2" height="39.7" xmlns="http://www.w3.org/2000/svg"><style>.ast0{fill:#3cea24}</style><path class="ast0" d="M-261.8 446.2c-.2 0-.4 0-.6-.1-10.7-4.8-21.7-19.1-20.9-27.3.6-7.5 5.4-12 12.8-12.3 3.2-.1 6.4 1.1 8.7 3.3 2.3-2.2 5.5-3.4 8.7-3.3 7.4.2 12.2 4.8 12.8 12.3.7 8.2-10.3 22.5-20.9 27.3-.2.1-.4.1-.6.1zm-8.4-36.7h-.3c-2.7.1-9.2 1.2-9.9 9.5-.5 6.2 8.6 19.2 18.6 24 9.9-4.8 19.1-17.8 18.6-24-.7-8.4-7.2-9.5-9.9-9.5-2.9-.1-5.7 1.2-7.5 3.4-.6.7-1.8.7-2.3 0-1.9-2.2-4.5-3.4-7.3-3.4z"/></svg><svg width="9" height="19.18" viewBox="0 0 9 19.18" id="socials-fb" x="44" y="40" xmlns="http://www.w3.org/2000/svg"><defs><style>.bcls-1{fill:#00d8ff;fill-rule:evenodd;filter:url(#bfilter)}</style><filter id="bfilter" x="285" y="1008.41" width="9" height="19.18" filterUnits="userSpaceOnUse"><feFlood result="flood" flood-color="#fff"/><feComposite result="composite" operator="in" in2="SourceGraphic"/><feBlend result="blend" in2="SourceGraphic"/></filter></defs><path id="bShape_20_copy_9" data-name="Shape 20 copy 9" class="bcls-1" d="M293.99 1008.39l-2.848.01s-3.632-.33-3.581 3.38l-.006 2.73-2.568.01v3.44h2.568v9.64h3.426v-9.63l2.6-.01.307-3.47h-2.9l-.014-2.05a.829.829 0 0 1 .951-.79l2.063-.03v-3.23z" transform="translate(-285 -1008.41)"/></svg><svg viewBox="0 0 79.4 79.2" width="79.4" height="79.2" id="socials-sl" x="53" y="60" xmlns="http://www.w3.org/2000/svg"><path d="M76.4 29.8C74 21 69.1 7.2 61.1 2.6c-8-4.7-22.4-2-31.3.4C21 5.3 7.2 10.2 2.6 18.2c-4.7 8-2 22.4.4 31.2S10.3 72 18.3 76.6c8 4.7 22.4 2 31.3-.4 8.8-2.4 22.6-7.2 27.3-15.3 4.6-7.9 1.9-22.3-.5-31.1zM61.7 48.1l-5.1 1.3 1.4 5.1c.6 2.1-.7 4.3-2.8 4.9s-4.3-.7-4.9-2.8l-1.4-5.1-11.3 3 1.3 5.1c.6 2.1-.7 4.3-2.8 4.9-2.1.6-4.3-.7-4.9-2.8l-1.3-5.1-5.1 1.4c-2.1.6-4.3-.7-4.9-2.8-.6-2.1.7-4.3 2.8-4.9l5.1-1.4-3-11.3-5.1 1.3c-2.1.6-4.3-.7-4.9-2.8-.6-2.1.7-4.3 2.8-4.9l5.1-1.3-1.4-5.1c-.6-2.1.7-4.3 2.8-4.9 2.1-.6 4.3.7 4.9 2.8l1.4 5.1 11.3-3-1.3-5.1c-.6-2.1.7-4.3 2.8-4.9 2.1-.6 4.3.7 4.9 2.8l1.3 5.1 5.1-1.4c2.1-.6 4.3.7 4.9 2.8.6 2.1-.7 4.3-2.8 4.9l-5.1 1.4 3 11.3 5.1-1.3c2.1-.6 4.3.7 4.9 2.8.6 2.1-.6 4.3-2.8 4.9z"/><path d="M32.5 35.5l3 11.3 11.4-3-3.1-11.4z"/></svg><svg width="21.594" height="17.59" viewBox="0 0 21.594 17.59" id="socials-tw" x="133" y="140" xmlns="http://www.w3.org/2000/svg"><defs><style>.dcls-1{fill:#00d8ff;fill-rule:evenodd;filter:url(#dfilter)}</style><filter id="dfilter" x="241.969" y="1009.41" width="21.594" height="17.59" filterUnits="userSpaceOnUse"><feFlood result="flood" flood-color="#fff"/><feComposite result="composite" operator="in" in2="SourceGraphic"/><feBlend result="blend" in2="SourceGraphic"/></filter></defs><path id="dShape_19_copy" data-name="Shape 19 copy" class="dcls-1" d="M241.973 1025.06s8.875 5.67 16.259-2.33c1.752-1.9 3.02-4.69 3.121-8.92a9.224 9.224 0 0 0 2.217-2.34 6.729 6.729 0 0 1-2.5.73 4.691 4.691 0 0 0 1.932-2.5 7.471 7.471 0 0 1-2.85 1.11 4.44 4.44 0 0 0-5.257-.92c-3.262 1.45-2.312 4.97-2.312 4.97a11.962 11.962 0 0 1-9.12-4.69 4.458 4.458 0 0 0 1.235 5.95 3.682 3.682 0 0 1-1.868-.53s-.412 3.38 3.483 4.4a4.113 4.113 0 0 1-1.932.13s.349 2.47 4.085 3.07c-.002 0-2.155 2.12-6.493 1.87z" transform="translate(-241.969 -1009.41)"/></svg><svg width="39" height="27.25" viewBox="0 0 39 27.25" id="socials-yt" x="155" y="158" xmlns="http://www.w3.org/2000/svg"><defs><style>.ecls-1{fill:#f8f8f8;fill-rule:evenodd;filter:url(#efilter)}</style><filter id="efilter" x="595" y="844.875" width="39" height="27.25" filterUnits="userSpaceOnUse"><feFlood result="flood" flood-color="#fff"/><feComposite result="composite" operator="in" in2="SourceGraphic"/><feBlend result="blend" in2="SourceGraphic"/></filter></defs><path id="eRounded_Rectangle_1_copy_2" data-name="Rounded Rectangle 1 copy 2" class="ecls-1" d="M601.061 845.244s6.7-.379 13.412-.379c6.728 0 13.465.379 13.465.379a5.678 5.678 0 0 1 5.678 5.678s.379 3.785.379 7.571-.379 7.571-.379 7.571a5.679 5.679 0 0 1-5.678 5.679s-6.773.378-13.519.378c-6.693 0-13.358-.378-13.358-.378a5.679 5.679 0 0 1-5.678-5.679s-.378-3.822-.378-7.625c0-3.768.378-7.517.378-7.517a5.678 5.678 0 0 1 5.678-5.678zm9.939 7.75v12l10-6z" transform="translate(-595 -844.875)"/></svg></svg>